%TF.GenerationSoftware,KiCad,Pcbnew,(6.0.10-0)*%
%TF.CreationDate,2023-01-05T11:48:26+01:00*%
%TF.ProjectId,JFP_board_v2,4a46505f-626f-4617-9264-5f76322e6b69,rev?*%
%TF.SameCoordinates,Original*%
%TF.FileFunction,Copper,L2,Bot*%
%TF.FilePolarity,Positive*%
%FSLAX46Y46*%
G04 Gerber Fmt 4.6, Leading zero omitted, Abs format (unit mm)*
G04 Created by KiCad (PCBNEW (6.0.10-0)) date 2023-01-05 11:48:26*
%MOMM*%
%LPD*%
G01*
G04 APERTURE LIST*
G04 Aperture macros list*
%AMRoundRect*
0 Rectangle with rounded corners*
0 $1 Rounding radius*
0 $2 $3 $4 $5 $6 $7 $8 $9 X,Y pos of 4 corners*
0 Add a 4 corners polygon primitive as box body*
4,1,4,$2,$3,$4,$5,$6,$7,$8,$9,$2,$3,0*
0 Add four circle primitives for the rounded corners*
1,1,$1+$1,$2,$3*
1,1,$1+$1,$4,$5*
1,1,$1+$1,$6,$7*
1,1,$1+$1,$8,$9*
0 Add four rect primitives between the rounded corners*
20,1,$1+$1,$2,$3,$4,$5,0*
20,1,$1+$1,$4,$5,$6,$7,0*
20,1,$1+$1,$6,$7,$8,$9,0*
20,1,$1+$1,$8,$9,$2,$3,0*%
G04 Aperture macros list end*
%TA.AperFunction,ComponentPad*%
%ADD10RoundRect,0.300000X0.700000X0.300000X-0.700000X0.300000X-0.700000X-0.300000X0.700000X-0.300000X0*%
%TD*%
%TA.AperFunction,ComponentPad*%
%ADD11R,1.000000X1.000000*%
%TD*%
%TA.AperFunction,ComponentPad*%
%ADD12O,1.000000X1.000000*%
%TD*%
%TA.AperFunction,ComponentPad*%
%ADD13C,5.300000*%
%TD*%
%TA.AperFunction,ComponentPad*%
%ADD14RoundRect,0.300000X-0.300000X0.700000X-0.300000X-0.700000X0.300000X-0.700000X0.300000X0.700000X0*%
%TD*%
%TA.AperFunction,ComponentPad*%
%ADD15RoundRect,0.300000X-0.700000X-0.300000X0.700000X-0.300000X0.700000X0.300000X-0.700000X0.300000X0*%
%TD*%
%TA.AperFunction,ComponentPad*%
%ADD16O,1.600000X1.000000*%
%TD*%
%TA.AperFunction,ComponentPad*%
%ADD17O,2.100000X1.000000*%
%TD*%
%TA.AperFunction,ViaPad*%
%ADD18C,0.800000*%
%TD*%
%TA.AperFunction,ViaPad*%
%ADD19C,0.600000*%
%TD*%
%TA.AperFunction,Conductor*%
%ADD20C,0.300000*%
%TD*%
%TA.AperFunction,Conductor*%
%ADD21C,0.150000*%
%TD*%
%TA.AperFunction,Conductor*%
%ADD22C,0.500000*%
%TD*%
G04 APERTURE END LIST*
D10*
%TO.P,J4,1,Pin_1*%
%TO.N,UART4_TX*%
X127800000Y-89300000D03*
%TO.P,J4,2,Pin_2*%
%TO.N,UART4_RX*%
X127800000Y-91100000D03*
%TO.P,J4,3,Pin_3*%
%TO.N,GND*%
X127800000Y-92900000D03*
%TO.P,J4,4,Pin_4*%
%TO.N,+3V3*%
X127800000Y-94700000D03*
%TO.P,J4,5,Pin_5*%
%TO.N,+5V*%
X127800000Y-96500000D03*
%TD*%
D11*
%TO.P,J5,1,Pin_1*%
%TO.N,+3V3*%
X161000000Y-79800000D03*
D12*
%TO.P,J5,2,Pin_2*%
%TO.N,Net-(J5-Pad2)*%
X159730000Y-79800000D03*
%TO.P,J5,3,Pin_3*%
%TO.N,GND*%
X161000000Y-78530000D03*
%TO.P,J5,4,Pin_4*%
%TO.N,Net-(J5-Pad4)*%
X159730000Y-78530000D03*
%TO.P,J5,5,Pin_5*%
%TO.N,GND*%
X161000000Y-77260000D03*
%TO.P,J5,6,Pin_6*%
%TO.N,unconnected-(J5-Pad6)*%
X159730000Y-77260000D03*
%TO.P,J5,7,Pin_7*%
%TO.N,unconnected-(J5-Pad7)*%
X161000000Y-75990000D03*
%TO.P,J5,8,Pin_8*%
%TO.N,unconnected-(J5-Pad8)*%
X159730000Y-75990000D03*
%TO.P,J5,9,Pin_9*%
%TO.N,GND*%
X161000000Y-74720000D03*
%TO.P,J5,10,Pin_10*%
%TO.N,Net-(J5-Pad10)*%
X159730000Y-74720000D03*
%TD*%
D13*
%TO.P,H1,1,1*%
%TO.N,GND*%
X136500000Y-65500000D03*
%TD*%
%TO.P,H3,1,1*%
%TO.N,GND*%
X136500000Y-96000000D03*
%TD*%
D14*
%TO.P,J3,1,Pin_1*%
%TO.N,I2C2_SDA*%
X156000000Y-99900000D03*
%TO.P,J3,2,Pin_2*%
%TO.N,I2C2_SCL*%
X157800000Y-99900000D03*
%TO.P,J3,3,Pin_3*%
%TO.N,+3V3*%
X159600000Y-99900000D03*
%TO.P,J3,4,Pin_4*%
%TO.N,GND*%
X161400000Y-99900000D03*
%TD*%
D13*
%TO.P,H4,1,1*%
%TO.N,GND*%
X167000000Y-96000000D03*
%TD*%
D15*
%TO.P,J2,1,Pin_1*%
%TO.N,PPM_INPUT*%
X127800000Y-60550000D03*
%TO.P,J2,2,Pin_2*%
%TO.N,RX_VCC*%
X127800000Y-58750000D03*
%TO.P,J2,3,Pin_3*%
%TO.N,GND*%
X127800000Y-56950000D03*
%TO.P,J2,4,Pin_4*%
%TO.N,SBUS_RX*%
X127800000Y-55150000D03*
%TO.P,J2,5,Pin_5*%
%TO.N,nSBUS_RX*%
X127800000Y-53350000D03*
%TD*%
D16*
%TO.P,J7,S1,SHIELD*%
%TO.N,unconnected-(J7-PadS1)*%
X176350000Y-82230000D03*
X176350000Y-90870000D03*
D17*
X172170000Y-90870000D03*
X172170000Y-82230000D03*
%TD*%
D13*
%TO.P,H2,1,1*%
%TO.N,GND*%
X167000000Y-65500000D03*
%TD*%
D15*
%TO.P,J1,1,Pin_1*%
%TO.N,SPI2_SCK*%
X127800000Y-86350000D03*
%TO.P,J1,2,Pin_2*%
%TO.N,SPI2_MOSI*%
X127800000Y-84550000D03*
%TO.P,J1,3,Pin_3*%
%TO.N,SPI2_MISO*%
X127800000Y-82750000D03*
%TO.P,J1,4,Pin_4*%
%TO.N,SPI2_CS*%
X127800000Y-80950000D03*
%TO.P,J1,5,Pin_5*%
%TO.N,NRF24_CE*%
X127800000Y-79150000D03*
%TO.P,J1,6,Pin_6*%
%TO.N,NRF24_CSN*%
X127800000Y-77350000D03*
%TO.P,J1,7,Pin_7*%
%TO.N,NRF24_IRQ*%
X127800000Y-75550000D03*
%TO.P,J1,8,Pin_8*%
%TO.N,+3V3*%
X127800000Y-73750000D03*
%TO.P,J1,9,Pin_9*%
%TO.N,GND*%
X127800000Y-71950000D03*
%TD*%
D18*
%TO.N,GND*%
X176500000Y-69800000D03*
D19*
X154150000Y-65600000D03*
X172310000Y-97710000D03*
X154150000Y-62550000D03*
D18*
X161300000Y-53350000D03*
X169850000Y-88900000D03*
D19*
X151200000Y-61000000D03*
X165900000Y-54450000D03*
X155250000Y-56850000D03*
X164200000Y-53400000D03*
X149450000Y-85010000D03*
X144370000Y-69770000D03*
X172310000Y-100250000D03*
X131670000Y-79930000D03*
X172500000Y-80600000D03*
X129130000Y-100250000D03*
X138400000Y-53100000D03*
X154150000Y-67750000D03*
D18*
X165000000Y-56700000D03*
D19*
X154150000Y-60250000D03*
X141830000Y-95170000D03*
D18*
X169850000Y-89800000D03*
D19*
X160500000Y-69900000D03*
X142950000Y-100250000D03*
D18*
X154200000Y-93450000D03*
D19*
X162150000Y-97710000D03*
D18*
X174150000Y-56150000D03*
D19*
X149450000Y-82470000D03*
X144150000Y-78800000D03*
X157350000Y-89400000D03*
X129130000Y-51990000D03*
D18*
X153250000Y-94400000D03*
X170900000Y-77900000D03*
D19*
X164690000Y-100250000D03*
X141830000Y-54530000D03*
X133800000Y-80950000D03*
X142550000Y-99550000D03*
D18*
X166000000Y-52100000D03*
D19*
X173250000Y-93300000D03*
X161600000Y-69900000D03*
X140905000Y-75170000D03*
X154150000Y-59250000D03*
X131670000Y-90090000D03*
D18*
X155650000Y-78700000D03*
D19*
X133300000Y-54500000D03*
X143850000Y-87900000D03*
X174850000Y-51990000D03*
D18*
X173200000Y-75700000D03*
D19*
X172400000Y-92550000D03*
X167230000Y-92630000D03*
D18*
X174150000Y-57800000D03*
D19*
X144370000Y-51990000D03*
X144370000Y-57070000D03*
X141830000Y-57070000D03*
X141830000Y-59610000D03*
D18*
X175450000Y-67700000D03*
D19*
X157600000Y-78800000D03*
X156525000Y-88800000D03*
X146910000Y-97710000D03*
X139975000Y-85425000D03*
X154150000Y-64600000D03*
X131670000Y-97710000D03*
X146910000Y-82470000D03*
X149450000Y-51990000D03*
X151900000Y-94500000D03*
X141830000Y-51990000D03*
X154150000Y-61350000D03*
X149300000Y-66500000D03*
D18*
X166000000Y-56700000D03*
D19*
X146910000Y-85010000D03*
X136750000Y-62150000D03*
X143750000Y-100250000D03*
X151990000Y-51990000D03*
X151175000Y-92000000D03*
X154530000Y-51990000D03*
X150325000Y-92000000D03*
X156250000Y-69900000D03*
D18*
X165000000Y-52100000D03*
D19*
X167230000Y-100250000D03*
D18*
X169550000Y-76800000D03*
D19*
X158175000Y-88825000D03*
X141650000Y-74450000D03*
D18*
X170200000Y-82400000D03*
D19*
X144050000Y-76550000D03*
X151800000Y-67200000D03*
X157500000Y-60350000D03*
X159000000Y-89400000D03*
X149450000Y-64690000D03*
X155850000Y-60150000D03*
X157500000Y-57800000D03*
D18*
X158500000Y-52750000D03*
X176500000Y-67700000D03*
D19*
X165050000Y-53400000D03*
X163400000Y-94250000D03*
X154530000Y-100250000D03*
X169770000Y-92630000D03*
X174850000Y-100250000D03*
X146910000Y-57070000D03*
D18*
X176500000Y-68700000D03*
X174850000Y-76850000D03*
X164000000Y-56700000D03*
D19*
X165900000Y-55500000D03*
X145100000Y-72750000D03*
X142900500Y-84957364D03*
X159300000Y-69900000D03*
X144950000Y-99550000D03*
X157250000Y-69900000D03*
X134200001Y-84200001D03*
X144370000Y-62150000D03*
D18*
X173200000Y-76750000D03*
D19*
X158350000Y-79450000D03*
X164225000Y-93475000D03*
X173250000Y-79800000D03*
X146910000Y-54530000D03*
X169770000Y-62150000D03*
X155700000Y-89400000D03*
X172310000Y-95170000D03*
X164200000Y-54450000D03*
X167230000Y-62150000D03*
X154150000Y-68850000D03*
D18*
X158500000Y-51700000D03*
D19*
X141830000Y-69770000D03*
D18*
X171650000Y-57800000D03*
D19*
X134210000Y-51990000D03*
X146910000Y-79930000D03*
X132000000Y-55200000D03*
X169770000Y-100250000D03*
X141830000Y-97710000D03*
X174850000Y-95170000D03*
X144370000Y-59610000D03*
D18*
X172850000Y-56150000D03*
D19*
X151100000Y-66500000D03*
X151990000Y-64690000D03*
D18*
X173200000Y-74750000D03*
X174150000Y-59150000D03*
D19*
X133800000Y-81950000D03*
X126590000Y-69770000D03*
D18*
X156400000Y-56850000D03*
D19*
X171500000Y-55000000D03*
D18*
X164825000Y-86050000D03*
D19*
X164690000Y-90090000D03*
X150150000Y-67150000D03*
X165900000Y-53400000D03*
X167230000Y-82470000D03*
X134210000Y-90090000D03*
D18*
X169850000Y-90750000D03*
D19*
X159610000Y-67230000D03*
X154150000Y-66700000D03*
X158400000Y-57800000D03*
X162650000Y-69900000D03*
X164690000Y-92630000D03*
D18*
X164000000Y-52100000D03*
D19*
X146910000Y-87550000D03*
X137750000Y-52400000D03*
X174850000Y-62150000D03*
X142750000Y-74450000D03*
X172550000Y-54100000D03*
X165050000Y-54450000D03*
X155200000Y-69900000D03*
X143550000Y-90550000D03*
X134210000Y-69770000D03*
X131670000Y-51990000D03*
X139290000Y-57070000D03*
X163750000Y-69900000D03*
X133800000Y-79950000D03*
D18*
X170900000Y-76850000D03*
D19*
X164200000Y-55500000D03*
X163750000Y-68750000D03*
X139290000Y-69770000D03*
X165050000Y-55500000D03*
X162575000Y-93650000D03*
X133800000Y-82950000D03*
X154150000Y-63550000D03*
X150500000Y-61600000D03*
X164690000Y-82470000D03*
X131670000Y-59610000D03*
D18*
X160000000Y-51250000D03*
D19*
X134210000Y-62150000D03*
X149450000Y-79930000D03*
X149450000Y-87550000D03*
X159100000Y-59200000D03*
D18*
X142800000Y-91250000D03*
D19*
X174850000Y-64690000D03*
X129130000Y-62150000D03*
X138650000Y-85700000D03*
D18*
X171650000Y-56150000D03*
D19*
X136750000Y-69770000D03*
X131670000Y-92630000D03*
X144550000Y-100250000D03*
X155900000Y-59200000D03*
X126590000Y-100250000D03*
X126590000Y-62150000D03*
X167230000Y-90090000D03*
X133800000Y-78450000D03*
X156450000Y-57800000D03*
X144370000Y-54530000D03*
X148450000Y-67150000D03*
X167230000Y-69770000D03*
D18*
X156400000Y-55750000D03*
D19*
X150350000Y-68850000D03*
X158200000Y-69900000D03*
%TO.N,+5V*%
X147800000Y-65600000D03*
X161950000Y-83050000D03*
X155425500Y-95750000D03*
X144500000Y-65600000D03*
X170700000Y-79350000D03*
X161400000Y-89400000D03*
X161400000Y-85175000D03*
X174350000Y-78350000D03*
%TO.N,+3V3*%
X143600000Y-94400000D03*
X144850000Y-94400000D03*
X151650000Y-72900000D03*
X154550000Y-76900000D03*
X154550000Y-72950000D03*
X144640000Y-87440000D03*
X143700000Y-75150000D03*
X146050000Y-94400000D03*
X137800000Y-58200000D03*
X143550000Y-85650000D03*
X152900000Y-72900000D03*
X143300000Y-79600000D03*
X161250000Y-82250000D03*
X160250000Y-84925000D03*
X148050000Y-68150000D03*
X144500000Y-66650000D03*
X137800000Y-60300000D03*
X149250000Y-72950000D03*
X155200000Y-93550000D03*
X154550000Y-78474500D03*
X149100000Y-94350000D03*
X152400000Y-68400000D03*
X147250000Y-94350000D03*
X158400000Y-90175000D03*
X157250000Y-93550000D03*
%TO.N,NRST*%
X155250000Y-74700000D03*
X142851318Y-82300000D03*
D18*
%TO.N,5V_CONN_USB*%
X169533966Y-86075000D03*
D19*
X173575000Y-84400000D03*
X173500000Y-88550000D03*
X170100000Y-84100000D03*
%TO.N,SPI2_SCK*%
X152075000Y-89550000D03*
X137650250Y-89124750D03*
X137300000Y-86750000D03*
X142700000Y-89950000D03*
%TO.N,SBUS_RX*%
X130600000Y-78350000D03*
X131306233Y-83600000D03*
X130600000Y-74700000D03*
X130600000Y-56350000D03*
X130600000Y-61400000D03*
X131350000Y-88500000D03*
%TO.N,I2C2_SCL*%
X153150000Y-90050000D03*
X148725000Y-90775000D03*
%TO.N,I2C2_SDA*%
X156000000Y-92700000D03*
X153750000Y-90775000D03*
X149500000Y-91325000D03*
X157174500Y-92700000D03*
%TO.N,BOOT0*%
X131974500Y-64300000D03*
X143750000Y-73250000D03*
X129900000Y-64300000D03*
X143300000Y-71825000D03*
%TO.N,SPI3_SCK*%
X150343767Y-76343767D03*
X150475500Y-74550000D03*
%TO.N,SPI1_SCK*%
X145580500Y-95150000D03*
X148600000Y-95600000D03*
%TO.N,ESC_VIN_ADC*%
X145250000Y-64100000D03*
X142100000Y-72575000D03*
X142850000Y-83300000D03*
X148075000Y-64125000D03*
X140200000Y-76200000D03*
X140418750Y-74018750D03*
%TO.N,USB_FS_D-*%
X172550000Y-86150000D03*
X172750000Y-87375500D03*
%TD*%
D20*
%TO.N,+5V*%
X147800000Y-65600000D02*
X144500000Y-65600000D01*
D21*
X171700000Y-78350000D02*
X174350000Y-78350000D01*
X155425500Y-95750000D02*
X156875500Y-94300000D01*
X159000000Y-91450000D02*
X159600000Y-90850000D01*
X159000000Y-93100000D02*
X159000000Y-91450000D01*
X157800000Y-94300000D02*
X159000000Y-93100000D01*
X161400000Y-83600000D02*
X161400000Y-85175000D01*
X161950000Y-83050000D02*
X161400000Y-83600000D01*
X159600000Y-90850000D02*
X160313173Y-90850000D01*
X160313173Y-90850000D02*
X161400000Y-89763173D01*
X161400000Y-89763173D02*
X161400000Y-89400000D01*
X170700000Y-79350000D02*
X171700000Y-78350000D01*
X156875500Y-94300000D02*
X157800000Y-94300000D01*
D20*
%TO.N,+3V3*%
X158375000Y-92725000D02*
X158375000Y-91025000D01*
X143300000Y-79600000D02*
X143550000Y-79850000D01*
X146100000Y-94350000D02*
X146050000Y-94400000D01*
X145900000Y-72950000D02*
X143700000Y-75150000D01*
X157550000Y-93550000D02*
X158375000Y-92725000D01*
X154550000Y-78474500D02*
X154550000Y-76900000D01*
X158375000Y-90200000D02*
X158400000Y-90175000D01*
X157250000Y-93550000D02*
X157550000Y-93550000D01*
X149250000Y-72950000D02*
X149250000Y-69350000D01*
X149250000Y-72950000D02*
X145900000Y-72950000D01*
X151600000Y-72950000D02*
X151650000Y-72900000D01*
X160250000Y-83250000D02*
X160250000Y-84925000D01*
X152900000Y-68900000D02*
X152400000Y-68400000D01*
X146050000Y-94400000D02*
X144850000Y-94400000D01*
X143550000Y-79850000D02*
X143550000Y-86350000D01*
X152900000Y-72900000D02*
X152900000Y-68900000D01*
X146550000Y-66650000D02*
X148050000Y-68150000D01*
X151650000Y-72900000D02*
X152900000Y-72900000D01*
X157250000Y-93550000D02*
X155200000Y-93550000D01*
X149250000Y-72950000D02*
X151600000Y-72950000D01*
X152900000Y-72900000D02*
X152950000Y-72950000D01*
X158375000Y-91025000D02*
X158375000Y-90200000D01*
X144500000Y-66650000D02*
X146550000Y-66650000D01*
X147250000Y-94350000D02*
X146100000Y-94350000D01*
X143550000Y-86350000D02*
X144640000Y-87440000D01*
X149100000Y-94350000D02*
X147250000Y-94350000D01*
X144850000Y-94400000D02*
X143600000Y-94400000D01*
X152950000Y-72950000D02*
X154550000Y-72950000D01*
D21*
X137800000Y-58200000D02*
X137800000Y-60300000D01*
D20*
X149250000Y-69350000D02*
X148050000Y-68150000D01*
X161250000Y-82250000D02*
X160250000Y-83250000D01*
D21*
%TO.N,NRST*%
X155250000Y-74700000D02*
X154300000Y-73750000D01*
X142700000Y-77050000D02*
X142700000Y-82148682D01*
X154300000Y-73750000D02*
X146000000Y-73750000D01*
X142700000Y-82148682D02*
X142851318Y-82300000D01*
X146000000Y-73750000D02*
X142700000Y-77050000D01*
D20*
%TO.N,5V_CONN_USB*%
X173575000Y-88475000D02*
X173500000Y-88550000D01*
D22*
X169533966Y-86075000D02*
X169533966Y-85441034D01*
D20*
X173575000Y-84400000D02*
X173575000Y-88475000D01*
D22*
X170100000Y-84875000D02*
X170100000Y-84100000D01*
X169533966Y-85441034D02*
X170100000Y-84875000D01*
D21*
%TO.N,SPI2_SCK*%
X152075000Y-89550000D02*
X151675000Y-89950000D01*
X137650250Y-89124750D02*
X137300000Y-88774500D01*
X137300000Y-88774500D02*
X137300000Y-86750000D01*
X151675000Y-89950000D02*
X142700000Y-89950000D01*
%TO.N,SBUS_RX*%
X130600000Y-56350000D02*
X130600000Y-61400000D01*
X131350000Y-88500000D02*
X131300000Y-88450000D01*
X130600000Y-74700000D02*
X130600000Y-78350000D01*
X131300000Y-88450000D02*
X131300000Y-83606233D01*
X131300000Y-83606233D02*
X131306233Y-83600000D01*
%TO.N,I2C2_SCL*%
X148725000Y-90775000D02*
X148800000Y-90700000D01*
X152500000Y-90700000D02*
X153150000Y-90050000D01*
X148800000Y-90700000D02*
X152500000Y-90700000D01*
%TO.N,I2C2_SDA*%
X149500000Y-91325000D02*
X149550000Y-91275000D01*
X156000000Y-92700000D02*
X157174500Y-92700000D01*
X149550000Y-91275000D02*
X153250000Y-91275000D01*
X153250000Y-91275000D02*
X153750000Y-90775000D01*
D22*
%TO.N,unconnected-(J7-PadS1)*%
X176350000Y-82230000D02*
X176350000Y-90870000D01*
X172170000Y-82230000D02*
X176350000Y-82230000D01*
X176350000Y-90870000D02*
X172170000Y-90870000D01*
D21*
%TO.N,BOOT0*%
X143750000Y-73250000D02*
X143750000Y-72275000D01*
X143750000Y-72275000D02*
X143300000Y-71825000D01*
X129900000Y-64300000D02*
X131974500Y-64300000D01*
%TO.N,SPI3_SCK*%
X150475500Y-76212034D02*
X150475500Y-74550000D01*
X150343767Y-76343767D02*
X150475500Y-76212034D01*
%TO.N,SPI1_SCK*%
X148150000Y-95150000D02*
X148600000Y-95600000D01*
X145580500Y-95150000D02*
X148150000Y-95150000D01*
%TO.N,ESC_VIN_ADC*%
X142300000Y-83300000D02*
X140200000Y-81200000D01*
X142100000Y-72575000D02*
X141862500Y-72575000D01*
X148075000Y-64125000D02*
X145275000Y-64125000D01*
X141862500Y-72575000D02*
X140418750Y-74018750D01*
X140200000Y-81200000D02*
X140200000Y-76200000D01*
X142850000Y-83300000D02*
X142300000Y-83300000D01*
X145275000Y-64125000D02*
X145250000Y-64100000D01*
%TO.N,USB_FS_D-*%
X172750000Y-87375500D02*
X172750000Y-86350000D01*
X172750000Y-86350000D02*
X172550000Y-86150000D01*
%TD*%
%TA.AperFunction,Conductor*%
%TO.N,GND*%
G36*
X175978274Y-50902051D02*
G01*
X176000000Y-50905492D01*
X176009793Y-50903941D01*
X176016150Y-50903941D01*
X176036131Y-50903084D01*
X176198466Y-50914695D01*
X176218642Y-50916138D01*
X176236436Y-50918696D01*
X176441826Y-50963376D01*
X176459074Y-50968440D01*
X176656015Y-51041896D01*
X176672367Y-51049364D01*
X176856847Y-51150097D01*
X176871971Y-51159817D01*
X177040239Y-51285781D01*
X177053825Y-51297554D01*
X177202446Y-51446175D01*
X177214219Y-51459761D01*
X177340183Y-51628029D01*
X177349903Y-51643153D01*
X177450636Y-51827633D01*
X177458104Y-51843985D01*
X177531560Y-52040926D01*
X177536625Y-52058176D01*
X177581304Y-52263564D01*
X177583862Y-52281358D01*
X177596916Y-52463869D01*
X177596059Y-52483850D01*
X177596059Y-52490207D01*
X177594508Y-52500000D01*
X177596059Y-52509793D01*
X177597949Y-52521726D01*
X177599500Y-52541436D01*
X177599500Y-81617065D01*
X177579498Y-81685186D01*
X177525842Y-81731679D01*
X177455568Y-81741783D01*
X177390988Y-81712289D01*
X177371564Y-81691126D01*
X177326767Y-81629468D01*
X177322888Y-81624129D01*
X177290289Y-81594776D01*
X177187124Y-81501886D01*
X177187123Y-81501885D01*
X177182216Y-81497467D01*
X177115277Y-81458820D01*
X177024007Y-81406125D01*
X177024006Y-81406124D01*
X177018284Y-81402821D01*
X176838256Y-81344326D01*
X176831695Y-81343636D01*
X176831693Y-81343636D01*
X176778037Y-81337997D01*
X176697192Y-81329500D01*
X176002808Y-81329500D01*
X175921963Y-81337997D01*
X175868307Y-81343636D01*
X175868305Y-81343636D01*
X175861744Y-81344326D01*
X175681716Y-81402821D01*
X175517784Y-81497467D01*
X175512877Y-81501885D01*
X175512876Y-81501886D01*
X175462621Y-81547136D01*
X175398614Y-81577853D01*
X175378311Y-81579500D01*
X173391689Y-81579500D01*
X173323568Y-81559498D01*
X173307379Y-81547136D01*
X173257124Y-81501886D01*
X173257123Y-81501885D01*
X173252216Y-81497467D01*
X173088284Y-81402821D01*
X172908256Y-81344326D01*
X172901695Y-81343636D01*
X172901693Y-81343636D01*
X172848037Y-81337997D01*
X172767192Y-81329500D01*
X171572808Y-81329500D01*
X171491963Y-81337997D01*
X171438307Y-81343636D01*
X171438305Y-81343636D01*
X171431744Y-81344326D01*
X171251716Y-81402821D01*
X171245994Y-81406124D01*
X171245993Y-81406125D01*
X171154723Y-81458820D01*
X171087784Y-81497467D01*
X171082877Y-81501885D01*
X171082876Y-81501886D01*
X170979712Y-81594776D01*
X170947112Y-81624129D01*
X170943233Y-81629468D01*
X170898685Y-81690784D01*
X170835849Y-81777270D01*
X170758856Y-81950197D01*
X170752693Y-81979194D01*
X170730909Y-82081680D01*
X170719500Y-82135354D01*
X170719500Y-82324646D01*
X170720872Y-82331099D01*
X170720872Y-82331103D01*
X170733634Y-82391141D01*
X170758856Y-82509803D01*
X170835849Y-82682730D01*
X170839729Y-82688071D01*
X170839730Y-82688072D01*
X170870323Y-82730180D01*
X170947112Y-82835871D01*
X170952014Y-82840284D01*
X170952015Y-82840286D01*
X171064118Y-82941224D01*
X171087784Y-82962533D01*
X171093502Y-82965834D01*
X171093505Y-82965836D01*
X171239282Y-83050000D01*
X171251716Y-83057179D01*
X171431744Y-83115674D01*
X171438305Y-83116364D01*
X171438307Y-83116364D01*
X171491963Y-83122003D01*
X171572808Y-83130500D01*
X171949624Y-83130500D01*
X172017745Y-83150502D01*
X172064238Y-83204158D01*
X172074342Y-83274432D01*
X172058577Y-83319786D01*
X172033822Y-83362404D01*
X172033819Y-83362411D01*
X172030144Y-83368738D01*
X172028023Y-83375740D01*
X172028022Y-83375743D01*
X172023720Y-83389947D01*
X171981105Y-83530650D01*
X171980652Y-83537959D01*
X171980651Y-83537962D01*
X171976223Y-83609338D01*
X171970630Y-83699501D01*
X171971870Y-83706717D01*
X171971870Y-83706719D01*
X171989501Y-83809323D01*
X171999280Y-83866233D01*
X172065518Y-84021902D01*
X172069855Y-84027795D01*
X172161453Y-84152264D01*
X172161455Y-84152267D01*
X172165791Y-84158158D01*
X172189802Y-84178557D01*
X172289146Y-84262957D01*
X172289149Y-84262959D01*
X172294720Y-84267692D01*
X172445389Y-84344627D01*
X172452498Y-84346367D01*
X172452502Y-84346368D01*
X172545969Y-84369239D01*
X172609717Y-84384838D01*
X172615314Y-84385185D01*
X172615319Y-84385186D01*
X172618449Y-84385380D01*
X172618458Y-84385380D01*
X172620388Y-84385500D01*
X172742363Y-84385500D01*
X172745997Y-84385076D01*
X172748361Y-84384939D01*
X172817528Y-84400957D01*
X172867054Y-84451826D01*
X172880907Y-84496899D01*
X172887999Y-84561135D01*
X172903653Y-84603910D01*
X172938080Y-84697986D01*
X172946266Y-84720356D01*
X172950502Y-84726659D01*
X172950504Y-84726664D01*
X173003082Y-84804909D01*
X173024500Y-84875184D01*
X173024500Y-85399279D01*
X173004498Y-85467400D01*
X172950842Y-85513893D01*
X172880568Y-85523997D01*
X172839542Y-85510634D01*
X172809594Y-85494778D01*
X172809592Y-85494777D01*
X172802881Y-85491224D01*
X172638441Y-85449919D01*
X172630843Y-85449879D01*
X172630841Y-85449879D01*
X172553668Y-85449475D01*
X172468895Y-85449031D01*
X172461508Y-85450805D01*
X172461504Y-85450805D01*
X172318162Y-85485220D01*
X172304032Y-85488612D01*
X172297288Y-85492093D01*
X172297285Y-85492094D01*
X172206223Y-85539095D01*
X172153369Y-85566375D01*
X172147647Y-85571367D01*
X172147645Y-85571368D01*
X172086070Y-85625083D01*
X172025604Y-85677831D01*
X171928113Y-85816547D01*
X171866524Y-85974513D01*
X171865532Y-85982046D01*
X171865532Y-85982047D01*
X171847111Y-86121976D01*
X171844394Y-86142611D01*
X171862999Y-86311135D01*
X171865609Y-86318266D01*
X171906564Y-86430180D01*
X171921266Y-86470356D01*
X172015830Y-86611083D01*
X172021442Y-86616190D01*
X172021445Y-86616193D01*
X172135612Y-86720077D01*
X172135616Y-86720080D01*
X172141233Y-86725191D01*
X172147911Y-86728817D01*
X172147914Y-86728819D01*
X172168639Y-86740072D01*
X172218960Y-86790155D01*
X172234216Y-86859493D01*
X172211603Y-86923252D01*
X172128113Y-87042047D01*
X172066524Y-87200013D01*
X172065532Y-87207546D01*
X172065532Y-87207547D01*
X172046713Y-87350499D01*
X172044394Y-87368111D01*
X172062999Y-87536635D01*
X172121266Y-87695856D01*
X172215830Y-87836583D01*
X172221442Y-87841690D01*
X172221445Y-87841693D01*
X172335612Y-87945577D01*
X172335616Y-87945580D01*
X172341233Y-87950691D01*
X172347906Y-87954314D01*
X172347910Y-87954317D01*
X172483558Y-88027967D01*
X172483560Y-88027968D01*
X172490235Y-88031592D01*
X172497584Y-88033520D01*
X172646883Y-88072688D01*
X172646885Y-88072688D01*
X172654233Y-88074616D01*
X172735538Y-88075893D01*
X172750482Y-88076128D01*
X172818280Y-88097197D01*
X172863925Y-88151576D01*
X172872923Y-88222000D01*
X172865896Y-88247881D01*
X172816524Y-88374513D01*
X172815532Y-88382046D01*
X172815532Y-88382047D01*
X172797521Y-88518862D01*
X172794394Y-88542611D01*
X172797934Y-88574673D01*
X172785528Y-88644577D01*
X172737299Y-88696677D01*
X172672695Y-88714500D01*
X172657637Y-88714500D01*
X172568965Y-88724838D01*
X172539235Y-88728304D01*
X172539234Y-88728304D01*
X172531963Y-88729152D01*
X172525086Y-88731648D01*
X172525083Y-88731649D01*
X172379818Y-88784378D01*
X172372939Y-88786875D01*
X172231460Y-88879633D01*
X172115115Y-89002450D01*
X172030144Y-89148738D01*
X172028023Y-89155740D01*
X172028022Y-89155743D01*
X172025543Y-89163928D01*
X171981105Y-89310650D01*
X171980652Y-89317959D01*
X171980651Y-89317962D01*
X171976488Y-89385080D01*
X171970630Y-89479501D01*
X171971870Y-89486717D01*
X171971870Y-89486719D01*
X171998040Y-89639017D01*
X171999280Y-89646233D01*
X172062227Y-89794168D01*
X172070493Y-89864680D01*
X172039325Y-89928469D01*
X171978617Y-89965281D01*
X171946286Y-89969500D01*
X171572808Y-89969500D01*
X171491963Y-89977997D01*
X171438307Y-89983636D01*
X171438305Y-89983636D01*
X171431744Y-89984326D01*
X171251716Y-90042821D01*
X171245994Y-90046124D01*
X171245993Y-90046125D01*
X171197328Y-90074222D01*
X171087784Y-90137467D01*
X171082877Y-90141885D01*
X171082876Y-90141886D01*
X170968687Y-90244703D01*
X170947112Y-90264129D01*
X170943233Y-90269468D01*
X170840463Y-90410920D01*
X170835849Y-90417270D01*
X170758856Y-90590197D01*
X170742952Y-90665022D01*
X170721146Y-90767611D01*
X170719500Y-90775354D01*
X170719500Y-90964646D01*
X170758856Y-91149803D01*
X170835849Y-91322730D01*
X170839729Y-91328071D01*
X170839730Y-91328072D01*
X170931510Y-91454396D01*
X170947112Y-91475871D01*
X170952014Y-91480284D01*
X170952015Y-91480286D01*
X171012751Y-91534973D01*
X171087784Y-91602533D01*
X171093502Y-91605834D01*
X171093505Y-91605836D01*
X171235345Y-91687727D01*
X171251716Y-91697179D01*
X171431744Y-91755674D01*
X171438305Y-91756364D01*
X171438307Y-91756364D01*
X171491963Y-91762003D01*
X171572808Y-91770500D01*
X172767192Y-91770500D01*
X172848037Y-91762003D01*
X172901693Y-91756364D01*
X172901695Y-91756364D01*
X172908256Y-91755674D01*
X173088284Y-91697179D01*
X173104656Y-91687727D01*
X173168236Y-91651019D01*
X173252216Y-91602533D01*
X173307379Y-91552864D01*
X173371386Y-91522147D01*
X173391689Y-91520500D01*
X175378311Y-91520500D01*
X175446432Y-91540502D01*
X175462620Y-91552864D01*
X175517784Y-91602533D01*
X175601764Y-91651019D01*
X175665345Y-91687727D01*
X175681716Y-91697179D01*
X175861744Y-91755674D01*
X175868305Y-91756364D01*
X175868307Y-91756364D01*
X175921963Y-91762003D01*
X176002808Y-91770500D01*
X176697192Y-91770500D01*
X176778037Y-91762003D01*
X176831693Y-91756364D01*
X176831695Y-91756364D01*
X176838256Y-91755674D01*
X177018284Y-91697179D01*
X177034656Y-91687727D01*
X177176495Y-91605836D01*
X177176498Y-91605834D01*
X177182216Y-91602533D01*
X177257249Y-91534973D01*
X177317985Y-91480286D01*
X177317986Y-91480284D01*
X177322888Y-91475871D01*
X177338490Y-91454396D01*
X177371564Y-91408874D01*
X177427786Y-91365520D01*
X177498522Y-91359445D01*
X177561314Y-91392576D01*
X177596225Y-91454396D01*
X177599500Y-91482935D01*
X177599500Y-99958564D01*
X177597949Y-99978274D01*
X177594508Y-100000000D01*
X177596059Y-100009793D01*
X177596059Y-100016150D01*
X177596916Y-100036131D01*
X177587190Y-100172115D01*
X177583862Y-100218642D01*
X177581304Y-100236436D01*
X177536625Y-100441824D01*
X177531560Y-100459074D01*
X177458104Y-100656015D01*
X177450636Y-100672367D01*
X177349903Y-100856847D01*
X177340183Y-100871971D01*
X177214219Y-101040239D01*
X177202446Y-101053825D01*
X177053825Y-101202446D01*
X177040239Y-101214219D01*
X176871971Y-101340183D01*
X176856847Y-101349903D01*
X176672367Y-101450636D01*
X176656015Y-101458104D01*
X176459074Y-101531560D01*
X176441826Y-101536624D01*
X176271907Y-101573588D01*
X176236436Y-101581304D01*
X176218642Y-101583862D01*
X176198466Y-101585305D01*
X176036131Y-101596916D01*
X176016150Y-101596059D01*
X176009793Y-101596059D01*
X176000000Y-101594508D01*
X175978287Y-101597947D01*
X175978274Y-101597949D01*
X175958564Y-101599500D01*
X127541436Y-101599500D01*
X127521726Y-101597949D01*
X127521714Y-101597947D01*
X127500000Y-101594508D01*
X127490207Y-101596059D01*
X127483850Y-101596059D01*
X127463869Y-101596916D01*
X127301534Y-101585305D01*
X127281358Y-101583862D01*
X127263564Y-101581304D01*
X127228093Y-101573588D01*
X127058174Y-101536624D01*
X127040926Y-101531560D01*
X126843985Y-101458104D01*
X126827633Y-101450636D01*
X126643153Y-101349903D01*
X126628029Y-101340183D01*
X126459761Y-101214219D01*
X126446175Y-101202446D01*
X126297554Y-101053825D01*
X126285781Y-101040239D01*
X126159817Y-100871971D01*
X126150097Y-100856847D01*
X126049364Y-100672367D01*
X126041896Y-100656015D01*
X125968440Y-100459074D01*
X125963375Y-100441824D01*
X125918696Y-100236436D01*
X125916138Y-100218642D01*
X125912810Y-100172115D01*
X125903084Y-100036131D01*
X125903941Y-100016150D01*
X125903941Y-100009793D01*
X125905492Y-100000000D01*
X125902051Y-99978274D01*
X125900500Y-99958564D01*
X125900500Y-99144007D01*
X154999500Y-99144007D01*
X154999501Y-100655992D01*
X154999764Y-100658850D01*
X154999764Y-100658859D01*
X155001005Y-100672367D01*
X155006171Y-100728594D01*
X155008170Y-100734972D01*
X155008170Y-100734973D01*
X155048842Y-100864755D01*
X155056873Y-100890383D01*
X155144703Y-101035408D01*
X155264592Y-101155297D01*
X155409617Y-101243127D01*
X155416864Y-101245398D01*
X155416866Y-101245399D01*
X155482106Y-101265844D01*
X155571406Y-101293829D01*
X155644007Y-101300500D01*
X155646905Y-101300500D01*
X156000923Y-101300499D01*
X156355992Y-101300499D01*
X156358850Y-101300236D01*
X156358859Y-101300236D01*
X156394243Y-101296985D01*
X156428594Y-101293829D01*
X156434979Y-101291828D01*
X156583134Y-101245399D01*
X156583136Y-101245398D01*
X156590383Y-101243127D01*
X156735408Y-101155297D01*
X156810905Y-101079800D01*
X156873217Y-101045774D01*
X156944032Y-101050839D01*
X156989095Y-101079800D01*
X157064592Y-101155297D01*
X157209617Y-101243127D01*
X157216864Y-101245398D01*
X157216866Y-101245399D01*
X157282106Y-101265844D01*
X157371406Y-101293829D01*
X157444007Y-101300500D01*
X157446905Y-101300500D01*
X157800923Y-101300499D01*
X158155992Y-101300499D01*
X158158850Y-101300236D01*
X158158859Y-101300236D01*
X158194243Y-101296985D01*
X158228594Y-101293829D01*
X158234979Y-101291828D01*
X158383134Y-101245399D01*
X158383136Y-101245398D01*
X158390383Y-101243127D01*
X158535408Y-101155297D01*
X158610905Y-101079800D01*
X158673217Y-101045774D01*
X158744032Y-101050839D01*
X158789095Y-101079800D01*
X158864592Y-101155297D01*
X159009617Y-101243127D01*
X159016864Y-101245398D01*
X159016866Y-101245399D01*
X159082106Y-101265844D01*
X159171406Y-101293829D01*
X159244007Y-101300500D01*
X159246905Y-101300500D01*
X159600923Y-101300499D01*
X159955992Y-101300499D01*
X159958850Y-101300236D01*
X159958859Y-101300236D01*
X159994243Y-101296985D01*
X160028594Y-101293829D01*
X160034979Y-101291828D01*
X160183134Y-101245399D01*
X160183136Y-101245398D01*
X160190383Y-101243127D01*
X160335408Y-101155297D01*
X160455297Y-101035408D01*
X160459234Y-101028907D01*
X160463920Y-101022931D01*
X160465473Y-101024149D01*
X160510349Y-100983122D01*
X160580329Y-100971151D01*
X160645672Y-100998915D01*
X160665690Y-101019602D01*
X160667052Y-101021378D01*
X160678626Y-101032952D01*
X160790861Y-101119072D01*
X160805042Y-101127259D01*
X160935739Y-101181396D01*
X160951558Y-101185634D01*
X161056590Y-101199462D01*
X161064799Y-101200000D01*
X161127885Y-101200000D01*
X161143124Y-101195525D01*
X161144329Y-101194135D01*
X161146000Y-101186452D01*
X161146000Y-101181884D01*
X161654000Y-101181884D01*
X161658475Y-101197123D01*
X161659865Y-101198328D01*
X161667548Y-101199999D01*
X161735199Y-101199999D01*
X161743411Y-101199461D01*
X161848444Y-101185634D01*
X161864259Y-101181396D01*
X161994959Y-101127259D01*
X162009142Y-101119070D01*
X162121372Y-101032954D01*
X162132952Y-101021374D01*
X162219072Y-100909139D01*
X162227259Y-100894958D01*
X162281396Y-100764261D01*
X162285634Y-100748442D01*
X162299462Y-100643410D01*
X162300000Y-100635201D01*
X162300000Y-100172115D01*
X162295525Y-100156876D01*
X162294135Y-100155671D01*
X162286452Y-100154000D01*
X161672115Y-100154000D01*
X161656876Y-100158475D01*
X161655671Y-100159865D01*
X161654000Y-100167548D01*
X161654000Y-101181884D01*
X161146000Y-101181884D01*
X161146000Y-99627885D01*
X161654000Y-99627885D01*
X161658475Y-99643124D01*
X161659865Y-99644329D01*
X161667548Y-99646000D01*
X162281884Y-99646000D01*
X162297123Y-99641525D01*
X162298328Y-99640135D01*
X162299999Y-99632452D01*
X162299999Y-99164801D01*
X162299461Y-99156589D01*
X162285634Y-99051556D01*
X162281396Y-99035741D01*
X162227259Y-98905041D01*
X162219070Y-98890858D01*
X162132954Y-98778628D01*
X162121374Y-98767048D01*
X162009139Y-98680928D01*
X161994958Y-98672741D01*
X161864261Y-98618604D01*
X161848442Y-98614366D01*
X161743410Y-98600538D01*
X161735201Y-98600000D01*
X161672115Y-98600000D01*
X161656876Y-98604475D01*
X161655671Y-98605865D01*
X161654000Y-98613548D01*
X161654000Y-99627885D01*
X161146000Y-99627885D01*
X161146000Y-98618116D01*
X161141525Y-98602877D01*
X161140135Y-98601672D01*
X161132452Y-98600001D01*
X161064801Y-98600001D01*
X161056589Y-98600539D01*
X160951556Y-98614366D01*
X160935741Y-98618604D01*
X160805041Y-98672741D01*
X160790858Y-98680930D01*
X160678628Y-98767046D01*
X160667045Y-98778629D01*
X160665684Y-98780403D01*
X160664154Y-98781520D01*
X160661206Y-98784468D01*
X160660746Y-98784008D01*
X160608345Y-98822269D01*
X160537474Y-98826490D01*
X160475572Y-98791724D01*
X160464108Y-98776922D01*
X160463920Y-98777069D01*
X160459234Y-98771093D01*
X160455297Y-98764592D01*
X160335408Y-98644703D01*
X160190383Y-98556873D01*
X160183136Y-98554602D01*
X160183134Y-98554601D01*
X160117894Y-98534156D01*
X160028594Y-98506171D01*
X159955993Y-98499500D01*
X159953095Y-98499500D01*
X159599077Y-98499501D01*
X159244008Y-98499501D01*
X159241150Y-98499764D01*
X159241141Y-98499764D01*
X159205757Y-98503015D01*
X159171406Y-98506171D01*
X159165028Y-98508170D01*
X159165027Y-98508170D01*
X159016866Y-98554601D01*
X159016864Y-98554602D01*
X159009617Y-98556873D01*
X158864592Y-98644703D01*
X158789095Y-98720200D01*
X158726783Y-98754226D01*
X158655968Y-98749161D01*
X158610905Y-98720200D01*
X158535408Y-98644703D01*
X158390383Y-98556873D01*
X158383136Y-98554602D01*
X158383134Y-98554601D01*
X158317894Y-98534156D01*
X158228594Y-98506171D01*
X158155993Y-98499500D01*
X158153095Y-98499500D01*
X157799077Y-98499501D01*
X157444008Y-98499501D01*
X157441150Y-98499764D01*
X157441141Y-98499764D01*
X157405757Y-98503015D01*
X157371406Y-98506171D01*
X157365028Y-98508170D01*
X157365027Y-98508170D01*
X157216866Y-98554601D01*
X157216864Y-98554602D01*
X157209617Y-98556873D01*
X157064592Y-98644703D01*
X156989095Y-98720200D01*
X156926783Y-98754226D01*
X156855968Y-98749161D01*
X156810905Y-98720200D01*
X156735408Y-98644703D01*
X156590383Y-98556873D01*
X156583136Y-98554602D01*
X156583134Y-98554601D01*
X156517894Y-98534156D01*
X156428594Y-98506171D01*
X156355993Y-98499500D01*
X156353095Y-98499500D01*
X155999077Y-98499501D01*
X155644008Y-98499501D01*
X155641150Y-98499764D01*
X155641141Y-98499764D01*
X155605757Y-98503015D01*
X155571406Y-98506171D01*
X155565028Y-98508170D01*
X155565027Y-98508170D01*
X155416866Y-98554601D01*
X155416864Y-98554602D01*
X155409617Y-98556873D01*
X155264592Y-98644703D01*
X155144703Y-98764592D01*
X155056873Y-98909617D01*
X155006171Y-99071406D01*
X154999500Y-99144007D01*
X125900500Y-99144007D01*
X125900500Y-98260621D01*
X134604919Y-98260621D01*
X134604937Y-98260874D01*
X134610851Y-98269616D01*
X134637676Y-98294024D01*
X134643303Y-98298581D01*
X134913682Y-98492868D01*
X134919812Y-98496758D01*
X135210722Y-98658676D01*
X135217242Y-98661828D01*
X135524844Y-98789241D01*
X135531695Y-98791627D01*
X135851886Y-98882836D01*
X135858975Y-98884420D01*
X136187538Y-98938225D01*
X136194744Y-98938982D01*
X136527318Y-98954666D01*
X136534567Y-98954590D01*
X136866729Y-98931946D01*
X136873938Y-98931035D01*
X137201301Y-98870362D01*
X137208331Y-98868635D01*
X137526554Y-98770736D01*
X137533365Y-98768203D01*
X137838206Y-98634387D01*
X137844681Y-98631088D01*
X138132136Y-98463113D01*
X138138174Y-98459102D01*
X138387402Y-98271978D01*
X138395856Y-98260651D01*
X138395840Y-98260621D01*
X165104919Y-98260621D01*
X165104937Y-98260874D01*
X165110851Y-98269616D01*
X165137676Y-98294024D01*
X165143303Y-98298581D01*
X165413682Y-98492868D01*
X165419812Y-98496758D01*
X165710722Y-98658676D01*
X165717242Y-98661828D01*
X166024844Y-98789241D01*
X166031695Y-98791627D01*
X166351886Y-98882836D01*
X166358975Y-98884420D01*
X166687538Y-98938225D01*
X166694744Y-98938982D01*
X167027318Y-98954666D01*
X167034567Y-98954590D01*
X167366729Y-98931946D01*
X167373938Y-98931035D01*
X167701301Y-98870362D01*
X167708331Y-98868635D01*
X168026554Y-98770736D01*
X168033365Y-98768203D01*
X168338206Y-98634387D01*
X168344681Y-98631088D01*
X168632136Y-98463113D01*
X168638174Y-98459102D01*
X168887402Y-98271978D01*
X168895856Y-98260651D01*
X168889112Y-98248322D01*
X167012812Y-96372022D01*
X166998868Y-96364408D01*
X166997035Y-96364539D01*
X166990420Y-96368790D01*
X165112533Y-98246677D01*
X165104919Y-98260621D01*
X138395840Y-98260621D01*
X138389112Y-98248322D01*
X136512812Y-96372022D01*
X136498868Y-96364408D01*
X136497035Y-96364539D01*
X136490420Y-96368790D01*
X134612533Y-98246677D01*
X134604919Y-98260621D01*
X125900500Y-98260621D01*
X125900500Y-96144007D01*
X126399500Y-96144007D01*
X126399501Y-96855992D01*
X126399764Y-96858850D01*
X126399764Y-96858859D01*
X126400844Y-96870614D01*
X126406171Y-96928594D01*
X126456873Y-97090383D01*
X126544703Y-97235408D01*
X126664592Y-97355297D01*
X126809617Y-97443127D01*
X126816864Y-97445398D01*
X126816866Y-97445399D01*
X126882106Y-97465844D01*
X126971406Y-97493829D01*
X127044007Y-97500500D01*
X127046905Y-97500500D01*
X127801961Y-97500499D01*
X128555992Y-97500499D01*
X128558850Y-97500236D01*
X128558859Y-97500236D01*
X128594243Y-97496985D01*
X128628594Y-97493829D01*
X128691029Y-97474263D01*
X128783134Y-97445399D01*
X128783136Y-97445398D01*
X128790383Y-97443127D01*
X128935408Y-97355297D01*
X129055297Y-97235408D01*
X129143127Y-97090383D01*
X129193829Y-96928594D01*
X129200500Y-96855993D01*
X129200499Y-96144008D01*
X129200234Y-96141116D01*
X129194440Y-96078060D01*
X129193829Y-96071406D01*
X129170575Y-95997204D01*
X129145399Y-95916866D01*
X129145398Y-95916864D01*
X129143501Y-95910812D01*
X133546554Y-95910812D01*
X133555270Y-96243643D01*
X133555876Y-96250859D01*
X133602790Y-96580491D01*
X133604219Y-96587580D01*
X133688708Y-96909633D01*
X133690948Y-96916528D01*
X133811890Y-97226727D01*
X133814905Y-97233314D01*
X133970705Y-97527570D01*
X133974451Y-97533755D01*
X134163036Y-97808148D01*
X134167481Y-97813877D01*
X134229853Y-97885376D01*
X134243025Y-97893780D01*
X134252880Y-97887910D01*
X136127978Y-96012812D01*
X136134356Y-96001132D01*
X136864408Y-96001132D01*
X136864539Y-96002965D01*
X136868790Y-96009580D01*
X138745090Y-97885880D01*
X138758444Y-97893172D01*
X138768416Y-97886118D01*
X138870003Y-97764621D01*
X138874313Y-97758818D01*
X139057117Y-97480525D01*
X139060731Y-97474263D01*
X139210337Y-97176808D01*
X139213209Y-97170170D01*
X139327630Y-96857500D01*
X139329726Y-96850559D01*
X139407450Y-96526814D01*
X139408734Y-96519675D01*
X139448832Y-96188325D01*
X139449256Y-96182755D01*
X139454911Y-96002797D01*
X139454838Y-95997204D01*
X139435625Y-95663981D01*
X139434793Y-95656792D01*
X139377549Y-95328796D01*
X139375894Y-95321741D01*
X139281334Y-95002515D01*
X139278876Y-94995686D01*
X139148250Y-94689440D01*
X139145033Y-94682957D01*
X138980062Y-94393732D01*
X138979334Y-94392611D01*
X142894394Y-94392611D01*
X142912999Y-94561135D01*
X142971266Y-94720356D01*
X143065830Y-94861083D01*
X143071442Y-94866190D01*
X143071445Y-94866193D01*
X143185612Y-94970077D01*
X143185616Y-94970080D01*
X143191233Y-94975191D01*
X143197906Y-94978814D01*
X143197910Y-94978817D01*
X143333558Y-95052467D01*
X143333560Y-95052468D01*
X143340235Y-95056092D01*
X143347584Y-95058020D01*
X143496883Y-95097188D01*
X143496885Y-95097188D01*
X143504233Y-95099116D01*
X143590609Y-95100473D01*
X143666161Y-95101660D01*
X143666164Y-95101660D01*
X143673760Y-95101779D01*
X143681165Y-95100083D01*
X143681166Y-95100083D01*
X143741586Y-95086245D01*
X143839029Y-95063928D01*
X143990498Y-94987747D01*
X143998763Y-94980688D01*
X144000948Y-94979709D01*
X144002602Y-94978610D01*
X144002785Y-94978886D01*
X144063553Y-94951658D01*
X144080593Y-94950500D01*
X144367853Y-94950500D01*
X144439079Y-94973231D01*
X144441233Y-94975191D01*
X144491558Y-95002515D01*
X144583558Y-95052467D01*
X144583560Y-95052468D01*
X144590235Y-95056092D01*
X144597584Y-95058020D01*
X144746883Y-95097188D01*
X144746885Y-95097188D01*
X144754233Y-95099116D01*
X144761833Y-95099235D01*
X144769351Y-95100265D01*
X144769078Y-95102258D01*
X144827013Y-95120258D01*
X144872662Y-95174633D01*
X144882483Y-95211352D01*
X144893499Y-95311135D01*
X144899962Y-95328796D01*
X144934666Y-95423627D01*
X144951766Y-95470356D01*
X145046330Y-95611083D01*
X145051942Y-95616190D01*
X145051945Y-95616193D01*
X145166112Y-95720077D01*
X145166116Y-95720080D01*
X145171733Y-95725191D01*
X145178406Y-95728814D01*
X145178410Y-95728817D01*
X145314058Y-95802467D01*
X145314060Y-95802468D01*
X145320735Y-95806092D01*
X145328084Y-95808020D01*
X145477383Y-95847188D01*
X145477385Y-95847188D01*
X145484733Y-95849116D01*
X145571109Y-95850473D01*
X145646661Y-95851660D01*
X145646664Y-95851660D01*
X145654260Y-95851779D01*
X145661665Y-95850083D01*
X145661666Y-95850083D01*
X145722086Y-95836245D01*
X145819529Y-95813928D01*
X145970998Y-95737747D01*
X146067075Y-95655689D01*
X146131865Y-95626658D01*
X146148906Y-95625500D01*
X147785170Y-95625500D01*
X147853291Y-95645502D01*
X147899784Y-95699158D01*
X147910409Y-95737674D01*
X147912999Y-95761135D01*
X147929451Y-95806092D01*
X147967892Y-95911135D01*
X147971266Y-95920356D01*
X147975502Y-95926659D01*
X147975502Y-95926660D01*
X147988574Y-95946113D01*
X148065830Y-96061083D01*
X148071442Y-96066190D01*
X148071445Y-96066193D01*
X148185612Y-96170077D01*
X148185616Y-96170080D01*
X148191233Y-96175191D01*
X148197906Y-96178814D01*
X148197910Y-96178817D01*
X148333558Y-96252467D01*
X148333560Y-96252468D01*
X148340235Y-96256092D01*
X148347584Y-96258020D01*
X148496883Y-96297188D01*
X148496885Y-96297188D01*
X148504233Y-96299116D01*
X148590609Y-96300473D01*
X148666161Y-96301660D01*
X148666164Y-96301660D01*
X148673760Y-96301779D01*
X148681165Y-96300083D01*
X148681166Y-96300083D01*
X148741586Y-96286245D01*
X148839029Y-96263928D01*
X148990498Y-96187747D01*
X149097787Y-96096113D01*
X149113651Y-96082564D01*
X149113652Y-96082563D01*
X149119423Y-96077634D01*
X149218361Y-95939947D01*
X149227640Y-95916866D01*
X149278766Y-95789687D01*
X149278767Y-95789685D01*
X149281601Y-95782634D01*
X149299668Y-95655689D01*
X149304909Y-95618862D01*
X149304909Y-95618859D01*
X149305490Y-95614778D01*
X149305645Y-95600000D01*
X149303473Y-95582047D01*
X149289093Y-95463222D01*
X149285276Y-95431680D01*
X149225345Y-95273077D01*
X149191934Y-95224464D01*
X149169834Y-95156995D01*
X149187719Y-95088288D01*
X149239911Y-95040158D01*
X149267645Y-95030277D01*
X149292683Y-95024543D01*
X149339029Y-95013928D01*
X149490498Y-94937747D01*
X149569713Y-94870090D01*
X149613651Y-94832564D01*
X149613652Y-94832563D01*
X149619423Y-94827634D01*
X149718361Y-94689947D01*
X149754274Y-94600612D01*
X149778766Y-94539687D01*
X149778767Y-94539685D01*
X149781601Y-94532634D01*
X149788877Y-94481511D01*
X149804909Y-94368862D01*
X149804909Y-94368859D01*
X149805490Y-94364778D01*
X149805645Y-94350000D01*
X149785276Y-94181680D01*
X149725345Y-94023077D01*
X149629312Y-93883349D01*
X149623641Y-93878296D01*
X149508392Y-93775612D01*
X149508388Y-93775610D01*
X149502721Y-93770560D01*
X149487548Y-93762526D01*
X149406608Y-93719671D01*
X149352881Y-93691224D01*
X149188441Y-93649919D01*
X149180843Y-93649879D01*
X149180841Y-93649879D01*
X149103668Y-93649475D01*
X149018895Y-93649031D01*
X149011508Y-93650805D01*
X149011504Y-93650805D01*
X148868162Y-93685220D01*
X148854032Y-93688612D01*
X148847288Y-93692093D01*
X148847285Y-93692094D01*
X148721779Y-93756873D01*
X148703369Y-93766375D01*
X148697645Y-93771368D01*
X148691364Y-93775637D01*
X148689938Y-93773539D01*
X148636522Y-93798155D01*
X148618163Y-93799500D01*
X147732248Y-93799500D01*
X147660339Y-93776965D01*
X147658387Y-93775608D01*
X147652721Y-93770560D01*
X147646015Y-93767009D01*
X147646013Y-93767008D01*
X147556608Y-93719671D01*
X147502881Y-93691224D01*
X147338441Y-93649919D01*
X147330843Y-93649879D01*
X147330841Y-93649879D01*
X147253668Y-93649475D01*
X147168895Y-93649031D01*
X147161508Y-93650805D01*
X147161504Y-93650805D01*
X147018162Y-93685220D01*
X147004032Y-93688612D01*
X146997288Y-93692093D01*
X146997285Y-93692094D01*
X146871779Y-93756873D01*
X146853369Y-93766375D01*
X146847645Y-93771368D01*
X146841364Y-93775637D01*
X146839938Y-93773539D01*
X146786522Y-93798155D01*
X146768163Y-93799500D01*
X146444243Y-93799500D01*
X146385287Y-93784856D01*
X146302881Y-93741224D01*
X146138441Y-93699919D01*
X146130843Y-93699879D01*
X146130841Y-93699879D01*
X146053668Y-93699475D01*
X145968895Y-93699031D01*
X145961508Y-93700805D01*
X145961504Y-93700805D01*
X145839128Y-93730186D01*
X145804032Y-93738612D01*
X145797288Y-93742093D01*
X145797285Y-93742094D01*
X145660117Y-93812892D01*
X145653369Y-93816375D01*
X145647645Y-93821368D01*
X145641364Y-93825637D01*
X145639938Y-93823539D01*
X145586522Y-93848155D01*
X145568163Y-93849500D01*
X145332248Y-93849500D01*
X145260339Y-93826965D01*
X145258387Y-93825608D01*
X145252721Y-93820560D01*
X145246015Y-93817009D01*
X145246013Y-93817008D01*
X145167829Y-93775612D01*
X145102881Y-93741224D01*
X144938441Y-93699919D01*
X144930843Y-93699879D01*
X144930841Y-93699879D01*
X144853668Y-93699475D01*
X144768895Y-93699031D01*
X144761508Y-93700805D01*
X144761504Y-93700805D01*
X144639128Y-93730186D01*
X144604032Y-93738612D01*
X144597288Y-93742093D01*
X144597285Y-93742094D01*
X144460117Y-93812892D01*
X144453369Y-93816375D01*
X144447645Y-93821368D01*
X144441364Y-93825637D01*
X144439938Y-93823539D01*
X144386522Y-93848155D01*
X144368163Y-93849500D01*
X144082248Y-93849500D01*
X144010339Y-93826965D01*
X144008387Y-93825608D01*
X144002721Y-93820560D01*
X143996015Y-93817009D01*
X143996013Y-93817008D01*
X143917829Y-93775612D01*
X143852881Y-93741224D01*
X143688441Y-93699919D01*
X143680843Y-93699879D01*
X143680841Y-93699879D01*
X143603668Y-93699475D01*
X143518895Y-93699031D01*
X143511508Y-93700805D01*
X143511504Y-93700805D01*
X143389128Y-93730186D01*
X143354032Y-93738612D01*
X143347288Y-93742093D01*
X143347285Y-93742094D01*
X143210117Y-93812892D01*
X143203369Y-93816375D01*
X143197647Y-93821367D01*
X143197645Y-93821368D01*
X143170896Y-93844703D01*
X143075604Y-93927831D01*
X142978113Y-94066547D01*
X142916524Y-94224513D01*
X142915532Y-94232046D01*
X142915532Y-94232047D01*
X142897521Y-94368862D01*
X142894394Y-94392611D01*
X138979334Y-94392611D01*
X138976130Y-94387677D01*
X138779013Y-94119336D01*
X138774399Y-94113758D01*
X138772786Y-94112023D01*
X138759136Y-94103907D01*
X138758529Y-94103928D01*
X138750050Y-94109160D01*
X136872022Y-95987188D01*
X136864408Y-96001132D01*
X136134356Y-96001132D01*
X136135592Y-95998868D01*
X136135461Y-95997035D01*
X136131210Y-95990420D01*
X134253688Y-94112898D01*
X134240895Y-94105912D01*
X134230142Y-94113775D01*
X134075742Y-94310689D01*
X134071610Y-94316634D01*
X133897647Y-94600516D01*
X133894217Y-94606912D01*
X133754042Y-94908894D01*
X133751371Y-94915639D01*
X133646830Y-95231744D01*
X133644953Y-95238748D01*
X133577436Y-95564775D01*
X133576379Y-95571936D01*
X133546782Y-95903560D01*
X133546554Y-95910812D01*
X129143501Y-95910812D01*
X129143127Y-95909617D01*
X129055297Y-95764592D01*
X128979800Y-95689095D01*
X128945774Y-95626783D01*
X128950839Y-95555968D01*
X128979800Y-95510905D01*
X129055297Y-95435408D01*
X129143127Y-95290383D01*
X129146325Y-95280180D01*
X129181989Y-95166375D01*
X129193829Y-95128594D01*
X129200500Y-95055993D01*
X129200499Y-94344008D01*
X129200234Y-94341116D01*
X129194440Y-94278060D01*
X129193829Y-94271406D01*
X129186844Y-94249116D01*
X129145399Y-94116866D01*
X129145398Y-94116864D01*
X129143127Y-94109617D01*
X129055297Y-93964592D01*
X128935408Y-93844703D01*
X128928907Y-93840766D01*
X128922931Y-93836080D01*
X128924149Y-93834527D01*
X128883122Y-93789651D01*
X128875024Y-93742311D01*
X134606394Y-93742311D01*
X134612789Y-93753579D01*
X136487188Y-95627978D01*
X136501132Y-95635592D01*
X136502965Y-95635461D01*
X136509580Y-95631210D01*
X138385933Y-93754857D01*
X138393325Y-93741320D01*
X138386538Y-93731620D01*
X138289350Y-93648612D01*
X138283578Y-93644231D01*
X138132351Y-93542611D01*
X154494394Y-93542611D01*
X154512999Y-93711135D01*
X154536604Y-93775637D01*
X154563846Y-93850079D01*
X154571266Y-93870356D01*
X154665830Y-94011083D01*
X154671442Y-94016190D01*
X154671445Y-94016193D01*
X154785612Y-94120077D01*
X154785616Y-94120080D01*
X154791233Y-94125191D01*
X154797906Y-94128814D01*
X154797910Y-94128817D01*
X154933558Y-94202467D01*
X154933560Y-94202468D01*
X154940235Y-94206092D01*
X154947584Y-94208020D01*
X155096883Y-94247188D01*
X155096885Y-94247188D01*
X155104233Y-94249116D01*
X155190609Y-94250473D01*
X155266161Y-94251660D01*
X155266164Y-94251660D01*
X155273760Y-94251779D01*
X155281165Y-94250083D01*
X155281166Y-94250083D01*
X155359916Y-94232047D01*
X155439029Y-94213928D01*
X155590498Y-94137747D01*
X155598763Y-94130688D01*
X155600948Y-94129709D01*
X155602602Y-94128610D01*
X155602785Y-94128886D01*
X155663553Y-94101658D01*
X155680593Y-94100500D01*
X156098350Y-94100500D01*
X156166471Y-94120502D01*
X156212964Y-94174158D01*
X156223068Y-94244432D01*
X156193574Y-94309012D01*
X156187446Y-94315595D01*
X155490618Y-95012424D01*
X155428305Y-95046449D01*
X155400865Y-95049327D01*
X155344395Y-95049031D01*
X155337008Y-95050805D01*
X155337004Y-95050805D01*
X155193662Y-95085220D01*
X155179532Y-95088612D01*
X155172788Y-95092093D01*
X155172785Y-95092094D01*
X155074911Y-95142611D01*
X155028869Y-95166375D01*
X155023147Y-95171367D01*
X155023145Y-95171368D01*
X154977311Y-95211352D01*
X154901104Y-95277831D01*
X154803613Y-95416547D01*
X154742024Y-95574513D01*
X154741032Y-95582046D01*
X154741032Y-95582047D01*
X154721184Y-95732816D01*
X154719894Y-95742611D01*
X154738499Y-95911135D01*
X154746367Y-95932634D01*
X154793373Y-96061083D01*
X154796766Y-96070356D01*
X154801002Y-96076659D01*
X154801002Y-96076660D01*
X154814074Y-96096113D01*
X154891330Y-96211083D01*
X154896942Y-96216190D01*
X154896945Y-96216193D01*
X155011112Y-96320077D01*
X155011116Y-96320080D01*
X155016733Y-96325191D01*
X155023406Y-96328814D01*
X155023410Y-96328817D01*
X155159058Y-96402467D01*
X155159060Y-96402468D01*
X155165735Y-96406092D01*
X155173084Y-96408020D01*
X155322383Y-96447188D01*
X155322385Y-96447188D01*
X155329733Y-96449116D01*
X155416109Y-96450473D01*
X155491661Y-96451660D01*
X155491664Y-96451660D01*
X155499260Y-96451779D01*
X155506665Y-96450083D01*
X155506666Y-96450083D01*
X155567086Y-96436245D01*
X155664529Y-96413928D01*
X155815998Y-96337747D01*
X155911603Y-96256092D01*
X155939151Y-96232564D01*
X155939152Y-96232563D01*
X155944923Y-96227634D01*
X156043861Y-96089947D01*
X156053881Y-96065022D01*
X156104266Y-95939687D01*
X156104267Y-95939685D01*
X156107101Y-95932634D01*
X156110207Y-95910812D01*
X164046554Y-95910812D01*
X164055270Y-96243643D01*
X164055876Y-96250859D01*
X164102790Y-96580491D01*
X164104219Y-96587580D01*
X164188708Y-96909633D01*
X164190948Y-96916528D01*
X164311890Y-97226727D01*
X164314905Y-97233314D01*
X164470705Y-97527570D01*
X164474451Y-97533755D01*
X164663036Y-97808148D01*
X164667481Y-97813877D01*
X164729853Y-97885376D01*
X164743025Y-97893780D01*
X164752880Y-97887910D01*
X166627978Y-96012812D01*
X166634356Y-96001132D01*
X167364408Y-96001132D01*
X167364539Y-96002965D01*
X167368790Y-96009580D01*
X169245090Y-97885880D01*
X169258444Y-97893172D01*
X169268416Y-97886118D01*
X169344371Y-97795277D01*
X174293500Y-97795277D01*
X174294872Y-97801729D01*
X174294872Y-97801734D01*
X174312651Y-97885376D01*
X174333119Y-97981667D01*
X174410624Y-98155746D01*
X174414504Y-98161087D01*
X174414505Y-98161088D01*
X174518746Y-98304563D01*
X174522629Y-98309908D01*
X174664238Y-98437413D01*
X174829262Y-98532690D01*
X175010490Y-98591575D01*
X175017051Y-98592265D01*
X175017053Y-98592265D01*
X175070170Y-98597848D01*
X175152494Y-98606500D01*
X175247506Y-98606500D01*
X175329830Y-98597848D01*
X175382947Y-98592265D01*
X175382949Y-98592265D01*
X175389510Y-98591575D01*
X175570738Y-98532690D01*
X175735762Y-98437413D01*
X175877371Y-98309908D01*
X175989376Y-98155747D01*
X176066881Y-97981667D01*
X176087349Y-97885376D01*
X176105128Y-97801734D01*
X176105128Y-97801729D01*
X176106500Y-97795277D01*
X176106500Y-97604723D01*
X176066881Y-97418333D01*
X176064196Y-97412302D01*
X175992061Y-97250284D01*
X175992060Y-97250282D01*
X175989376Y-97244254D01*
X175882303Y-97096880D01*
X175881254Y-97095436D01*
X175881252Y-97095434D01*
X175877371Y-97090092D01*
X175735762Y-96962587D01*
X175570738Y-96867310D01*
X175389510Y-96808425D01*
X175382949Y-96807735D01*
X175382947Y-96807735D01*
X175329830Y-96802152D01*
X175247506Y-96793500D01*
X175152494Y-96793500D01*
X175070170Y-96802152D01*
X175017053Y-96807735D01*
X175017051Y-96807735D01*
X175010490Y-96808425D01*
X174829262Y-96867310D01*
X174664238Y-96962587D01*
X174522629Y-97090092D01*
X174464449Y-97170170D01*
X174418572Y-97233314D01*
X174410624Y-97244253D01*
X174333119Y-97418333D01*
X174293500Y-97604723D01*
X174293500Y-97795277D01*
X169344371Y-97795277D01*
X169370003Y-97764621D01*
X169374313Y-97758818D01*
X169557117Y-97480525D01*
X169560731Y-97474263D01*
X169710337Y-97176808D01*
X169713209Y-97170170D01*
X169827630Y-96857500D01*
X169829726Y-96850559D01*
X169907450Y-96526814D01*
X169908734Y-96519675D01*
X169948832Y-96188325D01*
X169949256Y-96182755D01*
X169954911Y-96002797D01*
X169954838Y-95997204D01*
X169935625Y-95663981D01*
X169934793Y-95656792D01*
X169877549Y-95328796D01*
X169875894Y-95321741D01*
X169781334Y-95002515D01*
X169778876Y-94995686D01*
X169648250Y-94689440D01*
X169645033Y-94682957D01*
X169480062Y-94393732D01*
X169476130Y-94387677D01*
X169279013Y-94119336D01*
X169274399Y-94113758D01*
X169272786Y-94112023D01*
X169259136Y-94103907D01*
X169258529Y-94103928D01*
X169250050Y-94109160D01*
X167372022Y-95987188D01*
X167364408Y-96001132D01*
X166634356Y-96001132D01*
X166635592Y-95998868D01*
X166635461Y-95997035D01*
X166631210Y-95990420D01*
X164753688Y-94112898D01*
X164740895Y-94105912D01*
X164730142Y-94113775D01*
X164575742Y-94310689D01*
X164571610Y-94316634D01*
X164397647Y-94600516D01*
X164394217Y-94606912D01*
X164254042Y-94908894D01*
X164251371Y-94915639D01*
X164146830Y-95231744D01*
X164144953Y-95238748D01*
X164077436Y-95564775D01*
X164076379Y-95571936D01*
X164046782Y-95903560D01*
X164046554Y-95910812D01*
X156110207Y-95910812D01*
X156130990Y-95764778D01*
X156131033Y-95760651D01*
X156131093Y-95759866D01*
X156156202Y-95693458D01*
X156167635Y-95680323D01*
X157035555Y-94812404D01*
X157097867Y-94778379D01*
X157124650Y-94775500D01*
X157732627Y-94775500D01*
X157743723Y-94776739D01*
X157743771Y-94776141D01*
X157752717Y-94776861D01*
X157761473Y-94778842D01*
X157811441Y-94775742D01*
X157819242Y-94775500D01*
X157834145Y-94775500D01*
X157843514Y-94774158D01*
X157853566Y-94773129D01*
X157897417Y-94770408D01*
X157905862Y-94767359D01*
X157912098Y-94766068D01*
X157919849Y-94764135D01*
X157925938Y-94762354D01*
X157934829Y-94761081D01*
X157946751Y-94755660D01*
X157974836Y-94742892D01*
X157984201Y-94739080D01*
X158017083Y-94727209D01*
X158017086Y-94727207D01*
X158025530Y-94724159D01*
X158032777Y-94718864D01*
X158038407Y-94715871D01*
X158045257Y-94711868D01*
X158050644Y-94708423D01*
X158058820Y-94704706D01*
X158092113Y-94676019D01*
X158100029Y-94669734D01*
X158106101Y-94665298D01*
X158106108Y-94665292D01*
X158110035Y-94662423D01*
X158120076Y-94652382D01*
X158126923Y-94646024D01*
X158155202Y-94621657D01*
X158162004Y-94615796D01*
X158166888Y-94608261D01*
X158172787Y-94601499D01*
X158172867Y-94601569D01*
X158181252Y-94591206D01*
X159030147Y-93742311D01*
X165106394Y-93742311D01*
X165112789Y-93753579D01*
X166987188Y-95627978D01*
X167001132Y-95635592D01*
X167002965Y-95635461D01*
X167009580Y-95631210D01*
X168885933Y-93754857D01*
X168893325Y-93741320D01*
X168886538Y-93731620D01*
X168789350Y-93648612D01*
X168783578Y-93644231D01*
X168507221Y-93458527D01*
X168501000Y-93454847D01*
X168205126Y-93302136D01*
X168198515Y-93299193D01*
X167887063Y-93181505D01*
X167880144Y-93179337D01*
X167557234Y-93098227D01*
X167550109Y-93096868D01*
X167220023Y-93053411D01*
X167212781Y-93052880D01*
X166879899Y-93047650D01*
X166872637Y-93047954D01*
X166541344Y-93081022D01*
X166534196Y-93082154D01*
X166208886Y-93153083D01*
X166201909Y-93155032D01*
X165886908Y-93262880D01*
X165880215Y-93265611D01*
X165579693Y-93408953D01*
X165573338Y-93412447D01*
X165291310Y-93589363D01*
X165285382Y-93593576D01*
X165114864Y-93730186D01*
X165106394Y-93742311D01*
X159030147Y-93742311D01*
X159288586Y-93483872D01*
X159297312Y-93476900D01*
X159296923Y-93476442D01*
X159303757Y-93470626D01*
X159311350Y-93465835D01*
X159344506Y-93428293D01*
X159349852Y-93422606D01*
X159360373Y-93412085D01*
X159366048Y-93404513D01*
X159372424Y-93396682D01*
X159395570Y-93370474D01*
X159401513Y-93363745D01*
X159405329Y-93355618D01*
X159408834Y-93350281D01*
X159412930Y-93343463D01*
X159415987Y-93337880D01*
X159421372Y-93330695D01*
X159433182Y-93299193D01*
X159436798Y-93289546D01*
X159440725Y-93280226D01*
X159442235Y-93277010D01*
X159459399Y-93240452D01*
X159460780Y-93231582D01*
X159462639Y-93225502D01*
X159464665Y-93217781D01*
X159466031Y-93211568D01*
X159469184Y-93203157D01*
X159471830Y-93167548D01*
X159472441Y-93159324D01*
X159473595Y-93149277D01*
X159474751Y-93141855D01*
X159474751Y-93141853D01*
X159475500Y-93137044D01*
X159475500Y-93122838D01*
X159475846Y-93113501D01*
X159478612Y-93076274D01*
X159479277Y-93067326D01*
X159477404Y-93058550D01*
X159476793Y-93049593D01*
X159476899Y-93049586D01*
X159475500Y-93036333D01*
X159475500Y-91699148D01*
X159495502Y-91631027D01*
X159512405Y-91610053D01*
X159760053Y-91362405D01*
X159822365Y-91328379D01*
X159849148Y-91325500D01*
X160245800Y-91325500D01*
X160256896Y-91326739D01*
X160256944Y-91326141D01*
X160265890Y-91326861D01*
X160274646Y-91328842D01*
X160324614Y-91325742D01*
X160332415Y-91325500D01*
X160347318Y-91325500D01*
X160356687Y-91324158D01*
X160366739Y-91323129D01*
X160410590Y-91320408D01*
X160419035Y-91317359D01*
X160425271Y-91316068D01*
X160433022Y-91314135D01*
X160439111Y-91312354D01*
X160448002Y-91311081D01*
X160459924Y-91305660D01*
X160488009Y-91292892D01*
X160497374Y-91289080D01*
X160530256Y-91277209D01*
X160530259Y-91277207D01*
X160538703Y-91274159D01*
X160545950Y-91268864D01*
X160551580Y-91265871D01*
X160558430Y-91261868D01*
X160563817Y-91258423D01*
X160571993Y-91254706D01*
X160593606Y-91236083D01*
X160605286Y-91226019D01*
X160613202Y-91219734D01*
X160619274Y-91215298D01*
X160619281Y-91215292D01*
X160623208Y-91212423D01*
X160633249Y-91202382D01*
X160640096Y-91196024D01*
X160668375Y-91171657D01*
X160675177Y-91165796D01*
X160680061Y-91158261D01*
X160685960Y-91151499D01*
X160686040Y-91151569D01*
X160694425Y-91141206D01*
X161688586Y-90147045D01*
X161697312Y-90140073D01*
X161696923Y-90139615D01*
X161703757Y-90133799D01*
X161711350Y-90129008D01*
X161719504Y-90119776D01*
X161744506Y-90091466D01*
X161749852Y-90085779D01*
X161760373Y-90075258D01*
X161766048Y-90067686D01*
X161772424Y-90059855D01*
X161795570Y-90033647D01*
X161801513Y-90026918D01*
X161805329Y-90018791D01*
X161808834Y-90013454D01*
X161812936Y-90006627D01*
X161815991Y-90001048D01*
X161821372Y-89993868D01*
X161827870Y-89976534D01*
X161864022Y-89924951D01*
X161913651Y-89882564D01*
X161913652Y-89882563D01*
X161919423Y-89877634D01*
X162018361Y-89739947D01*
X162022925Y-89728594D01*
X162078766Y-89589687D01*
X162078767Y-89589685D01*
X162081601Y-89582634D01*
X162091676Y-89511839D01*
X162104909Y-89418862D01*
X162104909Y-89418859D01*
X162105490Y-89414778D01*
X162105645Y-89400000D01*
X162103840Y-89385080D01*
X162101004Y-89361653D01*
X162085276Y-89231680D01*
X162025345Y-89073077D01*
X161975141Y-89000030D01*
X161933614Y-88939608D01*
X161933613Y-88939607D01*
X161929312Y-88933349D01*
X161902353Y-88909329D01*
X161808392Y-88825612D01*
X161808388Y-88825610D01*
X161802721Y-88820560D01*
X161788600Y-88813083D01*
X161659886Y-88744933D01*
X161652881Y-88741224D01*
X161488441Y-88699919D01*
X161480843Y-88699879D01*
X161480841Y-88699879D01*
X161403668Y-88699475D01*
X161318895Y-88699031D01*
X161311508Y-88700805D01*
X161311504Y-88700805D01*
X161168162Y-88735220D01*
X161154032Y-88738612D01*
X161147288Y-88742093D01*
X161147285Y-88742094D01*
X161010117Y-88812892D01*
X161003369Y-88816375D01*
X160997647Y-88821367D01*
X160997645Y-88821368D01*
X160930855Y-88879633D01*
X160875604Y-88927831D01*
X160860490Y-88949336D01*
X160801997Y-89032564D01*
X160778113Y-89066547D01*
X160716524Y-89224513D01*
X160715532Y-89232046D01*
X160715532Y-89232047D01*
X160696076Y-89379836D01*
X160694394Y-89392611D01*
X160712999Y-89561135D01*
X160735868Y-89623627D01*
X160743384Y-89644164D01*
X160748011Y-89715010D01*
X160714153Y-89776561D01*
X160153119Y-90337595D01*
X160090807Y-90371621D01*
X160064024Y-90374500D01*
X159667373Y-90374500D01*
X159656277Y-90373261D01*
X159656229Y-90373859D01*
X159647283Y-90373139D01*
X159638527Y-90371158D01*
X159588560Y-90374258D01*
X159580758Y-90374500D01*
X159565855Y-90374500D01*
X159556486Y-90375842D01*
X159546434Y-90376871D01*
X159502583Y-90379592D01*
X159494138Y-90382641D01*
X159487902Y-90383932D01*
X159480151Y-90385865D01*
X159474062Y-90387646D01*
X159465171Y-90388919D01*
X159456995Y-90392636D01*
X159456996Y-90392636D01*
X159425164Y-90407108D01*
X159415799Y-90410920D01*
X159382917Y-90422791D01*
X159382914Y-90422793D01*
X159374470Y-90425841D01*
X159367223Y-90431136D01*
X159361593Y-90434129D01*
X159354743Y-90438132D01*
X159349356Y-90441577D01*
X159341180Y-90445294D01*
X159334380Y-90451154D01*
X159334379Y-90451154D01*
X159307887Y-90473981D01*
X159299971Y-90480266D01*
X159293899Y-90484702D01*
X159293892Y-90484708D01*
X159289965Y-90487577D01*
X159286522Y-90491020D01*
X159282830Y-90494182D01*
X159281508Y-90492638D01*
X159226677Y-90522579D01*
X159155862Y-90517514D01*
X159099026Y-90474967D01*
X159074215Y-90408447D01*
X159078188Y-90366846D01*
X159078768Y-90364681D01*
X159081601Y-90357634D01*
X159094149Y-90269468D01*
X159104909Y-90193862D01*
X159104909Y-90193859D01*
X159105490Y-90189778D01*
X159105645Y-90175000D01*
X159103840Y-90160080D01*
X159093142Y-90071680D01*
X159085276Y-90006680D01*
X159038377Y-89882564D01*
X159028029Y-89855180D01*
X159025345Y-89848077D01*
X158982176Y-89785266D01*
X158933614Y-89714608D01*
X158933613Y-89714607D01*
X158929312Y-89708349D01*
X158917514Y-89697837D01*
X158808392Y-89600612D01*
X158808388Y-89600610D01*
X158802721Y-89595560D01*
X158779659Y-89583349D01*
X158723449Y-89553588D01*
X158652881Y-89516224D01*
X158488441Y-89474919D01*
X158480843Y-89474879D01*
X158480841Y-89474879D01*
X158403668Y-89474475D01*
X158318895Y-89474031D01*
X158311508Y-89475805D01*
X158311504Y-89475805D01*
X158168162Y-89510220D01*
X158154032Y-89513612D01*
X158147288Y-89517093D01*
X158147285Y-89517094D01*
X158032458Y-89576361D01*
X158003369Y-89591375D01*
X157997647Y-89596367D01*
X157997645Y-89596368D01*
X157940484Y-89646233D01*
X157875604Y-89702831D01*
X157854471Y-89732900D01*
X157788668Y-89826529D01*
X157778113Y-89841547D01*
X157716524Y-89999513D01*
X157715532Y-90007046D01*
X157715532Y-90007047D01*
X157695927Y-90155968D01*
X157694394Y-90167611D01*
X157712999Y-90336135D01*
X157742296Y-90416193D01*
X157764653Y-90477284D01*
X157771266Y-90495356D01*
X157775501Y-90501659D01*
X157775505Y-90501666D01*
X157803081Y-90542703D01*
X157824500Y-90612979D01*
X157824500Y-92059860D01*
X157804498Y-92127981D01*
X157750842Y-92174474D01*
X157680568Y-92184578D01*
X157614683Y-92153937D01*
X157577221Y-92120560D01*
X157427381Y-92041224D01*
X157262941Y-91999919D01*
X157255343Y-91999879D01*
X157255341Y-91999879D01*
X157178168Y-91999475D01*
X157093395Y-91999031D01*
X157086008Y-92000805D01*
X157086004Y-92000805D01*
X156942662Y-92035220D01*
X156928532Y-92038612D01*
X156921788Y-92042093D01*
X156921785Y-92042094D01*
X156821551Y-92093829D01*
X156777869Y-92116375D01*
X156772147Y-92121367D01*
X156772145Y-92121368D01*
X156744285Y-92145672D01*
X156690518Y-92192576D01*
X156689517Y-92193449D01*
X156625035Y-92223157D01*
X156606688Y-92224500D01*
X156567369Y-92224500D01*
X156499248Y-92204498D01*
X156483550Y-92192576D01*
X156408392Y-92125613D01*
X156402721Y-92120560D01*
X156252881Y-92041224D01*
X156088441Y-91999919D01*
X156080843Y-91999879D01*
X156080841Y-91999879D01*
X156003668Y-91999475D01*
X155918895Y-91999031D01*
X155911508Y-92000805D01*
X155911504Y-92000805D01*
X155768162Y-92035220D01*
X155754032Y-92038612D01*
X155747288Y-92042093D01*
X155747285Y-92042094D01*
X155647051Y-92093829D01*
X155603369Y-92116375D01*
X155597647Y-92121367D01*
X155597645Y-92121368D01*
X155536769Y-92174474D01*
X155475604Y-92227831D01*
X155378113Y-92366547D01*
X155316524Y-92524513D01*
X155294394Y-92692611D01*
X155295228Y-92700161D01*
X155296256Y-92709477D01*
X155283850Y-92779381D01*
X155235620Y-92831481D01*
X155170358Y-92849301D01*
X155118895Y-92849031D01*
X155111508Y-92850805D01*
X155111504Y-92850805D01*
X154968162Y-92885220D01*
X154954032Y-92888612D01*
X154947288Y-92892093D01*
X154947285Y-92892094D01*
X154810117Y-92962892D01*
X154803369Y-92966375D01*
X154675604Y-93077831D01*
X154634475Y-93136351D01*
X154587524Y-93203157D01*
X154578113Y-93216547D01*
X154516524Y-93374513D01*
X154515532Y-93382046D01*
X154515532Y-93382047D01*
X154498801Y-93509139D01*
X154494394Y-93542611D01*
X138132351Y-93542611D01*
X138007221Y-93458527D01*
X138001000Y-93454847D01*
X137705126Y-93302136D01*
X137698515Y-93299193D01*
X137387063Y-93181505D01*
X137380144Y-93179337D01*
X137057234Y-93098227D01*
X137050109Y-93096868D01*
X136720023Y-93053411D01*
X136712781Y-93052880D01*
X136379899Y-93047650D01*
X136372637Y-93047954D01*
X136041344Y-93081022D01*
X136034196Y-93082154D01*
X135708886Y-93153083D01*
X135701909Y-93155032D01*
X135386908Y-93262880D01*
X135380215Y-93265611D01*
X135079693Y-93408953D01*
X135073338Y-93412447D01*
X134791310Y-93589363D01*
X134785382Y-93593576D01*
X134614864Y-93730186D01*
X134606394Y-93742311D01*
X128875024Y-93742311D01*
X128871151Y-93719671D01*
X128898915Y-93654328D01*
X128919602Y-93634310D01*
X128921378Y-93632948D01*
X128932952Y-93621374D01*
X129019072Y-93509139D01*
X129027259Y-93494958D01*
X129081396Y-93364261D01*
X129085634Y-93348442D01*
X129099462Y-93243410D01*
X129100000Y-93235201D01*
X129100000Y-93172115D01*
X129095525Y-93156876D01*
X129094135Y-93155671D01*
X129086452Y-93154000D01*
X126518116Y-93154000D01*
X126502877Y-93158475D01*
X126501672Y-93159865D01*
X126500001Y-93167548D01*
X126500001Y-93235199D01*
X126500539Y-93243411D01*
X126514366Y-93348444D01*
X126518604Y-93364259D01*
X126572741Y-93494959D01*
X126580930Y-93509142D01*
X126667046Y-93621372D01*
X126678629Y-93632955D01*
X126680403Y-93634316D01*
X126681520Y-93635846D01*
X126684468Y-93638794D01*
X126684008Y-93639254D01*
X126722269Y-93691655D01*
X126726490Y-93762526D01*
X126691724Y-93824428D01*
X126676922Y-93835892D01*
X126677069Y-93836080D01*
X126671093Y-93840766D01*
X126664592Y-93844703D01*
X126544703Y-93964592D01*
X126456873Y-94109617D01*
X126454602Y-94116864D01*
X126454601Y-94116866D01*
X126446988Y-94141159D01*
X126406171Y-94271406D01*
X126399500Y-94344007D01*
X126399501Y-95055992D01*
X126399764Y-95058850D01*
X126399764Y-95058859D01*
X126402335Y-95086839D01*
X126406171Y-95128594D01*
X126408170Y-95134972D01*
X126408170Y-95134973D01*
X126453676Y-95280180D01*
X126456873Y-95290383D01*
X126544703Y-95435408D01*
X126620200Y-95510905D01*
X126654226Y-95573217D01*
X126649161Y-95644032D01*
X126620200Y-95689095D01*
X126544703Y-95764592D01*
X126456873Y-95909617D01*
X126454602Y-95916864D01*
X126454601Y-95916866D01*
X126447368Y-95939947D01*
X126406171Y-96071406D01*
X126399500Y-96144007D01*
X125900500Y-96144007D01*
X125900500Y-90744007D01*
X126399500Y-90744007D01*
X126399501Y-91455992D01*
X126399764Y-91458850D01*
X126399764Y-91458859D01*
X126401166Y-91474116D01*
X126406171Y-91528594D01*
X126408170Y-91534972D01*
X126408170Y-91534973D01*
X126451691Y-91673846D01*
X126456873Y-91690383D01*
X126544703Y-91835408D01*
X126664592Y-91955297D01*
X126671093Y-91959234D01*
X126677069Y-91963920D01*
X126675851Y-91965473D01*
X126716878Y-92010349D01*
X126728849Y-92080329D01*
X126701085Y-92145672D01*
X126680398Y-92165690D01*
X126678622Y-92167052D01*
X126667048Y-92178626D01*
X126580928Y-92290861D01*
X126572741Y-92305042D01*
X126518604Y-92435739D01*
X126514366Y-92451558D01*
X126500538Y-92556590D01*
X126500000Y-92564799D01*
X126500000Y-92627885D01*
X126504475Y-92643124D01*
X126505865Y-92644329D01*
X126513548Y-92646000D01*
X129081884Y-92646000D01*
X129097123Y-92641525D01*
X129098328Y-92640135D01*
X129099999Y-92632452D01*
X129099999Y-92564801D01*
X129099461Y-92556589D01*
X129085634Y-92451556D01*
X129081396Y-92435741D01*
X129027259Y-92305041D01*
X129019070Y-92290858D01*
X128932954Y-92178628D01*
X128921371Y-92167045D01*
X128919597Y-92165684D01*
X128918480Y-92164154D01*
X128915532Y-92161206D01*
X128915992Y-92160746D01*
X128877731Y-92108345D01*
X128873510Y-92037474D01*
X128908276Y-91975572D01*
X128923078Y-91964108D01*
X128922931Y-91963920D01*
X128928907Y-91959234D01*
X128935408Y-91955297D01*
X129055297Y-91835408D01*
X129143127Y-91690383D01*
X129148310Y-91673846D01*
X129170658Y-91602533D01*
X129193829Y-91528594D01*
X129200500Y-91455993D01*
X129200499Y-90744008D01*
X129200234Y-90741116D01*
X129194440Y-90678060D01*
X129193829Y-90671406D01*
X129186844Y-90649116D01*
X129145399Y-90516866D01*
X129145398Y-90516864D01*
X129143127Y-90509617D01*
X129055297Y-90364592D01*
X128979800Y-90289095D01*
X128945774Y-90226783D01*
X128950839Y-90155968D01*
X128979800Y-90110905D01*
X129055297Y-90035408D01*
X129111497Y-89942611D01*
X141994394Y-89942611D01*
X142012999Y-90111135D01*
X142036429Y-90175161D01*
X142067372Y-90259714D01*
X142071266Y-90270356D01*
X142165830Y-90411083D01*
X142171442Y-90416190D01*
X142171445Y-90416193D01*
X142285612Y-90520077D01*
X142285616Y-90520080D01*
X142291233Y-90525191D01*
X142297906Y-90528814D01*
X142297910Y-90528817D01*
X142433558Y-90602467D01*
X142433560Y-90602468D01*
X142440235Y-90606092D01*
X142447584Y-90608020D01*
X142596883Y-90647188D01*
X142596885Y-90647188D01*
X142604233Y-90649116D01*
X142690609Y-90650473D01*
X142766161Y-90651660D01*
X142766164Y-90651660D01*
X142773760Y-90651779D01*
X142781165Y-90650083D01*
X142781166Y-90650083D01*
X142841586Y-90636245D01*
X142939029Y-90613928D01*
X143090498Y-90537747D01*
X143186575Y-90455689D01*
X143251365Y-90426658D01*
X143268406Y-90425500D01*
X147925006Y-90425500D01*
X147993127Y-90445502D01*
X148039620Y-90499158D01*
X148049724Y-90569432D01*
X148045641Y-90584941D01*
X148046173Y-90585077D01*
X148044284Y-90592434D01*
X148041524Y-90599513D01*
X148040532Y-90607046D01*
X148040532Y-90607047D01*
X148022122Y-90746891D01*
X148019394Y-90767611D01*
X148037999Y-90936135D01*
X148096266Y-91095356D01*
X148100502Y-91101659D01*
X148100502Y-91101660D01*
X148113574Y-91121113D01*
X148190830Y-91236083D01*
X148196442Y-91241190D01*
X148196445Y-91241193D01*
X148310612Y-91345077D01*
X148310616Y-91345080D01*
X148316233Y-91350191D01*
X148322906Y-91353814D01*
X148322910Y-91353817D01*
X148458558Y-91427467D01*
X148458560Y-91427468D01*
X148465235Y-91431092D01*
X148472584Y-91433020D01*
X148621883Y-91472188D01*
X148621885Y-91472188D01*
X148629233Y-91474116D01*
X148688428Y-91475046D01*
X148723051Y-91475590D01*
X148790849Y-91496659D01*
X148836494Y-91551039D01*
X148839398Y-91558273D01*
X148862362Y-91621024D01*
X148871266Y-91645356D01*
X148965830Y-91786083D01*
X148971442Y-91791190D01*
X148971445Y-91791193D01*
X149085612Y-91895077D01*
X149085616Y-91895080D01*
X149091233Y-91900191D01*
X149097906Y-91903814D01*
X149097910Y-91903817D01*
X149233558Y-91977467D01*
X149233560Y-91977468D01*
X149240235Y-91981092D01*
X149247584Y-91983020D01*
X149396883Y-92022188D01*
X149396885Y-92022188D01*
X149404233Y-92024116D01*
X149490609Y-92025473D01*
X149566161Y-92026660D01*
X149566164Y-92026660D01*
X149573760Y-92026779D01*
X149581165Y-92025083D01*
X149581166Y-92025083D01*
X149645498Y-92010349D01*
X149739029Y-91988928D01*
X149890498Y-91912747D01*
X150019423Y-91802634D01*
X150023854Y-91796467D01*
X150028684Y-91791215D01*
X150089516Y-91754609D01*
X150121433Y-91750500D01*
X153182627Y-91750500D01*
X153193723Y-91751739D01*
X153193771Y-91751141D01*
X153202717Y-91751861D01*
X153211473Y-91753842D01*
X153261441Y-91750742D01*
X153269242Y-91750500D01*
X153284145Y-91750500D01*
X153293514Y-91749158D01*
X153303566Y-91748129D01*
X153347417Y-91745408D01*
X153355862Y-91742359D01*
X153362098Y-91741068D01*
X153369849Y-91739135D01*
X153375938Y-91737354D01*
X153384829Y-91736081D01*
X153396751Y-91730660D01*
X153424836Y-91717892D01*
X153434201Y-91714080D01*
X153467083Y-91702209D01*
X153467086Y-91702207D01*
X153475530Y-91699159D01*
X153482777Y-91693864D01*
X153488407Y-91690871D01*
X153495257Y-91686868D01*
X153500644Y-91683423D01*
X153508820Y-91679706D01*
X153542113Y-91651019D01*
X153550029Y-91644734D01*
X153556101Y-91640298D01*
X153556108Y-91640292D01*
X153560035Y-91637423D01*
X153570076Y-91627382D01*
X153576923Y-91621024D01*
X153605206Y-91596654D01*
X153605207Y-91596652D01*
X153612004Y-91590796D01*
X153616884Y-91583267D01*
X153622789Y-91576498D01*
X153622869Y-91576568D01*
X153631252Y-91566206D01*
X153684546Y-91512912D01*
X153746858Y-91478886D01*
X153775619Y-91476023D01*
X153816161Y-91476660D01*
X153816164Y-91476660D01*
X153823760Y-91476779D01*
X153831165Y-91475083D01*
X153831166Y-91475083D01*
X153927110Y-91453109D01*
X153989029Y-91438928D01*
X154140498Y-91362747D01*
X154224740Y-91290797D01*
X154263651Y-91257564D01*
X154263652Y-91257563D01*
X154269423Y-91252634D01*
X154368361Y-91114947D01*
X154376237Y-91095356D01*
X154428766Y-90964687D01*
X154428767Y-90964685D01*
X154431601Y-90957634D01*
X154455490Y-90789778D01*
X154455645Y-90775000D01*
X154454907Y-90768897D01*
X154443914Y-90678060D01*
X154435276Y-90606680D01*
X154375345Y-90448077D01*
X154349808Y-90410920D01*
X154283614Y-90314608D01*
X154283613Y-90314607D01*
X154279312Y-90308349D01*
X154257702Y-90289095D01*
X154158392Y-90200612D01*
X154158388Y-90200610D01*
X154152721Y-90195560D01*
X154121700Y-90179135D01*
X154085080Y-90159746D01*
X154002881Y-90116224D01*
X153995519Y-90114375D01*
X153995517Y-90114374D01*
X153943283Y-90101254D01*
X153882087Y-90065260D01*
X153850066Y-90001894D01*
X153848891Y-89994187D01*
X153842558Y-89941857D01*
X153835276Y-89881680D01*
X153775345Y-89723077D01*
X153729239Y-89655993D01*
X153683614Y-89589608D01*
X153683613Y-89589607D01*
X153679312Y-89583349D01*
X153662380Y-89568263D01*
X153558392Y-89475612D01*
X153558388Y-89475610D01*
X153552721Y-89470560D01*
X153528339Y-89457650D01*
X153439576Y-89410653D01*
X153402881Y-89391224D01*
X153238441Y-89349919D01*
X153230843Y-89349879D01*
X153230841Y-89349879D01*
X153153668Y-89349475D01*
X153068895Y-89349031D01*
X153061508Y-89350805D01*
X153061504Y-89350805D01*
X152979222Y-89370560D01*
X152904032Y-89388612D01*
X152897826Y-89391815D01*
X152827266Y-89396792D01*
X152764987Y-89362707D01*
X152736303Y-89318236D01*
X152703029Y-89230180D01*
X152700345Y-89223077D01*
X152645730Y-89143612D01*
X152608614Y-89089608D01*
X152608613Y-89089607D01*
X152604312Y-89083349D01*
X152595156Y-89075191D01*
X152483392Y-88975612D01*
X152483388Y-88975610D01*
X152477721Y-88970560D01*
X152469474Y-88966193D01*
X152362075Y-88909329D01*
X152327881Y-88891224D01*
X152163441Y-88849919D01*
X152155843Y-88849879D01*
X152155841Y-88849879D01*
X152078668Y-88849475D01*
X151993895Y-88849031D01*
X151986508Y-88850805D01*
X151986504Y-88850805D01*
X151866431Y-88879633D01*
X151829032Y-88888612D01*
X151822288Y-88892093D01*
X151822285Y-88892094D01*
X151716091Y-88946905D01*
X151678369Y-88966375D01*
X151672647Y-88971367D01*
X151672645Y-88971368D01*
X151659811Y-88982564D01*
X151550604Y-89077831D01*
X151543635Y-89087747D01*
X151463576Y-89201660D01*
X151453113Y-89216547D01*
X151430959Y-89273369D01*
X151394697Y-89366375D01*
X151391524Y-89374513D01*
X151390745Y-89380431D01*
X151354784Y-89440842D01*
X151291251Y-89472530D01*
X151269058Y-89474500D01*
X143267369Y-89474500D01*
X143199248Y-89454498D01*
X143183550Y-89442576D01*
X143126557Y-89391797D01*
X143102721Y-89370560D01*
X143087890Y-89362707D01*
X142983402Y-89307384D01*
X142952881Y-89291224D01*
X142788441Y-89249919D01*
X142780843Y-89249879D01*
X142780841Y-89249879D01*
X142703668Y-89249475D01*
X142618895Y-89249031D01*
X142611508Y-89250805D01*
X142611504Y-89250805D01*
X142468162Y-89285220D01*
X142454032Y-89288612D01*
X142447288Y-89292093D01*
X142447285Y-89292094D01*
X142310117Y-89362892D01*
X142303369Y-89366375D01*
X142297647Y-89371367D01*
X142297645Y-89371368D01*
X142277878Y-89388612D01*
X142175604Y-89477831D01*
X142151703Y-89511839D01*
X142096108Y-89590943D01*
X142078113Y-89616547D01*
X142016524Y-89774513D01*
X142015532Y-89782046D01*
X142015532Y-89782047D01*
X141996256Y-89928469D01*
X141994394Y-89942611D01*
X129111497Y-89942611D01*
X129143127Y-89890383D01*
X129145578Y-89882564D01*
X129191828Y-89734978D01*
X129193829Y-89728594D01*
X129200500Y-89655993D01*
X129200499Y-88944008D01*
X129200234Y-88941116D01*
X129195937Y-88894349D01*
X129193829Y-88871406D01*
X129170771Y-88797827D01*
X129145399Y-88716866D01*
X129145398Y-88716864D01*
X129143127Y-88709617D01*
X129055297Y-88564592D01*
X128935408Y-88444703D01*
X128790383Y-88356873D01*
X128783136Y-88354602D01*
X128783134Y-88354601D01*
X128687123Y-88324513D01*
X128628594Y-88306171D01*
X128555993Y-88299500D01*
X128553095Y-88299500D01*
X127798039Y-88299501D01*
X127044008Y-88299501D01*
X127041150Y-88299764D01*
X127041141Y-88299764D01*
X127005757Y-88303015D01*
X126971406Y-88306171D01*
X126965028Y-88308170D01*
X126965027Y-88308170D01*
X126816866Y-88354601D01*
X126816864Y-88354602D01*
X126809617Y-88356873D01*
X126664592Y-88444703D01*
X126544703Y-88564592D01*
X126456873Y-88709617D01*
X126454602Y-88716864D01*
X126454601Y-88716866D01*
X126434156Y-88782106D01*
X126406171Y-88871406D01*
X126399500Y-88944007D01*
X126399501Y-89655992D01*
X126399764Y-89658850D01*
X126399764Y-89658859D01*
X126403015Y-89694243D01*
X126406171Y-89728594D01*
X126408170Y-89734972D01*
X126408170Y-89734973D01*
X126454423Y-89882564D01*
X126456873Y-89890383D01*
X126544703Y-90035408D01*
X126620200Y-90110905D01*
X126654226Y-90173217D01*
X126649161Y-90244032D01*
X126620200Y-90289095D01*
X126544703Y-90364592D01*
X126456873Y-90509617D01*
X126454602Y-90516864D01*
X126454601Y-90516866D01*
X126446988Y-90541159D01*
X126406171Y-90671406D01*
X126399500Y-90744007D01*
X125900500Y-90744007D01*
X125900500Y-85994007D01*
X126399500Y-85994007D01*
X126399501Y-86705992D01*
X126399764Y-86708850D01*
X126399764Y-86708859D01*
X126400662Y-86718632D01*
X126406171Y-86778594D01*
X126408170Y-86784972D01*
X126408170Y-86784973D01*
X126454445Y-86932634D01*
X126456873Y-86940383D01*
X126544703Y-87085408D01*
X126664592Y-87205297D01*
X126809617Y-87293127D01*
X126816864Y-87295398D01*
X126816866Y-87295399D01*
X126882106Y-87315844D01*
X126971406Y-87343829D01*
X127044007Y-87350500D01*
X127046905Y-87350500D01*
X127801961Y-87350499D01*
X128555992Y-87350499D01*
X128558850Y-87350236D01*
X128558859Y-87350236D01*
X128594243Y-87346985D01*
X128628594Y-87343829D01*
X128634979Y-87341828D01*
X128783134Y-87295399D01*
X128783136Y-87295398D01*
X128790383Y-87293127D01*
X128935408Y-87205297D01*
X129055297Y-87085408D01*
X129143127Y-86940383D01*
X129145556Y-86932634D01*
X129170141Y-86854181D01*
X129193829Y-86778594D01*
X129200500Y-86705993D01*
X129200499Y-85994008D01*
X129200234Y-85991116D01*
X129194440Y-85928060D01*
X129193829Y-85921406D01*
X129184792Y-85892569D01*
X129145399Y-85766866D01*
X129145398Y-85766864D01*
X129143127Y-85759617D01*
X129055297Y-85614592D01*
X128979800Y-85539095D01*
X128945774Y-85476783D01*
X128950839Y-85405968D01*
X128979800Y-85360905D01*
X129055297Y-85285408D01*
X129143127Y-85140383D01*
X129160128Y-85086135D01*
X129169684Y-85055641D01*
X129193829Y-84978594D01*
X129200500Y-84905993D01*
X129200499Y-84194008D01*
X129200234Y-84191116D01*
X129196664Y-84152264D01*
X129193829Y-84121406D01*
X129181657Y-84082565D01*
X129145399Y-83966866D01*
X129145398Y-83966864D01*
X129143127Y-83959617D01*
X129055297Y-83814592D01*
X128979800Y-83739095D01*
X128945774Y-83676783D01*
X128950839Y-83605968D01*
X128959423Y-83592611D01*
X130600627Y-83592611D01*
X130619232Y-83761135D01*
X130677499Y-83920356D01*
X130681735Y-83926659D01*
X130681735Y-83926660D01*
X130767829Y-84054783D01*
X130767832Y-84054786D01*
X130772063Y-84061083D01*
X130777677Y-84066191D01*
X130777681Y-84066196D01*
X130783300Y-84071309D01*
X130820222Y-84131949D01*
X130824500Y-84164502D01*
X130824500Y-87989553D01*
X130801587Y-88062004D01*
X130738635Y-88151576D01*
X130728113Y-88166547D01*
X130666524Y-88324513D01*
X130665532Y-88332046D01*
X130665532Y-88332047D01*
X130647901Y-88465974D01*
X130644394Y-88492611D01*
X130662999Y-88661135D01*
X130683908Y-88718271D01*
X130718535Y-88812892D01*
X130721266Y-88820356D01*
X130725502Y-88826659D01*
X130725502Y-88826660D01*
X130738574Y-88846113D01*
X130815830Y-88961083D01*
X130821442Y-88966190D01*
X130821445Y-88966193D01*
X130935612Y-89070077D01*
X130935616Y-89070080D01*
X130941233Y-89075191D01*
X130947906Y-89078814D01*
X130947910Y-89078817D01*
X131083558Y-89152467D01*
X131083560Y-89152468D01*
X131090235Y-89156092D01*
X131097584Y-89158020D01*
X131246883Y-89197188D01*
X131246885Y-89197188D01*
X131254233Y-89199116D01*
X131340609Y-89200473D01*
X131416161Y-89201660D01*
X131416164Y-89201660D01*
X131423760Y-89201779D01*
X131431165Y-89200083D01*
X131431166Y-89200083D01*
X131491586Y-89186245D01*
X131589029Y-89163928D01*
X131740498Y-89087747D01*
X131869423Y-88977634D01*
X131968361Y-88839947D01*
X131977837Y-88816375D01*
X132028766Y-88689687D01*
X132028767Y-88689685D01*
X132031601Y-88682634D01*
X132050426Y-88550362D01*
X132054909Y-88518862D01*
X132054909Y-88518859D01*
X132055490Y-88514778D01*
X132055645Y-88500000D01*
X132053840Y-88485080D01*
X132041371Y-88382047D01*
X132035276Y-88331680D01*
X131975345Y-88173077D01*
X131925475Y-88100516D01*
X131883614Y-88039608D01*
X131883613Y-88039607D01*
X131879312Y-88033349D01*
X131817679Y-87978436D01*
X131780125Y-87918186D01*
X131775500Y-87884361D01*
X131775500Y-86742611D01*
X136594394Y-86742611D01*
X136612999Y-86911135D01*
X136626080Y-86946880D01*
X136658632Y-87035831D01*
X136671266Y-87070356D01*
X136675502Y-87076659D01*
X136675502Y-87076660D01*
X136684993Y-87090784D01*
X136765830Y-87211083D01*
X136771443Y-87216190D01*
X136771446Y-87216194D01*
X136783301Y-87226981D01*
X136820223Y-87287622D01*
X136824500Y-87320173D01*
X136824500Y-88707127D01*
X136823261Y-88718223D01*
X136823859Y-88718271D01*
X136823139Y-88727217D01*
X136821158Y-88735973D01*
X136821714Y-88744933D01*
X136824258Y-88785940D01*
X136824500Y-88793742D01*
X136824500Y-88808645D01*
X136825841Y-88818008D01*
X136826871Y-88828066D01*
X136829592Y-88871917D01*
X136832641Y-88880362D01*
X136833932Y-88886598D01*
X136835865Y-88894349D01*
X136837646Y-88900438D01*
X136838919Y-88909329D01*
X136842636Y-88917504D01*
X136857108Y-88949336D01*
X136860920Y-88958701D01*
X136872791Y-88991583D01*
X136872793Y-88991586D01*
X136875841Y-89000030D01*
X136881136Y-89007277D01*
X136884129Y-89012907D01*
X136888132Y-89019757D01*
X136891576Y-89025142D01*
X136895294Y-89033320D01*
X136915755Y-89057066D01*
X136945541Y-89125487D01*
X136947542Y-89143612D01*
X136963249Y-89285885D01*
X136969746Y-89303639D01*
X137007868Y-89407810D01*
X137021516Y-89445106D01*
X137025752Y-89451409D01*
X137025752Y-89451410D01*
X137036233Y-89467007D01*
X137116080Y-89585833D01*
X137121692Y-89590940D01*
X137121695Y-89590943D01*
X137235862Y-89694827D01*
X137235866Y-89694830D01*
X137241483Y-89699941D01*
X137248156Y-89703564D01*
X137248160Y-89703567D01*
X137383808Y-89777217D01*
X137383810Y-89777218D01*
X137390485Y-89780842D01*
X137397834Y-89782770D01*
X137547133Y-89821938D01*
X137547135Y-89821938D01*
X137554483Y-89823866D01*
X137640859Y-89825223D01*
X137716411Y-89826410D01*
X137716414Y-89826410D01*
X137724010Y-89826529D01*
X137731415Y-89824833D01*
X137731416Y-89824833D01*
X137791836Y-89810995D01*
X137889279Y-89788678D01*
X138040748Y-89712497D01*
X138144801Y-89623627D01*
X138163901Y-89607314D01*
X138163902Y-89607313D01*
X138169673Y-89602384D01*
X138268611Y-89464697D01*
X138278201Y-89440842D01*
X138329016Y-89314437D01*
X138329017Y-89314435D01*
X138331851Y-89307384D01*
X138343771Y-89223627D01*
X138355159Y-89143612D01*
X138355159Y-89143609D01*
X138355740Y-89139528D01*
X138355895Y-89124750D01*
X138335526Y-88956430D01*
X138275595Y-88797827D01*
X138235422Y-88739375D01*
X138183864Y-88664358D01*
X138183863Y-88664357D01*
X138179562Y-88658099D01*
X138173891Y-88653046D01*
X138058642Y-88550362D01*
X138058638Y-88550360D01*
X138052971Y-88545310D01*
X137903131Y-88465974D01*
X137870804Y-88457854D01*
X137809609Y-88421859D01*
X137777588Y-88358494D01*
X137775500Y-88335650D01*
X137775500Y-87323177D01*
X137795502Y-87255056D01*
X137808752Y-87237890D01*
X137813646Y-87232568D01*
X137819423Y-87227634D01*
X137827644Y-87216194D01*
X137913930Y-87096113D01*
X137918361Y-87089947D01*
X137926237Y-87070356D01*
X137978766Y-86939687D01*
X137978767Y-86939685D01*
X137981601Y-86932634D01*
X137992766Y-86854181D01*
X138004909Y-86768862D01*
X138004909Y-86768859D01*
X138005490Y-86764778D01*
X138005645Y-86750000D01*
X138003840Y-86735080D01*
X137998512Y-86691059D01*
X137985276Y-86581680D01*
X137925345Y-86423077D01*
X137829312Y-86283349D01*
X137823119Y-86277831D01*
X137708392Y-86175612D01*
X137708388Y-86175610D01*
X137702721Y-86170560D01*
X137649935Y-86142611D01*
X137617020Y-86125184D01*
X137552881Y-86091224D01*
X137388441Y-86049919D01*
X137380843Y-86049879D01*
X137380841Y-86049879D01*
X137303668Y-86049475D01*
X137218895Y-86049031D01*
X137211508Y-86050805D01*
X137211504Y-86050805D01*
X137094222Y-86078963D01*
X137054032Y-86088612D01*
X137047288Y-86092093D01*
X137047285Y-86092094D01*
X136993918Y-86119639D01*
X136903369Y-86166375D01*
X136897647Y-86171367D01*
X136897645Y-86171368D01*
X136826069Y-86233808D01*
X136775604Y-86277831D01*
X136771237Y-86284045D01*
X136694164Y-86393709D01*
X136678113Y-86416547D01*
X136616524Y-86574513D01*
X136615532Y-86582046D01*
X136615532Y-86582047D01*
X136596210Y-86728819D01*
X136594394Y-86742611D01*
X131775500Y-86742611D01*
X131775500Y-84178557D01*
X131795502Y-84110436D01*
X131814856Y-84088262D01*
X131814740Y-84088156D01*
X131818839Y-84083699D01*
X131819669Y-84082747D01*
X131825656Y-84077634D01*
X131924594Y-83939947D01*
X131930773Y-83924577D01*
X131984999Y-83789687D01*
X131985000Y-83789685D01*
X131987834Y-83782634D01*
X132004428Y-83666039D01*
X132006711Y-83650000D01*
X134150000Y-83650000D01*
X139050000Y-83650000D01*
X139050000Y-77550000D01*
X134150000Y-77550000D01*
X134150000Y-83650000D01*
X132006711Y-83650000D01*
X132011142Y-83618862D01*
X132011142Y-83618859D01*
X132011723Y-83614778D01*
X132011795Y-83607932D01*
X132011835Y-83604135D01*
X132011835Y-83604129D01*
X132011878Y-83600000D01*
X132011232Y-83594657D01*
X132005309Y-83545714D01*
X131991509Y-83431680D01*
X131931578Y-83273077D01*
X131895664Y-83220822D01*
X131839847Y-83139608D01*
X131839846Y-83139607D01*
X131835545Y-83133349D01*
X131816482Y-83116364D01*
X131714625Y-83025612D01*
X131714621Y-83025610D01*
X131708954Y-83020560D01*
X131701638Y-83016686D01*
X131627093Y-82977217D01*
X131559114Y-82941224D01*
X131394674Y-82899919D01*
X131387076Y-82899879D01*
X131387074Y-82899879D01*
X131309901Y-82899475D01*
X131225128Y-82899031D01*
X131217741Y-82900805D01*
X131217737Y-82900805D01*
X131084536Y-82932785D01*
X131060265Y-82938612D01*
X131053521Y-82942093D01*
X131053518Y-82942094D01*
X130916350Y-83012892D01*
X130909602Y-83016375D01*
X130903880Y-83021367D01*
X130903878Y-83021368D01*
X130890722Y-83032845D01*
X130781837Y-83127831D01*
X130762759Y-83154977D01*
X130712785Y-83226083D01*
X130684346Y-83266547D01*
X130622757Y-83424513D01*
X130621765Y-83432046D01*
X130621765Y-83432047D01*
X130602045Y-83581843D01*
X130600627Y-83592611D01*
X128959423Y-83592611D01*
X128979800Y-83560905D01*
X129055297Y-83485408D01*
X129143127Y-83340383D01*
X129156379Y-83298098D01*
X129182665Y-83214217D01*
X129193829Y-83178594D01*
X129200500Y-83105993D01*
X129200499Y-82394008D01*
X129200234Y-82391116D01*
X129196704Y-82352699D01*
X129193829Y-82321406D01*
X129152544Y-82189667D01*
X129145399Y-82166866D01*
X129145398Y-82166864D01*
X129143127Y-82159617D01*
X129055297Y-82014592D01*
X128979800Y-81939095D01*
X128945774Y-81876783D01*
X128950839Y-81805968D01*
X128979800Y-81760905D01*
X129055297Y-81685408D01*
X129143127Y-81540383D01*
X129153871Y-81506101D01*
X129174216Y-81441178D01*
X129193829Y-81378594D01*
X129200500Y-81305993D01*
X129200499Y-80594008D01*
X129200234Y-80591116D01*
X129194440Y-80528060D01*
X129193829Y-80521406D01*
X129177088Y-80467985D01*
X129145399Y-80366866D01*
X129145398Y-80366864D01*
X129143127Y-80359617D01*
X129055297Y-80214592D01*
X128979800Y-80139095D01*
X128945774Y-80076783D01*
X128950839Y-80005968D01*
X128979800Y-79960905D01*
X129055297Y-79885408D01*
X129143127Y-79740383D01*
X129155605Y-79700568D01*
X129173540Y-79643335D01*
X129193829Y-79578594D01*
X129200500Y-79505993D01*
X129200499Y-78794008D01*
X129200234Y-78791116D01*
X129194440Y-78728060D01*
X129193829Y-78721406D01*
X129171241Y-78649327D01*
X129145399Y-78566866D01*
X129145398Y-78566864D01*
X129143127Y-78559617D01*
X129055297Y-78414592D01*
X128983316Y-78342611D01*
X129894394Y-78342611D01*
X129912999Y-78511135D01*
X129971266Y-78670356D01*
X129975502Y-78676659D01*
X129975502Y-78676660D01*
X129985873Y-78692094D01*
X130065830Y-78811083D01*
X130071442Y-78816190D01*
X130071445Y-78816193D01*
X130185612Y-78920077D01*
X130185616Y-78920080D01*
X130191233Y-78925191D01*
X130197906Y-78928814D01*
X130197910Y-78928817D01*
X130333558Y-79002467D01*
X130333560Y-79002468D01*
X130340235Y-79006092D01*
X130347584Y-79008020D01*
X130496883Y-79047188D01*
X130496885Y-79047188D01*
X130504233Y-79049116D01*
X130590609Y-79050473D01*
X130666161Y-79051660D01*
X130666164Y-79051660D01*
X130673760Y-79051779D01*
X130681165Y-79050083D01*
X130681166Y-79050083D01*
X130796680Y-79023627D01*
X130839029Y-79013928D01*
X130990498Y-78937747D01*
X131083511Y-78858306D01*
X131113651Y-78832564D01*
X131113652Y-78832563D01*
X131119423Y-78827634D01*
X131218361Y-78689947D01*
X131228717Y-78664187D01*
X131278766Y-78539687D01*
X131278767Y-78539685D01*
X131281601Y-78532634D01*
X131305490Y-78364778D01*
X131305645Y-78350000D01*
X131303840Y-78335080D01*
X131294498Y-78257885D01*
X131285276Y-78181680D01*
X131225345Y-78023077D01*
X131209177Y-77999553D01*
X131133614Y-77889608D01*
X131133613Y-77889607D01*
X131129312Y-77883349D01*
X131117679Y-77872984D01*
X131080125Y-77812735D01*
X131075500Y-77778910D01*
X131075500Y-76192611D01*
X139494394Y-76192611D01*
X139512999Y-76361135D01*
X139541716Y-76439608D01*
X139565611Y-76504902D01*
X139571266Y-76520356D01*
X139575502Y-76526659D01*
X139575502Y-76526660D01*
X139584930Y-76540690D01*
X139665830Y-76661083D01*
X139671443Y-76666190D01*
X139671446Y-76666194D01*
X139683301Y-76676981D01*
X139720223Y-76737622D01*
X139724500Y-76770173D01*
X139724500Y-81132627D01*
X139723261Y-81143723D01*
X139723859Y-81143771D01*
X139723139Y-81152717D01*
X139721158Y-81161473D01*
X139721714Y-81170433D01*
X139724258Y-81211440D01*
X139724500Y-81219242D01*
X139724500Y-81234145D01*
X139725841Y-81243508D01*
X139726871Y-81253566D01*
X139729592Y-81297417D01*
X139732641Y-81305862D01*
X139733932Y-81312098D01*
X139735865Y-81319849D01*
X139737646Y-81325938D01*
X139738919Y-81334829D01*
X139742636Y-81343004D01*
X139757108Y-81374836D01*
X139760920Y-81384201D01*
X139772791Y-81417083D01*
X139772793Y-81417086D01*
X139775841Y-81425530D01*
X139781136Y-81432777D01*
X139784129Y-81438407D01*
X139788132Y-81445257D01*
X139791577Y-81450644D01*
X139795294Y-81458820D01*
X139801154Y-81465620D01*
X139801154Y-81465621D01*
X139823981Y-81492113D01*
X139830266Y-81500029D01*
X139834702Y-81506101D01*
X139834708Y-81506108D01*
X139837577Y-81510035D01*
X139847618Y-81520076D01*
X139853976Y-81526923D01*
X139884204Y-81562004D01*
X139891739Y-81566888D01*
X139898501Y-81572787D01*
X139898431Y-81572867D01*
X139908794Y-81581252D01*
X141916128Y-83588586D01*
X141923100Y-83597312D01*
X141923558Y-83596923D01*
X141929374Y-83603757D01*
X141934165Y-83611350D01*
X141940894Y-83617292D01*
X141940894Y-83617293D01*
X141971707Y-83644506D01*
X141977394Y-83649852D01*
X141987915Y-83660373D01*
X141995487Y-83666048D01*
X142003318Y-83672424D01*
X142036255Y-83701513D01*
X142044382Y-83705329D01*
X142049719Y-83708834D01*
X142056546Y-83712936D01*
X142062125Y-83715991D01*
X142069305Y-83721372D01*
X142077706Y-83724521D01*
X142077709Y-83724523D01*
X142110455Y-83736798D01*
X142119778Y-83740727D01*
X142151423Y-83755585D01*
X142151428Y-83755586D01*
X142159548Y-83759399D01*
X142168416Y-83760780D01*
X142174477Y-83762633D01*
X142182229Y-83764667D01*
X142188436Y-83766032D01*
X142196843Y-83769183D01*
X142240660Y-83772439D01*
X142250709Y-83773593D01*
X142262956Y-83775500D01*
X142277166Y-83775500D01*
X142286497Y-83775846D01*
X142292772Y-83776312D01*
X142359225Y-83801304D01*
X142368237Y-83808769D01*
X142441233Y-83875191D01*
X142447906Y-83878814D01*
X142447910Y-83878817D01*
X142583558Y-83952467D01*
X142583560Y-83952468D01*
X142590235Y-83956092D01*
X142597584Y-83958020D01*
X142746883Y-83997188D01*
X142746885Y-83997188D01*
X142754233Y-83999116D01*
X142817391Y-84000108D01*
X142875479Y-84001021D01*
X142943278Y-84022090D01*
X142988922Y-84076470D01*
X142999500Y-84127005D01*
X142999500Y-85175125D01*
X142976587Y-85247575D01*
X142928113Y-85316547D01*
X142925354Y-85323622D01*
X142925353Y-85323625D01*
X142876128Y-85449879D01*
X142866524Y-85474513D01*
X142865532Y-85482046D01*
X142865532Y-85482047D01*
X142846702Y-85625083D01*
X142844394Y-85642611D01*
X142862999Y-85811135D01*
X142921266Y-85970356D01*
X142925502Y-85976659D01*
X142925504Y-85976664D01*
X142978082Y-86054909D01*
X142999500Y-86125184D01*
X142999500Y-86335007D01*
X142999389Y-86340283D01*
X142996790Y-86402294D01*
X142998752Y-86410659D01*
X143006727Y-86444662D01*
X143008890Y-86456333D01*
X143014794Y-86499432D01*
X143018206Y-86507316D01*
X143018206Y-86507317D01*
X143020765Y-86513230D01*
X143027799Y-86534499D01*
X143031232Y-86549136D01*
X143035369Y-86556661D01*
X143035370Y-86556664D01*
X143052195Y-86587268D01*
X143057411Y-86597913D01*
X143074695Y-86637855D01*
X143084158Y-86649541D01*
X143096645Y-86668125D01*
X143103893Y-86681308D01*
X143110897Y-86689422D01*
X143135433Y-86713958D01*
X143144258Y-86723759D01*
X143164206Y-86748392D01*
X143169614Y-86755070D01*
X143176613Y-86760044D01*
X143176614Y-86760045D01*
X143184946Y-86765966D01*
X143201051Y-86779576D01*
X143913072Y-87491596D01*
X143947097Y-87553909D01*
X143949215Y-87566863D01*
X143952999Y-87601135D01*
X143955608Y-87608266D01*
X143955609Y-87608268D01*
X143987662Y-87695856D01*
X144011266Y-87760356D01*
X144015502Y-87766659D01*
X144015502Y-87766660D01*
X144028574Y-87786113D01*
X144105830Y-87901083D01*
X144111442Y-87906190D01*
X144111445Y-87906193D01*
X144225612Y-88010077D01*
X144225616Y-88010080D01*
X144231233Y-88015191D01*
X144237906Y-88018814D01*
X144237910Y-88018817D01*
X144373558Y-88092467D01*
X144373560Y-88092468D01*
X144380235Y-88096092D01*
X144387584Y-88098020D01*
X144536883Y-88137188D01*
X144536885Y-88137188D01*
X144544233Y-88139116D01*
X144630609Y-88140473D01*
X144706161Y-88141660D01*
X144706164Y-88141660D01*
X144713760Y-88141779D01*
X144721165Y-88140083D01*
X144721166Y-88140083D01*
X144781586Y-88126245D01*
X144879029Y-88103928D01*
X145030498Y-88027747D01*
X145116473Y-87954317D01*
X145153651Y-87922564D01*
X145153652Y-87922563D01*
X145159423Y-87917634D01*
X145258361Y-87779947D01*
X145266237Y-87760356D01*
X145318766Y-87629687D01*
X145318767Y-87629685D01*
X145321601Y-87622634D01*
X145345490Y-87454778D01*
X145345645Y-87440000D01*
X145325276Y-87271680D01*
X145265345Y-87113077D01*
X145244605Y-87082900D01*
X145173614Y-86979608D01*
X145173613Y-86979607D01*
X145169312Y-86973349D01*
X145113086Y-86923253D01*
X145048392Y-86865612D01*
X145048388Y-86865610D01*
X145042721Y-86860560D01*
X145030674Y-86854181D01*
X144948725Y-86810792D01*
X144892881Y-86781224D01*
X144768575Y-86750000D01*
X144748865Y-86745049D01*
X144690466Y-86711941D01*
X144427618Y-86449093D01*
X144160476Y-86181952D01*
X144126451Y-86119639D01*
X144130447Y-86063753D01*
X168728480Y-86063753D01*
X168729167Y-86070760D01*
X168729167Y-86070763D01*
X168731259Y-86092094D01*
X168746005Y-86242486D01*
X168748228Y-86249168D01*
X168748228Y-86249169D01*
X168759830Y-86284045D01*
X168802692Y-86412896D01*
X168806339Y-86418918D01*
X168885202Y-86549136D01*
X168895725Y-86566512D01*
X168900614Y-86571575D01*
X168900615Y-86571576D01*
X168957008Y-86629972D01*
X169020480Y-86695699D01*
X169170755Y-86794036D01*
X169339082Y-86856636D01*
X169346063Y-86857567D01*
X169346065Y-86857568D01*
X169510115Y-86879457D01*
X169510119Y-86879457D01*
X169517096Y-86880388D01*
X169524108Y-86879750D01*
X169524112Y-86879750D01*
X169688926Y-86864751D01*
X169688927Y-86864751D01*
X169695947Y-86864112D01*
X169866748Y-86808615D01*
X169928013Y-86772094D01*
X170014958Y-86720265D01*
X170014960Y-86720264D01*
X170021010Y-86716657D01*
X170151065Y-86592807D01*
X170168536Y-86566512D01*
X170241738Y-86456333D01*
X170250449Y-86443222D01*
X170291556Y-86335007D01*
X170311723Y-86281919D01*
X170311724Y-86281914D01*
X170314223Y-86275336D01*
X170329448Y-86167007D01*
X170338666Y-86101416D01*
X170338666Y-86101411D01*
X170339217Y-86097493D01*
X170339531Y-86075000D01*
X170319512Y-85896528D01*
X170313393Y-85878955D01*
X170262570Y-85733012D01*
X170259056Y-85662102D01*
X170292466Y-85602480D01*
X170502698Y-85392248D01*
X170511315Y-85384407D01*
X170517940Y-85380202D01*
X170530539Y-85366786D01*
X170565849Y-85329184D01*
X170568604Y-85326342D01*
X170588911Y-85306035D01*
X170591340Y-85302904D01*
X170591345Y-85302898D01*
X170591558Y-85302623D01*
X170599255Y-85293610D01*
X170630448Y-85260393D01*
X170640596Y-85241934D01*
X170651450Y-85225410D01*
X170659504Y-85215027D01*
X170659505Y-85215026D01*
X170664362Y-85208764D01*
X170682455Y-85166952D01*
X170687670Y-85156307D01*
X170709627Y-85116368D01*
X170714867Y-85095959D01*
X170721273Y-85077250D01*
X170726488Y-85065200D01*
X170726490Y-85065195D01*
X170729635Y-85057926D01*
X170736762Y-85012930D01*
X170739169Y-85001310D01*
X170748528Y-84964860D01*
X170748529Y-84964855D01*
X170750500Y-84957177D01*
X170750500Y-84936116D01*
X170752051Y-84916404D01*
X170754107Y-84903423D01*
X170755347Y-84895595D01*
X170751059Y-84850235D01*
X170750500Y-84838377D01*
X170750500Y-84384377D01*
X170759593Y-84337380D01*
X170778766Y-84289687D01*
X170778767Y-84289685D01*
X170781601Y-84282634D01*
X170803046Y-84131949D01*
X170804909Y-84118862D01*
X170804909Y-84118859D01*
X170805490Y-84114778D01*
X170805645Y-84100000D01*
X170803840Y-84085080D01*
X170793451Y-83999235D01*
X170785276Y-83931680D01*
X170725345Y-83773077D01*
X170653866Y-83669075D01*
X170633614Y-83639608D01*
X170633613Y-83639607D01*
X170629312Y-83633349D01*
X170620010Y-83625061D01*
X170508392Y-83525612D01*
X170508388Y-83525610D01*
X170502721Y-83520560D01*
X170352881Y-83441224D01*
X170188441Y-83399919D01*
X170180843Y-83399879D01*
X170180841Y-83399879D01*
X170103668Y-83399475D01*
X170018895Y-83399031D01*
X170011508Y-83400805D01*
X170011504Y-83400805D01*
X169868162Y-83435220D01*
X169854032Y-83438612D01*
X169847288Y-83442093D01*
X169847285Y-83442094D01*
X169710117Y-83512892D01*
X169703369Y-83516375D01*
X169697647Y-83521367D01*
X169697645Y-83521368D01*
X169687005Y-83530650D01*
X169575604Y-83627831D01*
X169559765Y-83650368D01*
X169483137Y-83759399D01*
X169478113Y-83766547D01*
X169416524Y-83924513D01*
X169415532Y-83932046D01*
X169415532Y-83932047D01*
X169395717Y-84082565D01*
X169394394Y-84092611D01*
X169412999Y-84261135D01*
X169420867Y-84282634D01*
X169441826Y-84339908D01*
X169449500Y-84383209D01*
X169449500Y-84553364D01*
X169429498Y-84621485D01*
X169412595Y-84642459D01*
X169131268Y-84923786D01*
X169122651Y-84931627D01*
X169116026Y-84935832D01*
X169110599Y-84941611D01*
X169110598Y-84941612D01*
X169068117Y-84986850D01*
X169065362Y-84989692D01*
X169045055Y-85009999D01*
X169042626Y-85013130D01*
X169042621Y-85013136D01*
X169042408Y-85013411D01*
X169034711Y-85022424D01*
X169003518Y-85055641D01*
X168999699Y-85062588D01*
X168993370Y-85074100D01*
X168982516Y-85090624D01*
X168969604Y-85107270D01*
X168951512Y-85149079D01*
X168946296Y-85159727D01*
X168924339Y-85199666D01*
X168922368Y-85207345D01*
X168922367Y-85207346D01*
X168919099Y-85220075D01*
X168912693Y-85238784D01*
X168907478Y-85250834D01*
X168907476Y-85250839D01*
X168904331Y-85258108D01*
X168898023Y-85297934D01*
X168897205Y-85303099D01*
X168894797Y-85314724D01*
X168885438Y-85351174D01*
X168885437Y-85351179D01*
X168883466Y-85358857D01*
X168883466Y-85379918D01*
X168881915Y-85399630D01*
X168878619Y-85420439D01*
X168879365Y-85428330D01*
X168882907Y-85465799D01*
X168883466Y-85477657D01*
X168883466Y-85569480D01*
X168863377Y-85637735D01*
X168812412Y-85716817D01*
X168810003Y-85723437D01*
X168810001Y-85723440D01*
X168781700Y-85801197D01*
X168750988Y-85885578D01*
X168728480Y-86063753D01*
X144130447Y-86063753D01*
X144131515Y-86048824D01*
X144147247Y-86019332D01*
X144163928Y-85996117D01*
X144163930Y-85996114D01*
X144168361Y-85989947D01*
X144173701Y-85976664D01*
X144228766Y-85839687D01*
X144228767Y-85839685D01*
X144231601Y-85832634D01*
X144252748Y-85684045D01*
X144254909Y-85668862D01*
X144254909Y-85668859D01*
X144255490Y-85664778D01*
X144255645Y-85650000D01*
X144253840Y-85635080D01*
X144248254Y-85588928D01*
X144235276Y-85481680D01*
X144196931Y-85380202D01*
X144178029Y-85330179D01*
X144178028Y-85330176D01*
X144175345Y-85323077D01*
X144171047Y-85316823D01*
X144171043Y-85316816D01*
X144122661Y-85246421D01*
X144100500Y-85175053D01*
X144100500Y-84917611D01*
X159544394Y-84917611D01*
X159562999Y-85086135D01*
X159588028Y-85154530D01*
X159616834Y-85233244D01*
X159621266Y-85245356D01*
X159715830Y-85386083D01*
X159721442Y-85391190D01*
X159721445Y-85391193D01*
X159835612Y-85495077D01*
X159835616Y-85495080D01*
X159841233Y-85500191D01*
X159847906Y-85503814D01*
X159847910Y-85503817D01*
X159983558Y-85577467D01*
X159983560Y-85577468D01*
X159990235Y-85581092D01*
X159997584Y-85583020D01*
X160146883Y-85622188D01*
X160146885Y-85622188D01*
X160154233Y-85624116D01*
X160240609Y-85625473D01*
X160316161Y-85626660D01*
X160316164Y-85626660D01*
X160323760Y-85626779D01*
X160331165Y-85625083D01*
X160331166Y-85625083D01*
X160412029Y-85606563D01*
X160489029Y-85588928D01*
X160640498Y-85512747D01*
X160641011Y-85513767D01*
X160701884Y-85494883D01*
X160770301Y-85513846D01*
X160808383Y-85550593D01*
X160861594Y-85629780D01*
X160861597Y-85629783D01*
X160865830Y-85636083D01*
X160871442Y-85641190D01*
X160871445Y-85641193D01*
X160985612Y-85745077D01*
X160985616Y-85745080D01*
X160991233Y-85750191D01*
X160997906Y-85753814D01*
X160997910Y-85753817D01*
X161133558Y-85827467D01*
X161133560Y-85827468D01*
X161140235Y-85831092D01*
X161147584Y-85833020D01*
X161296883Y-85872188D01*
X161296885Y-85872188D01*
X161304233Y-85874116D01*
X161390609Y-85875473D01*
X161466161Y-85876660D01*
X161466164Y-85876660D01*
X161473760Y-85876779D01*
X161481165Y-85875083D01*
X161481166Y-85875083D01*
X161541586Y-85861245D01*
X161639029Y-85838928D01*
X161790498Y-85762747D01*
X161889921Y-85677831D01*
X161913651Y-85657564D01*
X161913652Y-85657563D01*
X161919423Y-85652634D01*
X162018361Y-85514947D01*
X162028948Y-85488612D01*
X162078766Y-85364687D01*
X162078767Y-85364685D01*
X162081601Y-85357634D01*
X162096801Y-85250834D01*
X162104909Y-85193862D01*
X162104909Y-85193859D01*
X162105490Y-85189778D01*
X162105645Y-85175000D01*
X162104672Y-85166955D01*
X162095434Y-85090624D01*
X162085276Y-85006680D01*
X162025345Y-84848077D01*
X161993289Y-84801436D01*
X161933614Y-84714608D01*
X161933613Y-84714607D01*
X161929312Y-84708349D01*
X161917679Y-84697984D01*
X161880125Y-84637735D01*
X161875500Y-84603910D01*
X161875500Y-83877444D01*
X161895502Y-83809323D01*
X161949158Y-83762830D01*
X162003480Y-83751460D01*
X162023760Y-83751779D01*
X162031165Y-83750083D01*
X162031166Y-83750083D01*
X162091586Y-83736245D01*
X162189029Y-83713928D01*
X162340498Y-83637747D01*
X162419713Y-83570090D01*
X162463651Y-83532564D01*
X162463652Y-83532563D01*
X162469423Y-83527634D01*
X162568361Y-83389947D01*
X162602578Y-83304830D01*
X162628766Y-83239687D01*
X162628767Y-83239685D01*
X162631601Y-83232634D01*
X162646450Y-83128296D01*
X162654909Y-83068862D01*
X162654909Y-83068859D01*
X162655490Y-83064778D01*
X162655645Y-83050000D01*
X162635276Y-82881680D01*
X162575345Y-82723077D01*
X162479312Y-82583349D01*
X162473641Y-82578296D01*
X162358392Y-82475612D01*
X162358388Y-82475610D01*
X162352721Y-82470560D01*
X162334921Y-82461135D01*
X162285080Y-82434746D01*
X162202881Y-82391224D01*
X162049506Y-82352698D01*
X161988312Y-82316704D01*
X161956291Y-82253339D01*
X161955116Y-82245632D01*
X161935276Y-82081680D01*
X161875345Y-81923077D01*
X161779312Y-81783349D01*
X161767514Y-81772837D01*
X161658392Y-81675612D01*
X161658388Y-81675610D01*
X161652721Y-81670560D01*
X161502881Y-81591224D01*
X161338441Y-81549919D01*
X161330843Y-81549879D01*
X161330841Y-81549879D01*
X161253668Y-81549475D01*
X161168895Y-81549031D01*
X161161508Y-81550805D01*
X161161504Y-81550805D01*
X161048845Y-81577853D01*
X161004032Y-81588612D01*
X160997288Y-81592093D01*
X160997285Y-81592094D01*
X160935219Y-81624129D01*
X160853369Y-81666375D01*
X160847647Y-81671367D01*
X160847645Y-81671368D01*
X160778509Y-81731679D01*
X160725604Y-81777831D01*
X160721237Y-81784045D01*
X160643937Y-81894032D01*
X160628113Y-81916547D01*
X160566524Y-82074513D01*
X160565532Y-82082048D01*
X160559912Y-82124739D01*
X160531190Y-82189667D01*
X160524086Y-82197389D01*
X159871346Y-82850130D01*
X159867536Y-82853783D01*
X159821844Y-82895799D01*
X159798901Y-82932802D01*
X159792200Y-82942552D01*
X159765888Y-82977217D01*
X159760354Y-82991195D01*
X159750293Y-83011199D01*
X159742365Y-83023986D01*
X159739968Y-83032237D01*
X159739967Y-83032239D01*
X159730225Y-83065772D01*
X159726380Y-83077002D01*
X159710364Y-83117453D01*
X159709466Y-83125994D01*
X159709466Y-83125995D01*
X159708792Y-83132408D01*
X159704480Y-83154383D01*
X159700285Y-83168825D01*
X159699500Y-83179515D01*
X159699500Y-83214217D01*
X159698810Y-83227387D01*
X159694599Y-83267454D01*
X159696031Y-83275919D01*
X159696031Y-83275928D01*
X159697735Y-83286000D01*
X159699500Y-83307013D01*
X159699500Y-84450125D01*
X159676587Y-84522575D01*
X159628113Y-84591547D01*
X159625354Y-84598622D01*
X159625353Y-84598625D01*
X159573001Y-84732900D01*
X159566524Y-84749513D01*
X159565532Y-84757046D01*
X159565532Y-84757047D01*
X159545543Y-84908884D01*
X159544394Y-84917611D01*
X144100500Y-84917611D01*
X144100500Y-79864993D01*
X144100611Y-79859717D01*
X144102850Y-79806291D01*
X144103114Y-79800000D01*
X158824540Y-79800000D01*
X158825230Y-79806565D01*
X158834082Y-79890784D01*
X158844326Y-79988256D01*
X158902821Y-80168284D01*
X158997467Y-80332216D01*
X159124129Y-80472888D01*
X159129468Y-80476767D01*
X159190909Y-80521406D01*
X159277270Y-80584151D01*
X159450197Y-80661144D01*
X159544286Y-80681143D01*
X159628897Y-80699128D01*
X159628901Y-80699128D01*
X159635354Y-80700500D01*
X159824646Y-80700500D01*
X159831099Y-80699128D01*
X159831103Y-80699128D01*
X159915714Y-80681143D01*
X160009803Y-80661144D01*
X160129386Y-80607902D01*
X160199750Y-80598467D01*
X160254673Y-80621065D01*
X160261658Y-80628050D01*
X160270490Y-80632550D01*
X160270493Y-80632552D01*
X160316808Y-80656151D01*
X160374696Y-80685646D01*
X160384485Y-80687196D01*
X160384487Y-80687197D01*
X160411849Y-80691530D01*
X160468481Y-80700500D01*
X160999892Y-80700500D01*
X161531518Y-80700499D01*
X161540175Y-80699128D01*
X161615506Y-80687198D01*
X161615508Y-80687197D01*
X161625304Y-80685646D01*
X161738342Y-80628050D01*
X161828050Y-80538342D01*
X161885646Y-80425304D01*
X161900500Y-80331519D01*
X161900499Y-79342611D01*
X169994394Y-79342611D01*
X170012999Y-79511135D01*
X170029225Y-79555475D01*
X170067194Y-79659228D01*
X170071266Y-79670356D01*
X170075502Y-79676659D01*
X170075502Y-79676660D01*
X170086269Y-79692683D01*
X170165830Y-79811083D01*
X170171442Y-79816190D01*
X170171445Y-79816193D01*
X170285612Y-79920077D01*
X170285616Y-79920080D01*
X170291233Y-79925191D01*
X170297906Y-79928814D01*
X170297910Y-79928817D01*
X170433558Y-80002467D01*
X170433560Y-80002468D01*
X170440235Y-80006092D01*
X170447584Y-80008020D01*
X170596883Y-80047188D01*
X170596885Y-80047188D01*
X170604233Y-80049116D01*
X170690609Y-80050473D01*
X170766161Y-80051660D01*
X170766164Y-80051660D01*
X170773760Y-80051779D01*
X170781165Y-80050083D01*
X170781166Y-80050083D01*
X170898470Y-80023217D01*
X170939029Y-80013928D01*
X171090498Y-79937747D01*
X171169713Y-79870090D01*
X171213651Y-79832564D01*
X171213652Y-79832563D01*
X171219423Y-79827634D01*
X171318361Y-79689947D01*
X171328188Y-79665501D01*
X171378766Y-79539687D01*
X171378767Y-79539685D01*
X171381601Y-79532634D01*
X171405490Y-79364778D01*
X171405533Y-79360651D01*
X171405593Y-79359866D01*
X171430702Y-79293458D01*
X171442135Y-79280323D01*
X171860055Y-78862404D01*
X171922367Y-78828379D01*
X171949150Y-78825500D01*
X173782927Y-78825500D01*
X173851048Y-78845502D01*
X173867726Y-78858306D01*
X173935612Y-78920077D01*
X173935616Y-78920080D01*
X173941233Y-78925191D01*
X173990856Y-78952134D01*
X174083558Y-79002467D01*
X174083560Y-79002468D01*
X174090235Y-79006092D01*
X174097584Y-79008020D01*
X174246883Y-79047188D01*
X174246885Y-79047188D01*
X174254233Y-79049116D01*
X174340609Y-79050473D01*
X174416161Y-79051660D01*
X174416164Y-79051660D01*
X174423760Y-79051779D01*
X174431165Y-79050083D01*
X174431166Y-79050083D01*
X174546680Y-79023627D01*
X174589029Y-79013928D01*
X174740498Y-78937747D01*
X174833511Y-78858306D01*
X174863651Y-78832564D01*
X174863652Y-78832563D01*
X174869423Y-78827634D01*
X174968361Y-78689947D01*
X174978717Y-78664187D01*
X175028766Y-78539687D01*
X175028767Y-78539685D01*
X175031601Y-78532634D01*
X175055490Y-78364778D01*
X175055645Y-78350000D01*
X175053840Y-78335080D01*
X175044498Y-78257885D01*
X175035276Y-78181680D01*
X174975345Y-78023077D01*
X174959177Y-77999553D01*
X174883614Y-77889608D01*
X174883613Y-77889607D01*
X174879312Y-77883349D01*
X174873119Y-77877831D01*
X174758392Y-77775612D01*
X174758388Y-77775610D01*
X174752721Y-77770560D01*
X174602881Y-77691224D01*
X174438441Y-77649919D01*
X174430843Y-77649879D01*
X174430841Y-77649879D01*
X174353668Y-77649475D01*
X174268895Y-77649031D01*
X174261508Y-77650805D01*
X174261504Y-77650805D01*
X174118162Y-77685220D01*
X174104032Y-77688612D01*
X174097288Y-77692093D01*
X174097285Y-77692094D01*
X173960117Y-77762892D01*
X173953369Y-77766375D01*
X173947647Y-77771367D01*
X173947645Y-77771368D01*
X173918120Y-77797124D01*
X173874501Y-77835176D01*
X173865017Y-77843449D01*
X173800535Y-77873157D01*
X173782188Y-77874500D01*
X171767373Y-77874500D01*
X171756277Y-77873261D01*
X171756229Y-77873859D01*
X171747283Y-77873139D01*
X171738527Y-77871158D01*
X171694986Y-77873859D01*
X171688554Y-77874258D01*
X171680753Y-77874500D01*
X171665855Y-77874500D01*
X171656492Y-77875841D01*
X171646442Y-77876870D01*
X171626984Y-77878077D01*
X171611542Y-77879035D01*
X171611540Y-77879035D01*
X171602584Y-77879591D01*
X171594144Y-77882638D01*
X171587897Y-77883932D01*
X171580191Y-77885853D01*
X171574056Y-77887647D01*
X171565171Y-77888919D01*
X171557000Y-77892634D01*
X171525168Y-77907107D01*
X171515802Y-77910920D01*
X171474471Y-77925841D01*
X171467225Y-77931135D01*
X171461588Y-77934132D01*
X171454735Y-77938137D01*
X171449356Y-77941577D01*
X171441180Y-77945294D01*
X171434378Y-77951155D01*
X171407891Y-77973978D01*
X171399987Y-77980255D01*
X171389965Y-77987576D01*
X171379917Y-77997624D01*
X171373070Y-78003982D01*
X171337996Y-78034204D01*
X171333112Y-78041739D01*
X171327213Y-78048501D01*
X171327133Y-78048431D01*
X171318753Y-78058788D01*
X171029235Y-78348307D01*
X170765118Y-78612424D01*
X170702805Y-78646449D01*
X170675365Y-78649327D01*
X170618895Y-78649031D01*
X170611508Y-78650805D01*
X170611504Y-78650805D01*
X170477824Y-78682900D01*
X170454032Y-78688612D01*
X170447288Y-78692093D01*
X170447285Y-78692094D01*
X170377585Y-78728069D01*
X170303369Y-78766375D01*
X170297647Y-78771367D01*
X170297645Y-78771368D01*
X170240212Y-78821470D01*
X170175604Y-78877831D01*
X170157207Y-78904007D01*
X170088009Y-79002467D01*
X170078113Y-79016547D01*
X170016524Y-79174513D01*
X170015532Y-79182046D01*
X170015532Y-79182047D01*
X169997319Y-79320396D01*
X169994394Y-79342611D01*
X161900499Y-79342611D01*
X161900499Y-79268482D01*
X161885646Y-79174696D01*
X161828050Y-79061658D01*
X161759454Y-78993062D01*
X161725428Y-78930750D01*
X161730761Y-78859223D01*
X161752904Y-78800933D01*
X161753994Y-78786876D01*
X161748802Y-78784000D01*
X160872000Y-78784000D01*
X160803879Y-78763998D01*
X160757386Y-78710342D01*
X160746000Y-78658000D01*
X160746000Y-78257885D01*
X161254000Y-78257885D01*
X161258475Y-78273124D01*
X161259865Y-78274329D01*
X161267548Y-78276000D01*
X161740600Y-78276000D01*
X161754131Y-78272027D01*
X161755066Y-78265522D01*
X161728349Y-78188801D01*
X161722297Y-78176168D01*
X161634655Y-78035912D01*
X161625958Y-78024939D01*
X161585830Y-77984530D01*
X161552023Y-77922099D01*
X161557335Y-77851302D01*
X161588343Y-77804501D01*
X161611610Y-77782344D01*
X161620613Y-77771613D01*
X161712134Y-77633864D01*
X161718538Y-77621402D01*
X161752903Y-77530934D01*
X161753994Y-77516876D01*
X161748802Y-77514000D01*
X161272115Y-77514000D01*
X161256876Y-77518475D01*
X161255671Y-77519865D01*
X161254000Y-77527548D01*
X161254000Y-78257885D01*
X160746000Y-78257885D01*
X160746000Y-77132000D01*
X160766002Y-77063879D01*
X160819658Y-77017386D01*
X160872000Y-77006000D01*
X161740600Y-77006000D01*
X161754131Y-77002027D01*
X161755066Y-76995522D01*
X161728349Y-76918801D01*
X161722296Y-76906168D01*
X161635175Y-76766744D01*
X161616039Y-76698375D01*
X161636904Y-76630513D01*
X161648393Y-76615664D01*
X161728110Y-76527129D01*
X161728114Y-76527124D01*
X161732533Y-76522216D01*
X161780227Y-76439608D01*
X161823875Y-76364007D01*
X161823876Y-76364006D01*
X161827179Y-76358284D01*
X161885674Y-76178256D01*
X161886723Y-76168280D01*
X161904770Y-75996565D01*
X161905460Y-75990000D01*
X161893016Y-75871598D01*
X161886364Y-75808307D01*
X161886364Y-75808305D01*
X161885674Y-75801744D01*
X161827179Y-75621716D01*
X161822085Y-75612892D01*
X161735836Y-75463505D01*
X161735834Y-75463502D01*
X161732533Y-75457784D01*
X161728113Y-75452875D01*
X161728110Y-75452871D01*
X161647066Y-75362862D01*
X161616348Y-75298855D01*
X161625113Y-75228401D01*
X161635754Y-75208825D01*
X161712134Y-75093864D01*
X161718538Y-75081402D01*
X161752903Y-74990934D01*
X161753994Y-74976876D01*
X161748802Y-74974000D01*
X160872000Y-74974000D01*
X160803879Y-74953998D01*
X160757386Y-74900342D01*
X160746000Y-74848000D01*
X160746000Y-74447885D01*
X161254000Y-74447885D01*
X161258475Y-74463124D01*
X161259865Y-74464329D01*
X161267548Y-74466000D01*
X161740600Y-74466000D01*
X161754131Y-74462027D01*
X161755066Y-74455522D01*
X161728349Y-74378801D01*
X161722297Y-74366168D01*
X161634655Y-74225912D01*
X161625958Y-74214939D01*
X161509418Y-74097582D01*
X161498507Y-74088810D01*
X161358871Y-74000194D01*
X161346271Y-73994049D01*
X161271067Y-73967270D01*
X161256987Y-73966474D01*
X161254000Y-73972143D01*
X161254000Y-74447885D01*
X160746000Y-74447885D01*
X160746000Y-73979450D01*
X160742027Y-73965919D01*
X160735353Y-73964960D01*
X160663888Y-73989288D01*
X160651222Y-73995249D01*
X160507646Y-74083577D01*
X160439145Y-74102235D01*
X160371431Y-74080896D01*
X160347986Y-74060567D01*
X160340288Y-74052017D01*
X160340285Y-74052015D01*
X160335871Y-74047112D01*
X160308368Y-74027130D01*
X160188072Y-73939730D01*
X160188071Y-73939729D01*
X160182730Y-73935849D01*
X160009803Y-73858856D01*
X159903139Y-73836184D01*
X159831103Y-73820872D01*
X159831099Y-73820872D01*
X159824646Y-73819500D01*
X159635354Y-73819500D01*
X159628901Y-73820872D01*
X159628897Y-73820872D01*
X159556861Y-73836184D01*
X159450197Y-73858856D01*
X159277270Y-73935849D01*
X159271929Y-73939729D01*
X159271928Y-73939730D01*
X159151632Y-74027130D01*
X159124129Y-74047112D01*
X159119716Y-74052014D01*
X159119714Y-74052015D01*
X159068509Y-74108884D01*
X158997467Y-74187784D01*
X158994164Y-74193505D01*
X158974030Y-74228379D01*
X158902821Y-74351716D01*
X158844326Y-74531744D01*
X158843636Y-74538305D01*
X158843636Y-74538307D01*
X158836595Y-74605297D01*
X158824540Y-74720000D01*
X158825230Y-74726565D01*
X158842402Y-74889947D01*
X158844326Y-74908256D01*
X158902821Y-75088284D01*
X158997467Y-75252216D01*
X159001885Y-75257123D01*
X159001886Y-75257124D01*
X159014101Y-75270690D01*
X159044819Y-75334697D01*
X159036054Y-75405151D01*
X159014101Y-75439310D01*
X158997467Y-75457784D01*
X158972629Y-75500805D01*
X158907916Y-75612892D01*
X158902821Y-75621716D01*
X158844326Y-75801744D01*
X158843636Y-75808305D01*
X158843636Y-75808307D01*
X158836984Y-75871598D01*
X158824540Y-75990000D01*
X158825230Y-75996565D01*
X158843278Y-76168280D01*
X158844326Y-76178256D01*
X158902821Y-76358284D01*
X158997467Y-76522216D01*
X159001885Y-76527123D01*
X159001886Y-76527124D01*
X159014101Y-76540690D01*
X159044819Y-76604697D01*
X159036054Y-76675151D01*
X159014101Y-76709310D01*
X158997467Y-76727784D01*
X158902821Y-76891716D01*
X158844326Y-77071744D01*
X158843636Y-77078305D01*
X158843636Y-77078307D01*
X158829456Y-77213222D01*
X158824540Y-77260000D01*
X158825230Y-77266565D01*
X158828655Y-77299148D01*
X158844326Y-77448256D01*
X158902821Y-77628284D01*
X158997467Y-77792216D01*
X159001885Y-77797123D01*
X159001886Y-77797124D01*
X159014101Y-77810690D01*
X159044819Y-77874697D01*
X159036054Y-77945151D01*
X159014101Y-77979310D01*
X159003555Y-77991023D01*
X158997467Y-77997784D01*
X158902821Y-78161716D01*
X158844326Y-78341744D01*
X158843636Y-78348305D01*
X158843636Y-78348307D01*
X158829253Y-78485153D01*
X158824540Y-78530000D01*
X158825230Y-78536565D01*
X158841351Y-78689947D01*
X158844326Y-78718256D01*
X158902821Y-78898284D01*
X158906124Y-78904006D01*
X158906125Y-78904007D01*
X158925605Y-78937747D01*
X158997467Y-79062216D01*
X159001885Y-79067123D01*
X159001886Y-79067124D01*
X159014101Y-79080690D01*
X159044819Y-79144697D01*
X159036054Y-79215151D01*
X159014101Y-79249310D01*
X158997467Y-79267784D01*
X158902821Y-79431716D01*
X158844326Y-79611744D01*
X158843636Y-79618305D01*
X158843636Y-79618307D01*
X158838676Y-79665501D01*
X158824540Y-79800000D01*
X144103114Y-79800000D01*
X144103210Y-79797706D01*
X144101248Y-79789341D01*
X144093273Y-79755338D01*
X144091110Y-79743667D01*
X144086372Y-79709081D01*
X144085206Y-79700568D01*
X144079235Y-79686770D01*
X144072201Y-79665501D01*
X144070730Y-79659228D01*
X144070729Y-79659226D01*
X144068768Y-79650864D01*
X144047805Y-79612734D01*
X144042583Y-79602073D01*
X144028716Y-79570027D01*
X144028715Y-79570026D01*
X144025305Y-79562145D01*
X144019617Y-79555121D01*
X144019451Y-79554728D01*
X144015449Y-79548120D01*
X144016407Y-79547540D01*
X143992450Y-79490963D01*
X143986189Y-79439221D01*
X143986188Y-79439218D01*
X143985276Y-79431680D01*
X143925345Y-79273077D01*
X143864463Y-79184494D01*
X143833614Y-79139608D01*
X143833613Y-79139607D01*
X143829312Y-79133349D01*
X143822149Y-79126967D01*
X143708392Y-79025612D01*
X143708388Y-79025610D01*
X143702721Y-79020560D01*
X143690196Y-79013928D01*
X143610912Y-78971950D01*
X143552881Y-78941224D01*
X143388441Y-78899919D01*
X143380843Y-78899879D01*
X143380841Y-78899879D01*
X143300840Y-78899460D01*
X143232825Y-78879102D01*
X143186614Y-78825203D01*
X143175500Y-78773462D01*
X143175500Y-78467111D01*
X153844394Y-78467111D01*
X153862999Y-78635635D01*
X153892051Y-78715022D01*
X153918346Y-78786876D01*
X153921266Y-78794856D01*
X153925502Y-78801159D01*
X153925502Y-78801160D01*
X153935604Y-78816193D01*
X154015830Y-78935583D01*
X154021442Y-78940690D01*
X154021445Y-78940693D01*
X154135612Y-79044577D01*
X154135616Y-79044580D01*
X154141233Y-79049691D01*
X154147906Y-79053314D01*
X154147910Y-79053317D01*
X154283558Y-79126967D01*
X154283560Y-79126968D01*
X154290235Y-79130592D01*
X154297584Y-79132520D01*
X154446883Y-79171688D01*
X154446885Y-79171688D01*
X154454233Y-79173616D01*
X154540609Y-79174973D01*
X154616161Y-79176160D01*
X154616164Y-79176160D01*
X154623760Y-79176279D01*
X154631165Y-79174583D01*
X154631166Y-79174583D01*
X154691586Y-79160745D01*
X154789029Y-79138428D01*
X154940498Y-79062247D01*
X155069423Y-78952134D01*
X155168361Y-78814447D01*
X155177740Y-78791116D01*
X155228766Y-78664187D01*
X155228767Y-78664185D01*
X155231601Y-78657134D01*
X155244448Y-78566866D01*
X155254909Y-78493362D01*
X155254909Y-78493359D01*
X155255490Y-78489278D01*
X155255645Y-78474500D01*
X155253840Y-78459580D01*
X155240374Y-78348307D01*
X155235276Y-78306180D01*
X155217027Y-78257885D01*
X155178029Y-78154679D01*
X155178028Y-78154676D01*
X155175345Y-78147577D01*
X155171047Y-78141323D01*
X155171043Y-78141316D01*
X155122661Y-78070921D01*
X155100500Y-77999553D01*
X155100500Y-77374962D01*
X155124177Y-77301436D01*
X155149234Y-77266565D01*
X155168361Y-77239947D01*
X155176237Y-77220356D01*
X155228766Y-77089687D01*
X155228767Y-77089685D01*
X155231601Y-77082634D01*
X155240887Y-77017386D01*
X155254909Y-76918862D01*
X155254909Y-76918859D01*
X155255490Y-76914778D01*
X155255645Y-76900000D01*
X155253840Y-76885080D01*
X155245880Y-76819305D01*
X155235276Y-76731680D01*
X155175345Y-76573077D01*
X155079312Y-76433349D01*
X155073119Y-76427831D01*
X154958392Y-76325612D01*
X154958388Y-76325610D01*
X154952721Y-76320560D01*
X154802881Y-76241224D01*
X154638441Y-76199919D01*
X154630843Y-76199879D01*
X154630841Y-76199879D01*
X154553668Y-76199475D01*
X154468895Y-76199031D01*
X154461508Y-76200805D01*
X154461504Y-76200805D01*
X154318162Y-76235220D01*
X154304032Y-76238612D01*
X154297288Y-76242093D01*
X154297285Y-76242094D01*
X154160117Y-76312892D01*
X154153369Y-76316375D01*
X154147647Y-76321367D01*
X154147645Y-76321368D01*
X154105028Y-76358545D01*
X154025604Y-76427831D01*
X153991200Y-76476783D01*
X153946286Y-76540690D01*
X153928113Y-76566547D01*
X153866524Y-76724513D01*
X153865532Y-76732046D01*
X153865532Y-76732047D01*
X153853120Y-76826331D01*
X153844394Y-76892611D01*
X153862999Y-77061135D01*
X153877371Y-77100407D01*
X153917496Y-77210053D01*
X153921266Y-77220356D01*
X153925502Y-77226659D01*
X153925504Y-77226664D01*
X153978082Y-77304909D01*
X153999500Y-77375184D01*
X153999500Y-77999625D01*
X153976587Y-78072075D01*
X153928113Y-78141047D01*
X153925354Y-78148122D01*
X153925353Y-78148125D01*
X153876618Y-78273124D01*
X153866524Y-78299013D01*
X153865532Y-78306546D01*
X153865532Y-78306547D01*
X153852016Y-78409216D01*
X153844394Y-78467111D01*
X143175500Y-78467111D01*
X143175500Y-77299148D01*
X143195502Y-77231027D01*
X143212405Y-77210053D01*
X146160054Y-74262405D01*
X146222366Y-74228379D01*
X146249149Y-74225500D01*
X149668788Y-74225500D01*
X149736909Y-74245502D01*
X149783402Y-74299158D01*
X149793506Y-74369432D01*
X149792982Y-74372055D01*
X149792024Y-74374513D01*
X149782365Y-74447885D01*
X149771285Y-74532047D01*
X149769894Y-74542611D01*
X149788499Y-74711135D01*
X149794146Y-74726565D01*
X149843392Y-74861135D01*
X149846766Y-74870356D01*
X149851002Y-74876659D01*
X149851002Y-74876660D01*
X149864074Y-74896113D01*
X149941330Y-75011083D01*
X149946943Y-75016190D01*
X149946946Y-75016194D01*
X149958801Y-75026981D01*
X149995723Y-75087622D01*
X150000000Y-75120173D01*
X150000000Y-75658605D01*
X149979998Y-75726726D01*
X149947730Y-75759836D01*
X149947136Y-75760142D01*
X149941415Y-75765132D01*
X149941413Y-75765134D01*
X149891923Y-75808307D01*
X149819371Y-75871598D01*
X149797235Y-75903095D01*
X149748850Y-75971940D01*
X149721880Y-76010314D01*
X149660291Y-76168280D01*
X149659299Y-76175813D01*
X149659299Y-76175814D01*
X149641253Y-76312892D01*
X149638161Y-76336378D01*
X149656766Y-76504902D01*
X149715033Y-76664123D01*
X149719269Y-76670426D01*
X149719269Y-76670427D01*
X149728280Y-76683837D01*
X149809597Y-76804850D01*
X149815209Y-76809957D01*
X149815212Y-76809960D01*
X149929379Y-76913844D01*
X149929383Y-76913847D01*
X149935000Y-76918958D01*
X149941673Y-76922581D01*
X149941677Y-76922584D01*
X150077325Y-76996234D01*
X150077327Y-76996235D01*
X150084002Y-76999859D01*
X150091351Y-77001787D01*
X150240650Y-77040955D01*
X150240652Y-77040955D01*
X150248000Y-77042883D01*
X150334376Y-77044240D01*
X150409928Y-77045427D01*
X150409931Y-77045427D01*
X150417527Y-77045546D01*
X150424932Y-77043850D01*
X150424933Y-77043850D01*
X150538565Y-77017825D01*
X150582796Y-77007695D01*
X150734265Y-76931514D01*
X150863190Y-76821401D01*
X150962128Y-76683714D01*
X150971226Y-76661083D01*
X151022533Y-76533454D01*
X151022534Y-76533452D01*
X151025368Y-76526401D01*
X151049257Y-76358545D01*
X151049412Y-76343767D01*
X151047607Y-76328847D01*
X151036472Y-76236839D01*
X151029043Y-76175447D01*
X150969112Y-76016844D01*
X150965247Y-76011220D01*
X150951000Y-75953220D01*
X150951000Y-75123177D01*
X150971002Y-75055056D01*
X150984252Y-75037890D01*
X150989146Y-75032568D01*
X150994923Y-75027634D01*
X151003144Y-75016194D01*
X151076193Y-74914534D01*
X151093861Y-74889947D01*
X151102577Y-74868266D01*
X151154266Y-74739687D01*
X151154267Y-74739685D01*
X151157101Y-74732634D01*
X151175128Y-74605968D01*
X151180409Y-74568862D01*
X151180409Y-74568859D01*
X151180990Y-74564778D01*
X151181145Y-74550000D01*
X151179841Y-74539220D01*
X151170980Y-74466000D01*
X151160776Y-74381680D01*
X151159903Y-74379369D01*
X151162980Y-74310630D01*
X151203997Y-74252681D01*
X151269832Y-74226105D01*
X151282168Y-74225500D01*
X154050852Y-74225500D01*
X154118973Y-74245502D01*
X154139947Y-74262405D01*
X154509909Y-74632367D01*
X154543935Y-74694679D01*
X154546052Y-74707631D01*
X154562999Y-74861135D01*
X154595754Y-74950642D01*
X154617873Y-75011083D01*
X154621266Y-75020356D01*
X154625502Y-75026659D01*
X154625502Y-75026660D01*
X154638574Y-75046113D01*
X154715830Y-75161083D01*
X154721442Y-75166190D01*
X154721445Y-75166193D01*
X154835612Y-75270077D01*
X154835616Y-75270080D01*
X154841233Y-75275191D01*
X154847906Y-75278814D01*
X154847910Y-75278817D01*
X154983558Y-75352467D01*
X154983560Y-75352468D01*
X154990235Y-75356092D01*
X154997584Y-75358020D01*
X155146883Y-75397188D01*
X155146885Y-75397188D01*
X155154233Y-75399116D01*
X155240609Y-75400473D01*
X155316161Y-75401660D01*
X155316164Y-75401660D01*
X155323760Y-75401779D01*
X155331165Y-75400083D01*
X155331166Y-75400083D01*
X155391586Y-75386245D01*
X155489029Y-75363928D01*
X155640498Y-75287747D01*
X155750253Y-75194007D01*
X155763651Y-75182564D01*
X155763652Y-75182563D01*
X155769423Y-75177634D01*
X155868361Y-75039947D01*
X155877910Y-75016194D01*
X155928766Y-74889687D01*
X155928767Y-74889685D01*
X155931601Y-74882634D01*
X155952949Y-74732634D01*
X155954909Y-74718862D01*
X155954909Y-74718859D01*
X155955490Y-74714778D01*
X155955645Y-74700000D01*
X155953840Y-74685080D01*
X155944266Y-74605968D01*
X155935276Y-74531680D01*
X155875345Y-74373077D01*
X155865462Y-74358697D01*
X155783614Y-74239608D01*
X155783613Y-74239607D01*
X155779312Y-74233349D01*
X155767514Y-74222837D01*
X155658392Y-74125612D01*
X155658388Y-74125610D01*
X155652721Y-74120560D01*
X155619736Y-74103095D01*
X155582872Y-74083577D01*
X155502881Y-74041224D01*
X155338441Y-73999919D01*
X155330843Y-73999879D01*
X155330841Y-73999879D01*
X155273569Y-73999579D01*
X155205554Y-73979220D01*
X155185134Y-73962676D01*
X154939640Y-73717182D01*
X154905614Y-73654870D01*
X154910679Y-73584055D01*
X154946904Y-73532276D01*
X155063651Y-73432564D01*
X155063652Y-73432563D01*
X155069423Y-73427634D01*
X155168361Y-73289947D01*
X155175500Y-73272188D01*
X155228766Y-73139687D01*
X155228767Y-73139685D01*
X155231601Y-73132634D01*
X155242285Y-73057564D01*
X155254909Y-72968862D01*
X155254909Y-72968859D01*
X155255490Y-72964778D01*
X155255645Y-72950000D01*
X155235276Y-72781680D01*
X155175345Y-72623077D01*
X155149624Y-72585653D01*
X155083614Y-72489608D01*
X155083613Y-72489607D01*
X155079312Y-72483349D01*
X155073641Y-72478296D01*
X154958392Y-72375612D01*
X154958388Y-72375610D01*
X154952721Y-72370560D01*
X154912946Y-72349500D01*
X154858287Y-72320560D01*
X154802881Y-72291224D01*
X154638441Y-72249919D01*
X154630843Y-72249879D01*
X154630841Y-72249879D01*
X154553668Y-72249475D01*
X154468895Y-72249031D01*
X154461508Y-72250805D01*
X154461504Y-72250805D01*
X154318248Y-72285199D01*
X154304032Y-72288612D01*
X154297288Y-72292093D01*
X154297285Y-72292094D01*
X154160117Y-72362892D01*
X154153369Y-72366375D01*
X154147645Y-72371368D01*
X154141364Y-72375637D01*
X154139938Y-72373539D01*
X154086522Y-72398155D01*
X154068163Y-72399500D01*
X153576500Y-72399500D01*
X153508379Y-72379498D01*
X153461886Y-72325842D01*
X153450500Y-72273500D01*
X153450500Y-68914993D01*
X153450611Y-68909717D01*
X153452850Y-68856291D01*
X153453210Y-68847706D01*
X153451248Y-68839341D01*
X153443273Y-68805338D01*
X153441110Y-68793667D01*
X153436372Y-68759081D01*
X153435206Y-68750568D01*
X153429235Y-68736770D01*
X153422201Y-68715501D01*
X153420729Y-68709225D01*
X153418768Y-68700864D01*
X153414631Y-68693339D01*
X153414630Y-68693336D01*
X153397805Y-68662732D01*
X153392589Y-68652087D01*
X153375305Y-68612145D01*
X153365842Y-68600459D01*
X153353354Y-68581874D01*
X153349290Y-68574482D01*
X153346107Y-68568692D01*
X153339103Y-68560578D01*
X153314567Y-68536042D01*
X153305742Y-68526241D01*
X153285794Y-68501608D01*
X153285793Y-68501607D01*
X153280386Y-68494930D01*
X153265055Y-68484034D01*
X153248949Y-68470424D01*
X153209560Y-68431035D01*
X153126376Y-68347852D01*
X153092351Y-68285540D01*
X153090387Y-68273913D01*
X153085276Y-68231680D01*
X153025345Y-68073077D01*
X152962529Y-67981680D01*
X152933614Y-67939608D01*
X152933613Y-67939607D01*
X152929312Y-67933349D01*
X152917514Y-67922837D01*
X152808392Y-67825612D01*
X152808388Y-67825610D01*
X152802721Y-67820560D01*
X152795656Y-67816819D01*
X152689572Y-67760651D01*
X152689515Y-67760621D01*
X165104919Y-67760621D01*
X165104937Y-67760874D01*
X165110851Y-67769616D01*
X165137676Y-67794024D01*
X165143303Y-67798581D01*
X165413682Y-67992868D01*
X165419812Y-67996758D01*
X165710722Y-68158676D01*
X165717242Y-68161828D01*
X166024844Y-68289241D01*
X166031695Y-68291627D01*
X166351886Y-68382836D01*
X166358975Y-68384420D01*
X166687538Y-68438225D01*
X166694744Y-68438982D01*
X167027318Y-68454666D01*
X167034567Y-68454590D01*
X167366729Y-68431946D01*
X167373938Y-68431035D01*
X167701301Y-68370362D01*
X167708331Y-68368635D01*
X168026554Y-68270736D01*
X168033365Y-68268203D01*
X168338206Y-68134387D01*
X168344681Y-68131088D01*
X168632136Y-67963113D01*
X168638174Y-67959102D01*
X168887402Y-67771978D01*
X168895856Y-67760651D01*
X168889112Y-67748322D01*
X167012812Y-65872022D01*
X166998868Y-65864408D01*
X166997035Y-65864539D01*
X166990420Y-65868790D01*
X165112533Y-67746677D01*
X165104919Y-67760621D01*
X152689515Y-67760621D01*
X152652881Y-67741224D01*
X152488441Y-67699919D01*
X152480843Y-67699879D01*
X152480841Y-67699879D01*
X152403668Y-67699475D01*
X152318895Y-67699031D01*
X152311508Y-67700805D01*
X152311504Y-67700805D01*
X152168162Y-67735220D01*
X152154032Y-67738612D01*
X152147288Y-67742093D01*
X152147285Y-67742094D01*
X152046673Y-67794024D01*
X152003369Y-67816375D01*
X151875604Y-67927831D01*
X151842750Y-67974577D01*
X151799906Y-68035539D01*
X151778113Y-68066547D01*
X151716524Y-68224513D01*
X151715532Y-68232046D01*
X151715532Y-68232047D01*
X151695681Y-68382836D01*
X151694394Y-68392611D01*
X151712999Y-68561135D01*
X151731666Y-68612145D01*
X151767193Y-68709225D01*
X151771266Y-68720356D01*
X151775502Y-68726659D01*
X151775502Y-68726660D01*
X151782296Y-68736770D01*
X151865830Y-68861083D01*
X151871442Y-68866190D01*
X151871445Y-68866193D01*
X151985612Y-68970077D01*
X151985616Y-68970080D01*
X151991233Y-68975191D01*
X151997906Y-68978814D01*
X151997910Y-68978817D01*
X152133558Y-69052467D01*
X152133560Y-69052468D01*
X152140235Y-69056092D01*
X152147584Y-69058020D01*
X152255473Y-69086324D01*
X152316289Y-69122958D01*
X152347644Y-69186655D01*
X152349500Y-69208200D01*
X152349500Y-72223500D01*
X152329498Y-72291621D01*
X152275842Y-72338114D01*
X152223500Y-72349500D01*
X152132248Y-72349500D01*
X152060339Y-72326965D01*
X152058387Y-72325608D01*
X152052721Y-72320560D01*
X152046015Y-72317009D01*
X152046013Y-72317008D01*
X151945066Y-72263560D01*
X151902881Y-72241224D01*
X151738441Y-72199919D01*
X151730843Y-72199879D01*
X151730841Y-72199879D01*
X151653668Y-72199475D01*
X151568895Y-72199031D01*
X151561508Y-72200805D01*
X151561504Y-72200805D01*
X151433688Y-72231492D01*
X151404032Y-72238612D01*
X151397288Y-72242093D01*
X151397285Y-72242094D01*
X151260117Y-72312892D01*
X151253369Y-72316375D01*
X151247647Y-72321367D01*
X151247645Y-72321368D01*
X151193675Y-72368449D01*
X151129193Y-72398157D01*
X151110846Y-72399500D01*
X149926500Y-72399500D01*
X149858379Y-72379498D01*
X149811886Y-72325842D01*
X149800500Y-72273500D01*
X149800500Y-69364993D01*
X149800611Y-69359717D01*
X149802850Y-69306291D01*
X149803210Y-69297706D01*
X149801248Y-69289341D01*
X149793273Y-69255338D01*
X149791110Y-69243667D01*
X149786372Y-69209081D01*
X149785206Y-69200568D01*
X149779235Y-69186770D01*
X149772201Y-69165501D01*
X149770730Y-69159228D01*
X149770729Y-69159226D01*
X149768768Y-69150864D01*
X149747805Y-69112734D01*
X149742583Y-69102073D01*
X149728716Y-69070027D01*
X149728715Y-69070026D01*
X149725305Y-69062145D01*
X149715842Y-69050459D01*
X149703351Y-69031871D01*
X149696106Y-69018692D01*
X149689103Y-69010578D01*
X149664567Y-68986042D01*
X149655742Y-68976241D01*
X149635794Y-68951608D01*
X149635793Y-68951607D01*
X149630386Y-68944930D01*
X149615055Y-68934034D01*
X149598949Y-68920424D01*
X149204766Y-68526241D01*
X148776376Y-68097852D01*
X148742351Y-68035539D01*
X148740387Y-68023913D01*
X148735276Y-67981680D01*
X148675345Y-67823077D01*
X148655377Y-67794024D01*
X148583614Y-67689608D01*
X148583613Y-67689607D01*
X148579312Y-67683349D01*
X148573641Y-67678296D01*
X148458392Y-67575612D01*
X148458388Y-67575610D01*
X148452721Y-67570560D01*
X148302881Y-67491224D01*
X148158862Y-67455048D01*
X148100464Y-67421940D01*
X147044119Y-66365595D01*
X147010093Y-66303283D01*
X147015158Y-66232468D01*
X147057705Y-66175632D01*
X147124225Y-66150821D01*
X147133214Y-66150500D01*
X147317853Y-66150500D01*
X147389079Y-66173231D01*
X147391233Y-66175191D01*
X147465734Y-66215642D01*
X147533558Y-66252467D01*
X147533560Y-66252468D01*
X147540235Y-66256092D01*
X147547584Y-66258020D01*
X147696883Y-66297188D01*
X147696885Y-66297188D01*
X147704233Y-66299116D01*
X147790609Y-66300473D01*
X147866161Y-66301660D01*
X147866164Y-66301660D01*
X147873760Y-66301779D01*
X147881165Y-66300083D01*
X147881166Y-66300083D01*
X147941586Y-66286245D01*
X148039029Y-66263928D01*
X148190498Y-66187747D01*
X148319423Y-66077634D01*
X148418361Y-65939947D01*
X148426237Y-65920356D01*
X148478766Y-65789687D01*
X148478767Y-65789685D01*
X148481601Y-65782634D01*
X148495929Y-65681960D01*
X148504909Y-65618862D01*
X148504909Y-65618859D01*
X148505490Y-65614778D01*
X148505645Y-65600000D01*
X148503840Y-65585080D01*
X148493882Y-65502797D01*
X148485276Y-65431680D01*
X148477391Y-65410812D01*
X164046554Y-65410812D01*
X164055270Y-65743643D01*
X164055876Y-65750859D01*
X164102790Y-66080491D01*
X164104219Y-66087580D01*
X164188708Y-66409633D01*
X164190948Y-66416528D01*
X164311890Y-66726727D01*
X164314905Y-66733314D01*
X164470705Y-67027570D01*
X164474451Y-67033755D01*
X164663036Y-67308148D01*
X164667481Y-67313877D01*
X164729853Y-67385376D01*
X164743025Y-67393780D01*
X164752880Y-67387910D01*
X166627978Y-65512812D01*
X166634356Y-65501132D01*
X167364408Y-65501132D01*
X167364539Y-65502965D01*
X167368790Y-65509580D01*
X169245090Y-67385880D01*
X169258444Y-67393172D01*
X169268416Y-67386118D01*
X169370003Y-67264621D01*
X169374313Y-67258818D01*
X169557117Y-66980525D01*
X169560731Y-66974263D01*
X169710337Y-66676808D01*
X169713209Y-66670170D01*
X169827630Y-66357500D01*
X169829726Y-66350559D01*
X169907450Y-66026814D01*
X169908734Y-66019675D01*
X169948832Y-65688325D01*
X169949256Y-65682755D01*
X169954911Y-65502797D01*
X169954838Y-65497204D01*
X169935625Y-65163981D01*
X169934793Y-65156792D01*
X169877549Y-64828796D01*
X169875894Y-64821741D01*
X169781334Y-64502515D01*
X169778876Y-64495686D01*
X169648250Y-64189440D01*
X169645033Y-64182957D01*
X169480062Y-63893732D01*
X169476130Y-63887677D01*
X169279013Y-63619336D01*
X169274399Y-63613758D01*
X169272786Y-63612023D01*
X169259136Y-63603907D01*
X169258529Y-63603928D01*
X169250050Y-63609160D01*
X167372022Y-65487188D01*
X167364408Y-65501132D01*
X166634356Y-65501132D01*
X166635592Y-65498868D01*
X166635461Y-65497035D01*
X166631210Y-65490420D01*
X164753688Y-63612898D01*
X164740895Y-63605912D01*
X164730142Y-63613775D01*
X164575742Y-63810689D01*
X164571610Y-63816634D01*
X164397647Y-64100516D01*
X164394217Y-64106912D01*
X164254042Y-64408894D01*
X164251371Y-64415639D01*
X164146830Y-64731744D01*
X164144953Y-64738748D01*
X164077436Y-65064775D01*
X164076379Y-65071936D01*
X164046782Y-65403560D01*
X164046554Y-65410812D01*
X148477391Y-65410812D01*
X148425345Y-65273077D01*
X148363991Y-65183807D01*
X148333614Y-65139608D01*
X148333613Y-65139607D01*
X148329312Y-65133349D01*
X148247595Y-65060541D01*
X148202721Y-65020560D01*
X148204505Y-65018558D01*
X148167941Y-64973130D01*
X148160393Y-64902536D01*
X148192210Y-64839068D01*
X148256249Y-64802161D01*
X148314029Y-64788928D01*
X148465498Y-64712747D01*
X148566292Y-64626660D01*
X148588651Y-64607564D01*
X148588652Y-64607563D01*
X148594423Y-64602634D01*
X148693361Y-64464947D01*
X148697928Y-64453586D01*
X148753766Y-64314687D01*
X148753767Y-64314685D01*
X148756601Y-64307634D01*
X148780490Y-64139778D01*
X148780645Y-64125000D01*
X148779730Y-64117434D01*
X148775814Y-64085080D01*
X148760276Y-63956680D01*
X148700345Y-63798077D01*
X148644627Y-63717007D01*
X148608614Y-63664608D01*
X148608613Y-63664607D01*
X148604312Y-63658349D01*
X148586068Y-63642094D01*
X148483392Y-63550612D01*
X148483388Y-63550610D01*
X148477721Y-63545560D01*
X148327881Y-63466224D01*
X148163441Y-63424919D01*
X148155843Y-63424879D01*
X148155841Y-63424879D01*
X148078668Y-63424475D01*
X147993895Y-63424031D01*
X147986508Y-63425805D01*
X147986504Y-63425805D01*
X147843162Y-63460220D01*
X147829032Y-63463612D01*
X147822288Y-63467093D01*
X147822285Y-63467094D01*
X147725581Y-63517007D01*
X147678369Y-63541375D01*
X147591018Y-63617576D01*
X147590017Y-63618449D01*
X147525535Y-63648157D01*
X147507188Y-63649500D01*
X145845428Y-63649500D01*
X145777307Y-63629498D01*
X145761609Y-63617576D01*
X145658392Y-63525613D01*
X145652721Y-63520560D01*
X145502881Y-63441224D01*
X145338441Y-63399919D01*
X145330843Y-63399879D01*
X145330841Y-63399879D01*
X145253668Y-63399475D01*
X145168895Y-63399031D01*
X145161508Y-63400805D01*
X145161504Y-63400805D01*
X145053356Y-63426770D01*
X145004032Y-63438612D01*
X144997288Y-63442093D01*
X144997285Y-63442094D01*
X144860117Y-63512892D01*
X144853369Y-63516375D01*
X144725604Y-63627831D01*
X144721237Y-63634045D01*
X144656883Y-63725612D01*
X144628113Y-63766547D01*
X144566524Y-63924513D01*
X144565532Y-63932046D01*
X144565532Y-63932047D01*
X144560131Y-63973077D01*
X144544394Y-64092611D01*
X144562999Y-64261135D01*
X144582630Y-64314778D01*
X144605906Y-64378382D01*
X144621266Y-64420356D01*
X144715830Y-64561083D01*
X144721442Y-64566190D01*
X144721445Y-64566193D01*
X144835612Y-64670077D01*
X144835616Y-64670080D01*
X144841233Y-64675191D01*
X144847906Y-64678814D01*
X144847910Y-64678817D01*
X144983558Y-64752467D01*
X144983560Y-64752468D01*
X144990235Y-64756092D01*
X144997584Y-64758020D01*
X145146883Y-64797188D01*
X145146885Y-64797188D01*
X145154233Y-64799116D01*
X145158835Y-64799188D01*
X145222446Y-64827726D01*
X145248956Y-64868376D01*
X145261464Y-64840988D01*
X145321190Y-64802604D01*
X145328559Y-64800680D01*
X145394769Y-64785516D01*
X145489029Y-64763928D01*
X145640498Y-64687747D01*
X145646270Y-64682818D01*
X145646272Y-64682816D01*
X145689245Y-64646113D01*
X145707305Y-64630689D01*
X145772094Y-64601658D01*
X145789135Y-64600500D01*
X147507927Y-64600500D01*
X147576048Y-64620502D01*
X147592726Y-64633306D01*
X147660612Y-64695077D01*
X147660616Y-64695080D01*
X147665814Y-64699810D01*
X147665815Y-64699811D01*
X147666232Y-64700191D01*
X147666169Y-64700261D01*
X147707900Y-64753220D01*
X147714717Y-64823888D01*
X147682246Y-64887024D01*
X147620387Y-64922681D01*
X147561416Y-64936839D01*
X147561414Y-64936840D01*
X147554032Y-64938612D01*
X147547288Y-64942093D01*
X147547285Y-64942094D01*
X147436577Y-64999235D01*
X147403369Y-65016375D01*
X147397645Y-65021368D01*
X147391364Y-65025637D01*
X147389938Y-65023539D01*
X147336522Y-65048155D01*
X147318163Y-65049500D01*
X145356688Y-65049500D01*
X145288567Y-65029498D01*
X145246956Y-64981476D01*
X145223719Y-65018171D01*
X145159337Y-65048095D01*
X145140572Y-65049500D01*
X144982248Y-65049500D01*
X144910339Y-65026965D01*
X144908387Y-65025608D01*
X144902721Y-65020560D01*
X144896015Y-65017009D01*
X144896013Y-65017008D01*
X144798963Y-64965623D01*
X144752881Y-64941224D01*
X144588441Y-64899919D01*
X144580843Y-64899879D01*
X144580841Y-64899879D01*
X144503668Y-64899475D01*
X144418895Y-64899031D01*
X144411508Y-64900805D01*
X144411504Y-64900805D01*
X144268162Y-64935220D01*
X144254032Y-64938612D01*
X144247288Y-64942093D01*
X144247285Y-64942094D01*
X144136577Y-64999235D01*
X144103369Y-65016375D01*
X144097647Y-65021367D01*
X144097645Y-65021368D01*
X144026069Y-65083808D01*
X143975604Y-65127831D01*
X143941398Y-65176502D01*
X143885438Y-65256125D01*
X143878113Y-65266547D01*
X143816524Y-65424513D01*
X143815532Y-65432046D01*
X143815532Y-65432047D01*
X143805541Y-65507942D01*
X143794394Y-65592611D01*
X143812999Y-65761135D01*
X143871266Y-65920356D01*
X143875502Y-65926659D01*
X143875502Y-65926660D01*
X143887919Y-65945138D01*
X143955096Y-66045108D01*
X143962414Y-66055999D01*
X143983806Y-66123696D01*
X143965202Y-66192212D01*
X143960922Y-66198721D01*
X143937205Y-66232468D01*
X143888576Y-66301660D01*
X143878113Y-66316547D01*
X143816524Y-66474513D01*
X143815532Y-66482046D01*
X143815532Y-66482047D01*
X143797872Y-66616193D01*
X143794394Y-66642611D01*
X143812999Y-66811135D01*
X143871266Y-66970356D01*
X143965830Y-67111083D01*
X143971442Y-67116190D01*
X143971445Y-67116193D01*
X144085612Y-67220077D01*
X144085616Y-67220080D01*
X144091233Y-67225191D01*
X144097906Y-67228814D01*
X144097910Y-67228817D01*
X144233558Y-67302467D01*
X144233560Y-67302468D01*
X144240235Y-67306092D01*
X144247584Y-67308020D01*
X144396883Y-67347188D01*
X144396885Y-67347188D01*
X144404233Y-67349116D01*
X144490609Y-67350473D01*
X144566161Y-67351660D01*
X144566164Y-67351660D01*
X144573760Y-67351779D01*
X144581165Y-67350083D01*
X144581166Y-67350083D01*
X144670264Y-67329677D01*
X144739029Y-67313928D01*
X144890498Y-67237747D01*
X144898763Y-67230688D01*
X144900948Y-67229709D01*
X144902602Y-67228610D01*
X144902785Y-67228886D01*
X144963553Y-67201658D01*
X144980593Y-67200500D01*
X146269785Y-67200500D01*
X146337906Y-67220502D01*
X146358875Y-67237400D01*
X147323072Y-68201596D01*
X147357096Y-68263907D01*
X147359215Y-68276862D01*
X147362999Y-68311135D01*
X147365608Y-68318266D01*
X147365609Y-68318268D01*
X147415496Y-68454590D01*
X147421266Y-68470356D01*
X147515830Y-68611083D01*
X147521442Y-68616190D01*
X147521445Y-68616193D01*
X147635612Y-68720077D01*
X147635616Y-68720080D01*
X147641233Y-68725191D01*
X147647906Y-68728814D01*
X147647910Y-68728817D01*
X147783558Y-68802467D01*
X147783560Y-68802468D01*
X147790235Y-68806092D01*
X147916973Y-68839341D01*
X147943411Y-68846277D01*
X148000532Y-68879057D01*
X148662595Y-69541119D01*
X148696620Y-69603432D01*
X148699500Y-69630215D01*
X148699500Y-72273500D01*
X148679498Y-72341621D01*
X148625842Y-72388114D01*
X148573500Y-72399500D01*
X145914993Y-72399500D01*
X145909717Y-72399389D01*
X145905310Y-72399204D01*
X145847706Y-72396790D01*
X145839341Y-72398752D01*
X145805338Y-72406727D01*
X145793667Y-72408890D01*
X145778771Y-72410931D01*
X145750568Y-72414794D01*
X145742684Y-72418206D01*
X145742683Y-72418206D01*
X145736770Y-72420765D01*
X145715501Y-72427799D01*
X145700864Y-72431232D01*
X145693339Y-72435369D01*
X145693336Y-72435370D01*
X145662732Y-72452195D01*
X145652087Y-72457411D01*
X145612145Y-72474695D01*
X145600459Y-72484158D01*
X145581875Y-72496645D01*
X145568692Y-72503893D01*
X145560578Y-72510897D01*
X145536042Y-72535433D01*
X145526241Y-72544258D01*
X145501608Y-72564206D01*
X145494930Y-72569614D01*
X145489957Y-72576612D01*
X145489952Y-72576617D01*
X145484032Y-72584948D01*
X145470421Y-72601054D01*
X144664264Y-73407211D01*
X144601952Y-73441237D01*
X144531137Y-73436172D01*
X144474301Y-73393625D01*
X144449490Y-73327105D01*
X144450426Y-73300364D01*
X144454909Y-73268864D01*
X144454910Y-73268856D01*
X144455490Y-73264778D01*
X144455645Y-73250000D01*
X144454329Y-73239121D01*
X144451004Y-73211653D01*
X144435276Y-73081680D01*
X144375345Y-72923077D01*
X144279312Y-72783349D01*
X144267679Y-72772984D01*
X144230125Y-72712735D01*
X144225500Y-72678910D01*
X144225500Y-72342373D01*
X144226739Y-72331277D01*
X144226141Y-72331229D01*
X144226861Y-72322283D01*
X144228842Y-72313527D01*
X144225742Y-72263559D01*
X144225500Y-72255758D01*
X144225500Y-72240855D01*
X144224158Y-72231486D01*
X144223128Y-72221427D01*
X144222888Y-72217548D01*
X144220408Y-72177583D01*
X144217359Y-72169138D01*
X144216068Y-72162902D01*
X144214135Y-72155151D01*
X144212354Y-72149062D01*
X144211081Y-72140171D01*
X144205660Y-72128249D01*
X144192892Y-72100164D01*
X144189080Y-72090799D01*
X144177209Y-72057917D01*
X144177207Y-72057914D01*
X144174159Y-72049470D01*
X144168864Y-72042223D01*
X144165871Y-72036593D01*
X144161868Y-72029743D01*
X144158423Y-72024356D01*
X144154706Y-72016180D01*
X144133333Y-71991375D01*
X144126019Y-71982887D01*
X144119734Y-71974971D01*
X144115298Y-71968899D01*
X144115292Y-71968892D01*
X144112423Y-71964965D01*
X144102382Y-71954924D01*
X144096024Y-71948077D01*
X144071657Y-71919798D01*
X144065796Y-71912996D01*
X144058261Y-71908112D01*
X144051499Y-71902213D01*
X144051569Y-71902133D01*
X144041206Y-71893748D01*
X144040979Y-71893521D01*
X144006953Y-71831209D01*
X144004987Y-71819563D01*
X143989686Y-71693124D01*
X143985276Y-71656680D01*
X143925345Y-71498077D01*
X143829312Y-71358349D01*
X143809681Y-71340858D01*
X143708392Y-71250612D01*
X143708388Y-71250610D01*
X143702721Y-71245560D01*
X143552881Y-71166224D01*
X143388441Y-71124919D01*
X143380843Y-71124879D01*
X143380841Y-71124879D01*
X143303668Y-71124475D01*
X143218895Y-71124031D01*
X143211508Y-71125805D01*
X143211504Y-71125805D01*
X143068162Y-71160220D01*
X143054032Y-71163612D01*
X143047288Y-71167093D01*
X143047285Y-71167094D01*
X142928066Y-71228628D01*
X142903369Y-71241375D01*
X142775604Y-71352831D01*
X142678113Y-71491547D01*
X142616524Y-71649513D01*
X142615532Y-71657046D01*
X142615532Y-71657047D01*
X142610783Y-71693124D01*
X142594394Y-71817611D01*
X142595227Y-71825160D01*
X142595148Y-71832756D01*
X142592866Y-71832732D01*
X142582430Y-71891529D01*
X142534200Y-71943628D01*
X142465459Y-71961382D01*
X142410639Y-71946805D01*
X142359590Y-71919776D01*
X142359588Y-71919775D01*
X142352881Y-71916224D01*
X142188441Y-71874919D01*
X142180843Y-71874879D01*
X142180841Y-71874879D01*
X142103668Y-71874475D01*
X142018895Y-71874031D01*
X142011508Y-71875805D01*
X142011504Y-71875805D01*
X141868162Y-71910220D01*
X141854032Y-71913612D01*
X141847288Y-71917093D01*
X141847285Y-71917094D01*
X141787257Y-71948077D01*
X141703369Y-71991375D01*
X141697647Y-71996367D01*
X141697645Y-71996368D01*
X141674934Y-72016180D01*
X141575604Y-72102831D01*
X141571237Y-72109045D01*
X141485180Y-72231492D01*
X141478113Y-72241547D01*
X141458745Y-72291224D01*
X141458715Y-72291300D01*
X141430417Y-72334625D01*
X140483868Y-73281174D01*
X140421556Y-73315200D01*
X140394116Y-73318077D01*
X140337645Y-73317781D01*
X140330258Y-73319555D01*
X140330254Y-73319555D01*
X140186912Y-73353970D01*
X140172782Y-73357362D01*
X140166038Y-73360843D01*
X140166035Y-73360844D01*
X140028867Y-73431642D01*
X140022119Y-73435125D01*
X140016397Y-73440117D01*
X140016395Y-73440118D01*
X139944819Y-73502558D01*
X139894354Y-73546581D01*
X139796863Y-73685297D01*
X139735274Y-73843263D01*
X139734282Y-73850796D01*
X139734282Y-73850797D01*
X139714407Y-74001770D01*
X139713144Y-74011361D01*
X139731749Y-74179885D01*
X139790016Y-74339106D01*
X139794252Y-74345409D01*
X139794252Y-74345410D01*
X139804278Y-74360330D01*
X139884580Y-74479833D01*
X139890192Y-74484940D01*
X139890195Y-74484943D01*
X140004362Y-74588827D01*
X140004366Y-74588830D01*
X140009983Y-74593941D01*
X140016656Y-74597564D01*
X140016660Y-74597567D01*
X140152308Y-74671217D01*
X140152310Y-74671218D01*
X140158985Y-74674842D01*
X140166334Y-74676770D01*
X140315633Y-74715938D01*
X140315635Y-74715938D01*
X140322983Y-74717866D01*
X140409359Y-74719223D01*
X140484911Y-74720410D01*
X140484914Y-74720410D01*
X140492510Y-74720529D01*
X140499915Y-74718833D01*
X140499916Y-74718833D01*
X140582146Y-74700000D01*
X140657779Y-74682678D01*
X140809248Y-74606497D01*
X140904123Y-74525466D01*
X140932401Y-74501314D01*
X140932402Y-74501313D01*
X140938173Y-74496384D01*
X141037111Y-74358697D01*
X141039944Y-74351650D01*
X141097516Y-74208437D01*
X141097517Y-74208435D01*
X141100351Y-74201384D01*
X141124240Y-74033528D01*
X141124283Y-74029401D01*
X141124343Y-74028616D01*
X141149452Y-73962208D01*
X141160885Y-73949073D01*
X141819710Y-73290249D01*
X141882022Y-73256224D01*
X141940777Y-73257469D01*
X141963495Y-73263429D01*
X141996883Y-73272188D01*
X141996885Y-73272188D01*
X142004233Y-73274116D01*
X142090609Y-73275473D01*
X142166161Y-73276660D01*
X142166164Y-73276660D01*
X142173760Y-73276779D01*
X142181165Y-73275083D01*
X142181166Y-73275083D01*
X142263509Y-73256224D01*
X142339029Y-73238928D01*
X142490498Y-73162747D01*
X142619423Y-73052634D01*
X142718361Y-72914947D01*
X142748630Y-72839651D01*
X142778766Y-72764687D01*
X142778767Y-72764685D01*
X142781601Y-72757634D01*
X142792805Y-72678910D01*
X142804909Y-72593862D01*
X142804909Y-72593859D01*
X142805490Y-72589778D01*
X142805645Y-72575000D01*
X142805267Y-72571876D01*
X142821441Y-72502980D01*
X142872460Y-72453607D01*
X142942072Y-72439655D01*
X142991146Y-72454439D01*
X143033558Y-72477467D01*
X143033560Y-72477468D01*
X143040235Y-72481092D01*
X143153845Y-72510897D01*
X143180474Y-72517883D01*
X143241289Y-72554517D01*
X143272644Y-72618214D01*
X143274500Y-72639759D01*
X143274500Y-72677887D01*
X143254498Y-72746008D01*
X143236294Y-72767087D01*
X143236411Y-72767192D01*
X143231327Y-72772838D01*
X143225604Y-72777831D01*
X143221237Y-72784045D01*
X143149526Y-72886080D01*
X143128113Y-72916547D01*
X143066524Y-73074513D01*
X143065532Y-73082046D01*
X143065532Y-73082047D01*
X143054366Y-73166866D01*
X143044394Y-73242611D01*
X143062999Y-73411135D01*
X143074015Y-73441237D01*
X143114840Y-73552795D01*
X143121266Y-73570356D01*
X143125502Y-73576659D01*
X143125502Y-73576660D01*
X143139896Y-73598080D01*
X143215830Y-73711083D01*
X143221442Y-73716190D01*
X143221445Y-73716193D01*
X143335612Y-73820077D01*
X143335616Y-73820080D01*
X143341233Y-73825191D01*
X143347906Y-73828814D01*
X143347910Y-73828817D01*
X143483558Y-73902467D01*
X143483560Y-73902468D01*
X143490235Y-73906092D01*
X143497584Y-73908020D01*
X143646883Y-73947188D01*
X143646885Y-73947188D01*
X143654233Y-73949116D01*
X143817599Y-73951682D01*
X143885396Y-73972751D01*
X143931041Y-74027130D01*
X143940039Y-74097554D01*
X143904714Y-74166761D01*
X143648693Y-74422782D01*
X143589013Y-74456205D01*
X143516839Y-74473533D01*
X143454032Y-74488612D01*
X143447288Y-74492093D01*
X143447285Y-74492094D01*
X143314455Y-74560653D01*
X143303369Y-74566375D01*
X143297647Y-74571367D01*
X143297645Y-74571368D01*
X143257982Y-74605968D01*
X143175604Y-74677831D01*
X143078113Y-74816547D01*
X143016524Y-74974513D01*
X143015532Y-74982046D01*
X143015532Y-74982047D01*
X142996205Y-75128856D01*
X142994394Y-75142611D01*
X143012999Y-75311135D01*
X143071266Y-75470356D01*
X143165830Y-75611083D01*
X143171442Y-75616190D01*
X143171445Y-75616193D01*
X143225542Y-75665417D01*
X143262464Y-75726057D01*
X143260741Y-75797033D01*
X143229837Y-75847705D01*
X142411414Y-76666128D01*
X142402688Y-76673100D01*
X142403077Y-76673558D01*
X142396243Y-76679374D01*
X142388650Y-76684165D01*
X142382708Y-76690894D01*
X142382707Y-76690894D01*
X142355494Y-76721707D01*
X142350148Y-76727394D01*
X142339627Y-76737915D01*
X142333952Y-76745487D01*
X142327576Y-76753318D01*
X142298487Y-76786255D01*
X142294671Y-76794382D01*
X142291166Y-76799719D01*
X142287070Y-76806537D01*
X142284013Y-76812120D01*
X142278628Y-76819305D01*
X142275477Y-76827710D01*
X142275476Y-76827712D01*
X142263202Y-76860454D01*
X142259275Y-76869774D01*
X142240601Y-76909548D01*
X142239220Y-76918418D01*
X142237361Y-76924498D01*
X142235335Y-76932219D01*
X142233969Y-76938432D01*
X142230816Y-76946843D01*
X142230151Y-76955798D01*
X142227559Y-76990676D01*
X142226405Y-77000722D01*
X142224500Y-77012956D01*
X142224500Y-77027162D01*
X142224154Y-77036499D01*
X142220723Y-77082674D01*
X142222596Y-77091450D01*
X142223207Y-77100407D01*
X142223101Y-77100414D01*
X142224500Y-77113667D01*
X142224500Y-81955500D01*
X142215893Y-82001269D01*
X142167842Y-82124513D01*
X142166850Y-82132046D01*
X142166850Y-82132047D01*
X142158046Y-82198922D01*
X142129324Y-82263849D01*
X142070059Y-82302941D01*
X141999067Y-82303786D01*
X141944029Y-82271571D01*
X140712405Y-81039947D01*
X140678379Y-80977635D01*
X140675500Y-80950852D01*
X140675500Y-76773177D01*
X140695502Y-76705056D01*
X140708752Y-76687890D01*
X140713646Y-76682568D01*
X140719423Y-76677634D01*
X140727644Y-76666194D01*
X140789451Y-76580180D01*
X140818361Y-76539947D01*
X140827789Y-76516495D01*
X140878766Y-76389687D01*
X140878767Y-76389685D01*
X140881601Y-76382634D01*
X140901221Y-76244776D01*
X140904909Y-76218862D01*
X140904909Y-76218859D01*
X140905490Y-76214778D01*
X140905645Y-76200000D01*
X140903840Y-76185080D01*
X140899217Y-76146880D01*
X140885276Y-76031680D01*
X140825345Y-75873077D01*
X140772004Y-75795466D01*
X140733614Y-75739608D01*
X140733613Y-75739607D01*
X140729312Y-75733349D01*
X140717514Y-75722837D01*
X140608392Y-75625612D01*
X140608388Y-75625610D01*
X140602721Y-75620560D01*
X140594474Y-75616193D01*
X140535080Y-75584746D01*
X140452881Y-75541224D01*
X140288441Y-75499919D01*
X140280843Y-75499879D01*
X140280841Y-75499879D01*
X140203668Y-75499475D01*
X140118895Y-75499031D01*
X140111508Y-75500805D01*
X140111504Y-75500805D01*
X139968162Y-75535220D01*
X139954032Y-75538612D01*
X139947288Y-75542093D01*
X139947285Y-75542094D01*
X139942089Y-75544776D01*
X139803369Y-75616375D01*
X139797647Y-75621367D01*
X139797645Y-75621368D01*
X139747151Y-75665417D01*
X139675604Y-75727831D01*
X139578113Y-75866547D01*
X139516524Y-76024513D01*
X139515532Y-76032046D01*
X139515532Y-76032047D01*
X139496284Y-76178256D01*
X139494394Y-76192611D01*
X131075500Y-76192611D01*
X131075500Y-75273177D01*
X131095502Y-75205056D01*
X131108752Y-75187890D01*
X131113646Y-75182568D01*
X131119423Y-75177634D01*
X131127644Y-75166194D01*
X131179618Y-75093864D01*
X131218361Y-75039947D01*
X131227910Y-75016194D01*
X131278766Y-74889687D01*
X131278767Y-74889685D01*
X131281601Y-74882634D01*
X131302949Y-74732634D01*
X131304909Y-74718862D01*
X131304909Y-74718859D01*
X131305490Y-74714778D01*
X131305645Y-74700000D01*
X131303840Y-74685080D01*
X131294266Y-74605968D01*
X131285276Y-74531680D01*
X131225345Y-74373077D01*
X131215462Y-74358697D01*
X131133614Y-74239608D01*
X131133613Y-74239607D01*
X131129312Y-74233349D01*
X131117514Y-74222837D01*
X131008392Y-74125612D01*
X131008388Y-74125610D01*
X131002721Y-74120560D01*
X130969736Y-74103095D01*
X130932872Y-74083577D01*
X130852881Y-74041224D01*
X130688441Y-73999919D01*
X130680843Y-73999879D01*
X130680841Y-73999879D01*
X130603668Y-73999475D01*
X130518895Y-73999031D01*
X130511508Y-74000805D01*
X130511504Y-74000805D01*
X130395667Y-74028616D01*
X130354032Y-74038612D01*
X130347288Y-74042093D01*
X130347285Y-74042094D01*
X130210117Y-74112892D01*
X130203369Y-74116375D01*
X130075604Y-74227831D01*
X130071237Y-74234045D01*
X129988583Y-74351650D01*
X129978113Y-74366547D01*
X129916524Y-74524513D01*
X129915532Y-74532046D01*
X129915532Y-74532047D01*
X129895479Y-74684373D01*
X129894394Y-74692611D01*
X129912999Y-74861135D01*
X129945754Y-74950642D01*
X129967873Y-75011083D01*
X129971266Y-75020356D01*
X129975502Y-75026659D01*
X129975502Y-75026660D01*
X129988574Y-75046113D01*
X130065830Y-75161083D01*
X130071443Y-75166190D01*
X130071446Y-75166194D01*
X130083301Y-75176981D01*
X130120223Y-75237622D01*
X130124500Y-75270173D01*
X130124500Y-77777887D01*
X130104498Y-77846008D01*
X130086294Y-77867087D01*
X130086411Y-77867192D01*
X130081327Y-77872838D01*
X130075604Y-77877831D01*
X130036035Y-77934132D01*
X129986944Y-78003982D01*
X129978113Y-78016547D01*
X129916524Y-78174513D01*
X129915532Y-78182046D01*
X129915532Y-78182047D01*
X129899142Y-78306547D01*
X129894394Y-78342611D01*
X128983316Y-78342611D01*
X128979800Y-78339095D01*
X128945774Y-78276783D01*
X128950839Y-78205968D01*
X128979800Y-78160905D01*
X129055297Y-78085408D01*
X129143127Y-77940383D01*
X129163850Y-77874258D01*
X129166097Y-77867087D01*
X129193829Y-77778594D01*
X129200500Y-77705993D01*
X129200499Y-76994008D01*
X129200234Y-76991116D01*
X129194822Y-76932219D01*
X129193829Y-76921406D01*
X129182445Y-76885080D01*
X129145399Y-76766866D01*
X129145398Y-76766864D01*
X129143127Y-76759617D01*
X129055297Y-76614592D01*
X128979800Y-76539095D01*
X128945774Y-76476783D01*
X128950839Y-76405968D01*
X128979800Y-76360905D01*
X129055297Y-76285408D01*
X129143127Y-76140383D01*
X129193829Y-75978594D01*
X129200500Y-75905993D01*
X129200499Y-75194008D01*
X129200234Y-75191116D01*
X129194440Y-75128060D01*
X129193829Y-75121406D01*
X129183242Y-75087622D01*
X129145399Y-74966866D01*
X129145398Y-74966864D01*
X129143127Y-74959617D01*
X129055297Y-74814592D01*
X128979800Y-74739095D01*
X128945774Y-74676783D01*
X128950839Y-74605968D01*
X128979800Y-74560905D01*
X129055297Y-74485408D01*
X129143127Y-74340383D01*
X129193829Y-74178594D01*
X129200500Y-74105993D01*
X129200499Y-73394008D01*
X129200234Y-73391116D01*
X129194440Y-73328060D01*
X129193829Y-73321406D01*
X129179312Y-73275083D01*
X129145399Y-73166866D01*
X129145398Y-73166864D01*
X129143127Y-73159617D01*
X129055297Y-73014592D01*
X128935408Y-72894703D01*
X128928907Y-72890766D01*
X128922931Y-72886080D01*
X128924149Y-72884527D01*
X128883122Y-72839651D01*
X128871151Y-72769671D01*
X128898915Y-72704328D01*
X128919602Y-72684310D01*
X128921378Y-72682948D01*
X128932952Y-72671374D01*
X129019072Y-72559139D01*
X129027259Y-72544958D01*
X129081396Y-72414261D01*
X129085634Y-72398442D01*
X129099462Y-72293410D01*
X129100000Y-72285201D01*
X129100000Y-72222115D01*
X129095525Y-72206876D01*
X129094135Y-72205671D01*
X129086452Y-72204000D01*
X126518116Y-72204000D01*
X126502877Y-72208475D01*
X126501672Y-72209865D01*
X126500001Y-72217548D01*
X126500001Y-72285199D01*
X126500539Y-72293411D01*
X126514366Y-72398444D01*
X126518604Y-72414259D01*
X126572741Y-72544959D01*
X126580930Y-72559142D01*
X126667046Y-72671372D01*
X126678629Y-72682955D01*
X126680403Y-72684316D01*
X126681520Y-72685846D01*
X126684468Y-72688794D01*
X126684008Y-72689254D01*
X126722269Y-72741655D01*
X126726490Y-72812526D01*
X126691724Y-72874428D01*
X126676922Y-72885892D01*
X126677069Y-72886080D01*
X126671093Y-72890766D01*
X126664592Y-72894703D01*
X126544703Y-73014592D01*
X126456873Y-73159617D01*
X126406171Y-73321406D01*
X126399500Y-73394007D01*
X126399501Y-74105992D01*
X126399764Y-74108850D01*
X126399764Y-74108859D01*
X126403015Y-74144243D01*
X126406171Y-74178594D01*
X126408170Y-74184972D01*
X126408170Y-74184973D01*
X126429389Y-74252681D01*
X126456873Y-74340383D01*
X126544703Y-74485408D01*
X126620200Y-74560905D01*
X126654226Y-74623217D01*
X126649161Y-74694032D01*
X126620200Y-74739095D01*
X126544703Y-74814592D01*
X126456873Y-74959617D01*
X126454602Y-74966864D01*
X126454601Y-74966866D01*
X126452205Y-74974513D01*
X126406171Y-75121406D01*
X126399500Y-75194007D01*
X126399501Y-75905992D01*
X126399764Y-75908850D01*
X126399764Y-75908859D01*
X126403015Y-75944243D01*
X126406171Y-75978594D01*
X126408170Y-75984972D01*
X126408170Y-75984973D01*
X126416112Y-76010314D01*
X126456873Y-76140383D01*
X126544703Y-76285408D01*
X126620200Y-76360905D01*
X126654226Y-76423217D01*
X126649161Y-76494032D01*
X126620200Y-76539095D01*
X126544703Y-76614592D01*
X126456873Y-76759617D01*
X126454602Y-76766864D01*
X126454601Y-76766866D01*
X126452318Y-76774151D01*
X126406171Y-76921406D01*
X126399500Y-76994007D01*
X126399501Y-77705992D01*
X126399764Y-77708850D01*
X126399764Y-77708859D01*
X126403015Y-77744243D01*
X126406171Y-77778594D01*
X126408170Y-77784972D01*
X126408170Y-77784973D01*
X126447102Y-77909203D01*
X126456873Y-77940383D01*
X126544703Y-78085408D01*
X126620200Y-78160905D01*
X126654226Y-78223217D01*
X126649161Y-78294032D01*
X126620200Y-78339095D01*
X126544703Y-78414592D01*
X126456873Y-78559617D01*
X126406171Y-78721406D01*
X126399500Y-78794007D01*
X126399501Y-79505992D01*
X126399764Y-79508850D01*
X126399764Y-79508859D01*
X126402597Y-79539687D01*
X126406171Y-79578594D01*
X126408170Y-79584972D01*
X126408170Y-79584973D01*
X126444396Y-79700568D01*
X126456873Y-79740383D01*
X126544703Y-79885408D01*
X126620200Y-79960905D01*
X126654226Y-80023217D01*
X126649161Y-80094032D01*
X126620200Y-80139095D01*
X126544703Y-80214592D01*
X126456873Y-80359617D01*
X126406171Y-80521406D01*
X126399500Y-80594007D01*
X126399501Y-81305992D01*
X126399764Y-81308850D01*
X126399764Y-81308859D01*
X126400774Y-81319849D01*
X126406171Y-81378594D01*
X126408170Y-81384972D01*
X126408170Y-81384973D01*
X126448442Y-81513479D01*
X126456873Y-81540383D01*
X126544703Y-81685408D01*
X126620200Y-81760905D01*
X126654226Y-81823217D01*
X126649161Y-81894032D01*
X126620200Y-81939095D01*
X126544703Y-82014592D01*
X126456873Y-82159617D01*
X126454602Y-82166864D01*
X126454601Y-82166866D01*
X126447456Y-82189667D01*
X126406171Y-82321406D01*
X126399500Y-82394007D01*
X126399501Y-83105992D01*
X126399764Y-83108850D01*
X126399764Y-83108859D01*
X126401928Y-83132408D01*
X126406171Y-83178594D01*
X126408170Y-83184972D01*
X126408170Y-83184973D01*
X126443622Y-83298098D01*
X126456873Y-83340383D01*
X126544703Y-83485408D01*
X126620200Y-83560905D01*
X126654226Y-83623217D01*
X126649161Y-83694032D01*
X126620200Y-83739095D01*
X126544703Y-83814592D01*
X126456873Y-83959617D01*
X126406171Y-84121406D01*
X126399500Y-84194007D01*
X126399501Y-84905992D01*
X126399764Y-84908850D01*
X126399764Y-84908859D01*
X126402773Y-84941612D01*
X126406171Y-84978594D01*
X126408170Y-84984972D01*
X126408170Y-84984973D01*
X126439873Y-85086135D01*
X126456873Y-85140383D01*
X126544703Y-85285408D01*
X126620200Y-85360905D01*
X126654226Y-85423217D01*
X126649161Y-85494032D01*
X126620200Y-85539095D01*
X126544703Y-85614592D01*
X126456873Y-85759617D01*
X126406171Y-85921406D01*
X126399500Y-85994007D01*
X125900500Y-85994007D01*
X125900500Y-71677885D01*
X126500000Y-71677885D01*
X126504475Y-71693124D01*
X126505865Y-71694329D01*
X126513548Y-71696000D01*
X127527885Y-71696000D01*
X127543124Y-71691525D01*
X127544329Y-71690135D01*
X127546000Y-71682452D01*
X127546000Y-71677885D01*
X128054000Y-71677885D01*
X128058475Y-71693124D01*
X128059865Y-71694329D01*
X128067548Y-71696000D01*
X129081884Y-71696000D01*
X129097123Y-71691525D01*
X129098328Y-71690135D01*
X129099999Y-71682452D01*
X129099999Y-71614801D01*
X129099461Y-71606589D01*
X129085634Y-71501556D01*
X129081396Y-71485741D01*
X129027259Y-71355041D01*
X129019070Y-71340858D01*
X128932954Y-71228628D01*
X128921374Y-71217048D01*
X128809139Y-71130928D01*
X128794958Y-71122741D01*
X128664261Y-71068604D01*
X128648442Y-71064366D01*
X128543410Y-71050538D01*
X128535201Y-71050000D01*
X128072115Y-71050000D01*
X128056876Y-71054475D01*
X128055671Y-71055865D01*
X128054000Y-71063548D01*
X128054000Y-71677885D01*
X127546000Y-71677885D01*
X127546000Y-71068116D01*
X127541525Y-71052877D01*
X127540135Y-71051672D01*
X127532452Y-71050001D01*
X127064801Y-71050001D01*
X127056589Y-71050539D01*
X126951556Y-71064366D01*
X126935741Y-71068604D01*
X126805041Y-71122741D01*
X126790858Y-71130930D01*
X126678628Y-71217046D01*
X126667048Y-71228626D01*
X126580928Y-71340861D01*
X126572741Y-71355042D01*
X126518604Y-71485739D01*
X126514366Y-71501558D01*
X126500538Y-71606590D01*
X126500000Y-71614799D01*
X126500000Y-71677885D01*
X125900500Y-71677885D01*
X125900500Y-67760621D01*
X134604919Y-67760621D01*
X134604937Y-67760874D01*
X134610851Y-67769616D01*
X134637676Y-67794024D01*
X134643303Y-67798581D01*
X134913682Y-67992868D01*
X134919812Y-67996758D01*
X135210722Y-68158676D01*
X135217242Y-68161828D01*
X135524844Y-68289241D01*
X135531695Y-68291627D01*
X135851886Y-68382836D01*
X135858975Y-68384420D01*
X136187538Y-68438225D01*
X136194744Y-68438982D01*
X136527318Y-68454666D01*
X136534567Y-68454590D01*
X136866729Y-68431946D01*
X136873938Y-68431035D01*
X137201301Y-68370362D01*
X137208331Y-68368635D01*
X137526554Y-68270736D01*
X137533365Y-68268203D01*
X137838206Y-68134387D01*
X137844681Y-68131088D01*
X138132136Y-67963113D01*
X138138174Y-67959102D01*
X138387402Y-67771978D01*
X138395856Y-67760651D01*
X138389112Y-67748322D01*
X136512812Y-65872022D01*
X136498868Y-65864408D01*
X136497035Y-65864539D01*
X136490420Y-65868790D01*
X134612533Y-67746677D01*
X134604919Y-67760621D01*
X125900500Y-67760621D01*
X125900500Y-66842363D01*
X125920502Y-66774242D01*
X125936313Y-66760541D01*
X125934840Y-66757903D01*
X126115930Y-66757903D01*
X126147396Y-66806865D01*
X126150680Y-66821024D01*
X126175134Y-66963340D01*
X126243654Y-67124373D01*
X126347383Y-67265324D01*
X126352961Y-67270063D01*
X126352964Y-67270066D01*
X126475176Y-67373893D01*
X126475180Y-67373896D01*
X126480755Y-67378632D01*
X126561572Y-67419899D01*
X126620362Y-67449919D01*
X126636616Y-67458219D01*
X126643721Y-67459958D01*
X126643725Y-67459959D01*
X126724858Y-67479811D01*
X126806606Y-67499815D01*
X126812206Y-67500162D01*
X126812210Y-67500163D01*
X126815709Y-67500380D01*
X126815718Y-67500380D01*
X126817648Y-67500500D01*
X126943822Y-67500500D01*
X127035369Y-67489827D01*
X127066556Y-67486191D01*
X127066558Y-67486191D01*
X127073828Y-67485343D01*
X127080705Y-67482847D01*
X127080708Y-67482846D01*
X127231452Y-67428128D01*
X127238331Y-67425631D01*
X127384685Y-67329677D01*
X127505040Y-67202628D01*
X127592939Y-67051298D01*
X127643667Y-66883807D01*
X127654503Y-66709138D01*
X127648479Y-66674077D01*
X127626106Y-66543875D01*
X127626105Y-66543873D01*
X127624866Y-66536660D01*
X127576329Y-66422591D01*
X127559211Y-66382360D01*
X127559211Y-66382359D01*
X127556346Y-66375627D01*
X127452617Y-66234676D01*
X127447039Y-66229937D01*
X127447036Y-66229934D01*
X127324824Y-66126107D01*
X127324820Y-66126104D01*
X127319245Y-66121368D01*
X127233598Y-66077634D01*
X127169900Y-66045108D01*
X127169898Y-66045107D01*
X127163384Y-66041781D01*
X127156279Y-66040042D01*
X127156275Y-66040041D01*
X127102218Y-66026814D01*
X127091993Y-66024312D01*
X127030579Y-65988692D01*
X126998171Y-65925524D01*
X127005060Y-65854862D01*
X127049057Y-65799142D01*
X127078949Y-65783484D01*
X127102025Y-65775108D01*
X127238331Y-65725631D01*
X127384685Y-65629677D01*
X127505040Y-65502628D01*
X127558371Y-65410812D01*
X133546554Y-65410812D01*
X133555270Y-65743643D01*
X133555876Y-65750859D01*
X133602790Y-66080491D01*
X133604219Y-66087580D01*
X133688708Y-66409633D01*
X133690948Y-66416528D01*
X133811890Y-66726727D01*
X133814905Y-66733314D01*
X133970705Y-67027570D01*
X133974451Y-67033755D01*
X134163036Y-67308148D01*
X134167481Y-67313877D01*
X134229853Y-67385376D01*
X134243025Y-67393780D01*
X134252880Y-67387910D01*
X136127978Y-65512812D01*
X136134356Y-65501132D01*
X136864408Y-65501132D01*
X136864539Y-65502965D01*
X136868790Y-65509580D01*
X138745090Y-67385880D01*
X138758444Y-67393172D01*
X138768416Y-67386118D01*
X138870003Y-67264621D01*
X138874313Y-67258818D01*
X139057117Y-66980525D01*
X139060731Y-66974263D01*
X139210337Y-66676808D01*
X139213209Y-66670170D01*
X139327630Y-66357500D01*
X139329726Y-66350559D01*
X139407450Y-66026814D01*
X139408734Y-66019675D01*
X139448832Y-65688325D01*
X139449256Y-65682755D01*
X139454911Y-65502797D01*
X139454838Y-65497204D01*
X139435625Y-65163981D01*
X139434793Y-65156792D01*
X139377549Y-64828796D01*
X139375894Y-64821741D01*
X139281334Y-64502515D01*
X139278876Y-64495686D01*
X139148250Y-64189440D01*
X139145033Y-64182957D01*
X138980062Y-63893732D01*
X138976130Y-63887677D01*
X138779013Y-63619336D01*
X138774399Y-63613758D01*
X138772786Y-63612023D01*
X138759136Y-63603907D01*
X138758529Y-63603928D01*
X138750050Y-63609160D01*
X136872022Y-65487188D01*
X136864408Y-65501132D01*
X136134356Y-65501132D01*
X136135592Y-65498868D01*
X136135461Y-65497035D01*
X136131210Y-65490420D01*
X134253688Y-63612898D01*
X134240895Y-63605912D01*
X134230142Y-63613775D01*
X134075742Y-63810689D01*
X134071610Y-63816634D01*
X133897647Y-64100516D01*
X133894217Y-64106912D01*
X133754042Y-64408894D01*
X133751371Y-64415639D01*
X133646830Y-64731744D01*
X133644953Y-64738748D01*
X133577436Y-65064775D01*
X133576379Y-65071936D01*
X133546782Y-65403560D01*
X133546554Y-65410812D01*
X127558371Y-65410812D01*
X127592939Y-65351298D01*
X127643667Y-65183807D01*
X127654503Y-65009138D01*
X127653239Y-65001779D01*
X127626106Y-64843875D01*
X127626105Y-64843873D01*
X127624866Y-64836660D01*
X127556346Y-64675627D01*
X127452617Y-64534676D01*
X127447039Y-64529937D01*
X127447036Y-64529934D01*
X127324824Y-64426107D01*
X127324820Y-64426104D01*
X127319245Y-64421368D01*
X127235062Y-64378382D01*
X127169900Y-64345108D01*
X127169898Y-64345107D01*
X127163384Y-64341781D01*
X127156279Y-64340042D01*
X127156275Y-64340041D01*
X127052659Y-64314687D01*
X126993394Y-64300185D01*
X126987794Y-64299838D01*
X126987790Y-64299837D01*
X126984291Y-64299620D01*
X126984282Y-64299620D01*
X126982352Y-64299500D01*
X126856178Y-64299500D01*
X126764631Y-64310173D01*
X126733444Y-64313809D01*
X126733442Y-64313809D01*
X126726172Y-64314657D01*
X126719295Y-64317153D01*
X126719292Y-64317154D01*
X126642281Y-64345108D01*
X126561669Y-64374369D01*
X126415315Y-64470323D01*
X126294960Y-64597372D01*
X126207061Y-64748702D01*
X126156333Y-64916193D01*
X126152801Y-64973130D01*
X126152258Y-64981879D01*
X126128077Y-65048630D01*
X126115930Y-65057903D01*
X126147396Y-65106865D01*
X126150680Y-65121024D01*
X126175134Y-65263340D01*
X126243654Y-65424373D01*
X126347383Y-65565324D01*
X126352961Y-65570063D01*
X126352964Y-65570066D01*
X126475176Y-65673893D01*
X126475180Y-65673896D01*
X126480755Y-65678632D01*
X126499738Y-65688325D01*
X126627543Y-65753586D01*
X126636616Y-65758219D01*
X126643721Y-65759958D01*
X126643725Y-65759959D01*
X126692326Y-65771851D01*
X126708007Y-65775688D01*
X126769421Y-65811308D01*
X126801829Y-65874476D01*
X126794940Y-65945138D01*
X126750943Y-66000858D01*
X126721051Y-66016516D01*
X126569656Y-66071470D01*
X126561669Y-66074369D01*
X126415315Y-66170323D01*
X126294960Y-66297372D01*
X126207061Y-66448702D01*
X126156333Y-66616193D01*
X126155880Y-66623498D01*
X126152258Y-66681879D01*
X126128077Y-66748630D01*
X126115930Y-66757903D01*
X125934840Y-66757903D01*
X125903638Y-66702021D01*
X125900500Y-66674077D01*
X125900500Y-65142363D01*
X125920502Y-65074242D01*
X125936313Y-65060541D01*
X125903638Y-65002021D01*
X125900500Y-64974077D01*
X125900500Y-64292611D01*
X129194394Y-64292611D01*
X129212999Y-64461135D01*
X129220867Y-64482634D01*
X129266585Y-64607564D01*
X129271266Y-64620356D01*
X129275502Y-64626659D01*
X129275502Y-64626660D01*
X129288574Y-64646113D01*
X129365830Y-64761083D01*
X129371442Y-64766190D01*
X129371445Y-64766193D01*
X129485612Y-64870077D01*
X129485616Y-64870080D01*
X129491233Y-64875191D01*
X129497906Y-64878814D01*
X129497910Y-64878817D01*
X129633558Y-64952467D01*
X129633560Y-64952468D01*
X129640235Y-64956092D01*
X129647584Y-64958020D01*
X129796883Y-64997188D01*
X129796885Y-64997188D01*
X129804233Y-64999116D01*
X129890609Y-65000473D01*
X129966161Y-65001660D01*
X129966164Y-65001660D01*
X129973760Y-65001779D01*
X129981165Y-65000083D01*
X129981166Y-65000083D01*
X130098850Y-64973130D01*
X130139029Y-64963928D01*
X130290498Y-64887747D01*
X130386575Y-64805689D01*
X130451365Y-64776658D01*
X130468406Y-64775500D01*
X131407427Y-64775500D01*
X131475548Y-64795502D01*
X131492226Y-64808306D01*
X131560112Y-64870077D01*
X131560116Y-64870080D01*
X131565733Y-64875191D01*
X131614686Y-64901770D01*
X131708058Y-64952467D01*
X131708060Y-64952468D01*
X131714735Y-64956092D01*
X131722084Y-64958020D01*
X131871383Y-64997188D01*
X131871385Y-64997188D01*
X131878733Y-64999116D01*
X131965109Y-65000473D01*
X132040661Y-65001660D01*
X132040664Y-65001660D01*
X132048260Y-65001779D01*
X132055665Y-65000083D01*
X132055666Y-65000083D01*
X132173350Y-64973130D01*
X132213529Y-64963928D01*
X132364998Y-64887747D01*
X132471028Y-64797188D01*
X132488151Y-64782564D01*
X132488152Y-64782563D01*
X132493923Y-64777634D01*
X132592861Y-64639947D01*
X132600737Y-64620356D01*
X132653266Y-64489687D01*
X132653267Y-64489685D01*
X132656101Y-64482634D01*
X132671509Y-64374369D01*
X132679409Y-64318862D01*
X132679409Y-64318859D01*
X132679990Y-64314778D01*
X132680145Y-64300000D01*
X132678340Y-64285080D01*
X132674528Y-64253586D01*
X132659776Y-64131680D01*
X132599845Y-63973077D01*
X132566468Y-63924513D01*
X132508114Y-63839608D01*
X132508113Y-63839607D01*
X132503812Y-63833349D01*
X132485052Y-63816634D01*
X132382892Y-63725612D01*
X132382888Y-63725610D01*
X132377221Y-63720560D01*
X132227381Y-63641224D01*
X132062941Y-63599919D01*
X132055343Y-63599879D01*
X132055341Y-63599879D01*
X131978168Y-63599475D01*
X131893395Y-63599031D01*
X131886008Y-63600805D01*
X131886004Y-63600805D01*
X131750453Y-63633349D01*
X131728532Y-63638612D01*
X131721788Y-63642093D01*
X131721785Y-63642094D01*
X131584617Y-63712892D01*
X131577869Y-63716375D01*
X131490518Y-63792576D01*
X131489517Y-63793449D01*
X131425035Y-63823157D01*
X131406688Y-63824500D01*
X130467369Y-63824500D01*
X130399248Y-63804498D01*
X130383550Y-63792576D01*
X130308392Y-63725613D01*
X130308391Y-63725612D01*
X130302721Y-63720560D01*
X130152881Y-63641224D01*
X129988441Y-63599919D01*
X129980843Y-63599879D01*
X129980841Y-63599879D01*
X129903668Y-63599475D01*
X129818895Y-63599031D01*
X129811508Y-63600805D01*
X129811504Y-63600805D01*
X129675953Y-63633349D01*
X129654032Y-63638612D01*
X129647288Y-63642093D01*
X129647285Y-63642094D01*
X129510117Y-63712892D01*
X129503369Y-63716375D01*
X129375604Y-63827831D01*
X129371237Y-63834045D01*
X129285048Y-63956680D01*
X129278113Y-63966547D01*
X129216524Y-64124513D01*
X129215532Y-64132046D01*
X129215532Y-64132047D01*
X129198538Y-64261135D01*
X129194394Y-64292611D01*
X125900500Y-64292611D01*
X125900500Y-63242311D01*
X134606394Y-63242311D01*
X134612789Y-63253579D01*
X136487188Y-65127978D01*
X136501132Y-65135592D01*
X136502965Y-65135461D01*
X136509580Y-65131210D01*
X138385933Y-63254857D01*
X138392784Y-63242311D01*
X165106394Y-63242311D01*
X165112789Y-63253579D01*
X166987188Y-65127978D01*
X167001132Y-65135592D01*
X167002965Y-65135461D01*
X167009580Y-65131210D01*
X168885933Y-63254857D01*
X168893325Y-63241320D01*
X168886538Y-63231620D01*
X168789350Y-63148612D01*
X168783578Y-63144231D01*
X168507221Y-62958527D01*
X168501000Y-62954847D01*
X168205126Y-62802136D01*
X168198515Y-62799193D01*
X167887063Y-62681505D01*
X167880144Y-62679337D01*
X167557234Y-62598227D01*
X167550109Y-62596868D01*
X167220023Y-62553411D01*
X167212781Y-62552880D01*
X166879899Y-62547650D01*
X166872637Y-62547954D01*
X166541344Y-62581022D01*
X166534196Y-62582154D01*
X166208886Y-62653083D01*
X166201909Y-62655032D01*
X165886908Y-62762880D01*
X165880215Y-62765611D01*
X165579693Y-62908953D01*
X165573338Y-62912447D01*
X165291310Y-63089363D01*
X165285382Y-63093576D01*
X165114864Y-63230186D01*
X165106394Y-63242311D01*
X138392784Y-63242311D01*
X138393325Y-63241320D01*
X138386538Y-63231620D01*
X138289350Y-63148612D01*
X138283578Y-63144231D01*
X138007221Y-62958527D01*
X138001000Y-62954847D01*
X137705126Y-62802136D01*
X137698515Y-62799193D01*
X137387063Y-62681505D01*
X137380144Y-62679337D01*
X137057234Y-62598227D01*
X137050109Y-62596868D01*
X136720023Y-62553411D01*
X136712781Y-62552880D01*
X136379899Y-62547650D01*
X136372637Y-62547954D01*
X136041344Y-62581022D01*
X136034196Y-62582154D01*
X135708886Y-62653083D01*
X135701909Y-62655032D01*
X135386908Y-62762880D01*
X135380215Y-62765611D01*
X135079693Y-62908953D01*
X135073338Y-62912447D01*
X134791310Y-63089363D01*
X134785382Y-63093576D01*
X134614864Y-63230186D01*
X134606394Y-63242311D01*
X125900500Y-63242311D01*
X125900500Y-60194007D01*
X126399500Y-60194007D01*
X126399501Y-60905992D01*
X126399764Y-60908850D01*
X126399764Y-60908859D01*
X126400520Y-60917087D01*
X126406171Y-60978594D01*
X126408170Y-60984972D01*
X126408170Y-60984973D01*
X126413400Y-61001660D01*
X126456873Y-61140383D01*
X126544703Y-61285408D01*
X126664592Y-61405297D01*
X126809617Y-61493127D01*
X126816864Y-61495398D01*
X126816866Y-61495399D01*
X126882106Y-61515844D01*
X126971406Y-61543829D01*
X127044007Y-61550500D01*
X127046905Y-61550500D01*
X127801961Y-61550499D01*
X128555992Y-61550499D01*
X128558850Y-61550236D01*
X128558859Y-61550236D01*
X128594243Y-61546985D01*
X128628594Y-61543829D01*
X128634979Y-61541828D01*
X128783134Y-61495399D01*
X128783136Y-61495398D01*
X128790383Y-61493127D01*
X128935408Y-61405297D01*
X128948094Y-61392611D01*
X129894394Y-61392611D01*
X129912999Y-61561135D01*
X129971266Y-61720356D01*
X129975502Y-61726659D01*
X129975502Y-61726660D01*
X129988574Y-61746113D01*
X130065830Y-61861083D01*
X130071442Y-61866190D01*
X130071445Y-61866193D01*
X130185612Y-61970077D01*
X130185616Y-61970080D01*
X130191233Y-61975191D01*
X130197906Y-61978814D01*
X130197910Y-61978817D01*
X130333558Y-62052467D01*
X130333560Y-62052468D01*
X130340235Y-62056092D01*
X130347584Y-62058020D01*
X130496883Y-62097188D01*
X130496885Y-62097188D01*
X130504233Y-62099116D01*
X130590609Y-62100473D01*
X130666161Y-62101660D01*
X130666164Y-62101660D01*
X130673760Y-62101779D01*
X130681165Y-62100083D01*
X130681166Y-62100083D01*
X130741586Y-62086245D01*
X130839029Y-62063928D01*
X130990498Y-61987747D01*
X131119423Y-61877634D01*
X131218361Y-61739947D01*
X131226237Y-61720356D01*
X131278766Y-61589687D01*
X131278767Y-61589685D01*
X131281601Y-61582634D01*
X131294016Y-61495399D01*
X131304909Y-61418862D01*
X131304909Y-61418859D01*
X131305490Y-61414778D01*
X131305562Y-61407932D01*
X131305602Y-61404135D01*
X131305602Y-61404129D01*
X131305645Y-61400000D01*
X131303840Y-61385080D01*
X131286188Y-61239220D01*
X131285276Y-61231680D01*
X131225345Y-61073077D01*
X131175177Y-61000083D01*
X131133614Y-60939608D01*
X131133613Y-60939607D01*
X131129312Y-60933349D01*
X131117679Y-60922984D01*
X131080125Y-60862735D01*
X131075500Y-60828910D01*
X131075500Y-60292611D01*
X137094394Y-60292611D01*
X137112999Y-60461135D01*
X137171266Y-60620356D01*
X137175502Y-60626659D01*
X137175502Y-60626660D01*
X137188574Y-60646113D01*
X137265830Y-60761083D01*
X137271442Y-60766190D01*
X137271445Y-60766193D01*
X137385612Y-60870077D01*
X137385616Y-60870080D01*
X137391233Y-60875191D01*
X137397906Y-60878814D01*
X137397910Y-60878817D01*
X137533558Y-60952467D01*
X137533560Y-60952468D01*
X137540235Y-60956092D01*
X137547584Y-60958020D01*
X137696883Y-60997188D01*
X137696885Y-60997188D01*
X137704233Y-60999116D01*
X137790609Y-61000473D01*
X137866161Y-61001660D01*
X137866164Y-61001660D01*
X137873760Y-61001779D01*
X137881165Y-61000083D01*
X137881166Y-61000083D01*
X137947140Y-60984973D01*
X138039029Y-60963928D01*
X138190498Y-60887747D01*
X138319423Y-60777634D01*
X138418361Y-60639947D01*
X138426237Y-60620356D01*
X138478766Y-60489687D01*
X138478767Y-60489685D01*
X138481601Y-60482634D01*
X138505490Y-60314778D01*
X138505645Y-60300000D01*
X138503840Y-60285080D01*
X138493167Y-60196891D01*
X138485276Y-60131680D01*
X138425345Y-59973077D01*
X138329312Y-59833349D01*
X138317679Y-59822984D01*
X138280125Y-59762735D01*
X138275500Y-59728910D01*
X138275500Y-58773177D01*
X138295502Y-58705056D01*
X138308752Y-58687890D01*
X138313646Y-58682568D01*
X138319423Y-58677634D01*
X138327644Y-58666194D01*
X138413930Y-58546113D01*
X138418361Y-58539947D01*
X138426237Y-58520356D01*
X138478766Y-58389687D01*
X138478767Y-58389685D01*
X138481601Y-58382634D01*
X138505490Y-58214778D01*
X138505645Y-58200000D01*
X138503840Y-58185080D01*
X138486188Y-58039220D01*
X138485276Y-58031680D01*
X138425345Y-57873077D01*
X138340413Y-57749501D01*
X138333614Y-57739608D01*
X138333613Y-57739607D01*
X138329312Y-57733349D01*
X138296740Y-57704328D01*
X138208392Y-57625612D01*
X138208388Y-57625610D01*
X138202721Y-57620560D01*
X138052881Y-57541224D01*
X137888441Y-57499919D01*
X137880843Y-57499879D01*
X137880841Y-57499879D01*
X137803668Y-57499475D01*
X137718895Y-57499031D01*
X137711508Y-57500805D01*
X137711504Y-57500805D01*
X137568162Y-57535220D01*
X137554032Y-57538612D01*
X137547288Y-57542093D01*
X137547285Y-57542094D01*
X137410117Y-57612892D01*
X137403369Y-57616375D01*
X137275604Y-57727831D01*
X137234475Y-57786351D01*
X137216080Y-57812526D01*
X137178113Y-57866547D01*
X137116524Y-58024513D01*
X137115532Y-58032046D01*
X137115532Y-58032047D01*
X137098738Y-58159617D01*
X137094394Y-58192611D01*
X137112999Y-58361135D01*
X137171266Y-58520356D01*
X137175502Y-58526659D01*
X137175502Y-58526660D01*
X137188574Y-58546113D01*
X137265830Y-58661083D01*
X137271443Y-58666190D01*
X137271446Y-58666194D01*
X137283301Y-58676981D01*
X137320223Y-58737622D01*
X137324500Y-58770173D01*
X137324500Y-59727887D01*
X137304498Y-59796008D01*
X137286294Y-59817087D01*
X137286411Y-59817192D01*
X137281327Y-59822838D01*
X137275604Y-59827831D01*
X137271237Y-59834045D01*
X137187550Y-59953120D01*
X137178113Y-59966547D01*
X137116524Y-60124513D01*
X137115532Y-60132046D01*
X137115532Y-60132047D01*
X137106994Y-60196905D01*
X137094394Y-60292611D01*
X131075500Y-60292611D01*
X131075500Y-56923177D01*
X131095502Y-56855056D01*
X131108752Y-56837890D01*
X131113646Y-56832568D01*
X131119423Y-56827634D01*
X131127644Y-56816194D01*
X131213930Y-56696113D01*
X131218361Y-56689947D01*
X131226237Y-56670356D01*
X131278766Y-56539687D01*
X131278767Y-56539685D01*
X131281601Y-56532634D01*
X131305490Y-56364778D01*
X131305645Y-56350000D01*
X131303840Y-56335080D01*
X131289556Y-56217052D01*
X131285276Y-56181680D01*
X131225345Y-56023077D01*
X131129312Y-55883349D01*
X131117514Y-55872837D01*
X131008392Y-55775612D01*
X131008388Y-55775610D01*
X131002721Y-55770560D01*
X130945727Y-55740383D01*
X130932035Y-55733134D01*
X130852881Y-55691224D01*
X130688441Y-55649919D01*
X130680843Y-55649879D01*
X130680841Y-55649879D01*
X130603668Y-55649475D01*
X130518895Y-55649031D01*
X130511508Y-55650805D01*
X130511504Y-55650805D01*
X130368162Y-55685220D01*
X130354032Y-55688612D01*
X130347288Y-55692093D01*
X130347285Y-55692094D01*
X130241140Y-55746880D01*
X130203369Y-55766375D01*
X130075604Y-55877831D01*
X130071237Y-55884045D01*
X129986020Y-56005297D01*
X129978113Y-56016547D01*
X129916524Y-56174513D01*
X129915532Y-56182046D01*
X129915532Y-56182047D01*
X129910925Y-56217045D01*
X129894394Y-56342611D01*
X129912999Y-56511135D01*
X129971266Y-56670356D01*
X129975502Y-56676659D01*
X129975502Y-56676660D01*
X129984557Y-56690135D01*
X130065830Y-56811083D01*
X130071443Y-56816190D01*
X130071446Y-56816194D01*
X130083301Y-56826981D01*
X130120223Y-56887622D01*
X130124500Y-56920173D01*
X130124500Y-60827887D01*
X130104498Y-60896008D01*
X130086294Y-60917087D01*
X130086411Y-60917192D01*
X130081327Y-60922838D01*
X130075604Y-60927831D01*
X130044610Y-60971931D01*
X130024825Y-61000083D01*
X129978113Y-61066547D01*
X129916524Y-61224513D01*
X129894394Y-61392611D01*
X128948094Y-61392611D01*
X129055297Y-61285408D01*
X129143127Y-61140383D01*
X129193829Y-60978594D01*
X129200500Y-60905993D01*
X129200499Y-60194008D01*
X129200234Y-60191116D01*
X129196985Y-60155757D01*
X129193829Y-60121406D01*
X129143127Y-59959617D01*
X129055297Y-59814592D01*
X128979800Y-59739095D01*
X128945774Y-59676783D01*
X128950839Y-59605968D01*
X128979800Y-59560905D01*
X129055297Y-59485408D01*
X129143127Y-59340383D01*
X129193829Y-59178594D01*
X129200500Y-59105993D01*
X129200499Y-58394008D01*
X129200234Y-58391116D01*
X129194440Y-58328060D01*
X129193829Y-58321406D01*
X129191828Y-58315022D01*
X129145399Y-58166866D01*
X129145398Y-58166864D01*
X129143127Y-58159617D01*
X129055297Y-58014592D01*
X128935408Y-57894703D01*
X128928907Y-57890766D01*
X128922931Y-57886080D01*
X128924149Y-57884527D01*
X128883122Y-57839651D01*
X128871151Y-57769671D01*
X128898915Y-57704328D01*
X128919602Y-57684310D01*
X128921378Y-57682948D01*
X128932952Y-57671374D01*
X129019072Y-57559139D01*
X129027259Y-57544958D01*
X129081396Y-57414261D01*
X129085634Y-57398442D01*
X129099462Y-57293410D01*
X129100000Y-57285201D01*
X129100000Y-57222115D01*
X129095525Y-57206876D01*
X129094135Y-57205671D01*
X129086452Y-57204000D01*
X126518116Y-57204000D01*
X126502877Y-57208475D01*
X126501672Y-57209865D01*
X126500001Y-57217548D01*
X126500001Y-57285199D01*
X126500539Y-57293411D01*
X126514366Y-57398444D01*
X126518604Y-57414259D01*
X126572741Y-57544959D01*
X126580930Y-57559142D01*
X126667046Y-57671372D01*
X126678629Y-57682955D01*
X126680403Y-57684316D01*
X126681520Y-57685846D01*
X126684468Y-57688794D01*
X126684008Y-57689254D01*
X126722269Y-57741655D01*
X126726490Y-57812526D01*
X126691724Y-57874428D01*
X126676922Y-57885892D01*
X126677069Y-57886080D01*
X126671093Y-57890766D01*
X126664592Y-57894703D01*
X126544703Y-58014592D01*
X126456873Y-58159617D01*
X126454602Y-58166864D01*
X126454601Y-58166866D01*
X126444167Y-58200161D01*
X126406171Y-58321406D01*
X126399500Y-58394007D01*
X126399501Y-59105992D01*
X126399764Y-59108850D01*
X126399764Y-59108859D01*
X126403015Y-59144243D01*
X126406171Y-59178594D01*
X126456873Y-59340383D01*
X126544703Y-59485408D01*
X126620200Y-59560905D01*
X126654226Y-59623217D01*
X126649161Y-59694032D01*
X126620200Y-59739095D01*
X126544703Y-59814592D01*
X126456873Y-59959617D01*
X126406171Y-60121406D01*
X126399500Y-60194007D01*
X125900500Y-60194007D01*
X125900500Y-54794007D01*
X126399500Y-54794007D01*
X126399501Y-55505992D01*
X126399764Y-55508850D01*
X126399764Y-55508859D01*
X126403015Y-55544243D01*
X126406171Y-55578594D01*
X126408170Y-55584972D01*
X126408170Y-55584973D01*
X126442581Y-55694776D01*
X126456873Y-55740383D01*
X126544703Y-55885408D01*
X126664592Y-56005297D01*
X126671093Y-56009234D01*
X126677069Y-56013920D01*
X126675851Y-56015473D01*
X126716878Y-56060349D01*
X126728849Y-56130329D01*
X126701085Y-56195672D01*
X126680398Y-56215690D01*
X126678622Y-56217052D01*
X126667048Y-56228626D01*
X126580928Y-56340861D01*
X126572741Y-56355042D01*
X126518604Y-56485739D01*
X126514366Y-56501558D01*
X126500538Y-56606590D01*
X126500000Y-56614799D01*
X126500000Y-56677885D01*
X126504475Y-56693124D01*
X126505865Y-56694329D01*
X126513548Y-56696000D01*
X129081884Y-56696000D01*
X129097123Y-56691525D01*
X129098328Y-56690135D01*
X129099999Y-56682452D01*
X129099999Y-56614801D01*
X129099461Y-56606589D01*
X129085634Y-56501556D01*
X129081396Y-56485741D01*
X129027259Y-56355041D01*
X129019070Y-56340858D01*
X128932954Y-56228628D01*
X128921371Y-56217045D01*
X128919597Y-56215684D01*
X128918480Y-56214154D01*
X128915532Y-56211206D01*
X128915992Y-56210746D01*
X128877731Y-56158345D01*
X128873510Y-56087474D01*
X128908276Y-56025572D01*
X128923078Y-56014108D01*
X128922931Y-56013920D01*
X128928907Y-56009234D01*
X128935408Y-56005297D01*
X129055297Y-55885408D01*
X129143127Y-55740383D01*
X129157420Y-55694776D01*
X129191828Y-55584978D01*
X129193829Y-55578594D01*
X129200500Y-55505993D01*
X129200499Y-54794008D01*
X129200234Y-54791116D01*
X129194440Y-54728060D01*
X129193829Y-54721406D01*
X129143127Y-54559617D01*
X129055297Y-54414592D01*
X129035982Y-54395277D01*
X139193500Y-54395277D01*
X139194872Y-54401729D01*
X139194872Y-54401734D01*
X139198987Y-54421093D01*
X139233119Y-54581667D01*
X139235804Y-54587697D01*
X139235804Y-54587698D01*
X139292495Y-54715027D01*
X139310624Y-54755746D01*
X139314504Y-54761087D01*
X139314505Y-54761088D01*
X139418746Y-54904563D01*
X139422629Y-54909908D01*
X139564238Y-55037413D01*
X139729262Y-55132690D01*
X139910490Y-55191575D01*
X139917051Y-55192265D01*
X139917053Y-55192265D01*
X139970170Y-55197848D01*
X140052494Y-55206500D01*
X140147506Y-55206500D01*
X140229830Y-55197848D01*
X140282947Y-55192265D01*
X140282949Y-55192265D01*
X140289510Y-55191575D01*
X140470738Y-55132690D01*
X140635762Y-55037413D01*
X140777371Y-54909908D01*
X140889376Y-54755747D01*
X140966881Y-54581667D01*
X141001013Y-54421093D01*
X141005128Y-54401734D01*
X141005128Y-54401729D01*
X141006500Y-54395277D01*
X174293500Y-54395277D01*
X174294872Y-54401729D01*
X174294872Y-54401734D01*
X174298987Y-54421093D01*
X174333119Y-54581667D01*
X174335804Y-54587697D01*
X174335804Y-54587698D01*
X174392495Y-54715027D01*
X174410624Y-54755746D01*
X174414504Y-54761087D01*
X174414505Y-54761088D01*
X174518746Y-54904563D01*
X174522629Y-54909908D01*
X174664238Y-55037413D01*
X174829262Y-55132690D01*
X175010490Y-55191575D01*
X175017051Y-55192265D01*
X175017053Y-55192265D01*
X175070170Y-55197848D01*
X175152494Y-55206500D01*
X175247506Y-55206500D01*
X175329830Y-55197848D01*
X175382947Y-55192265D01*
X175382949Y-55192265D01*
X175389510Y-55191575D01*
X175570738Y-55132690D01*
X175735762Y-55037413D01*
X175877371Y-54909908D01*
X175989376Y-54755747D01*
X176066881Y-54581667D01*
X176101013Y-54421093D01*
X176105128Y-54401734D01*
X176105128Y-54401729D01*
X176106500Y-54395277D01*
X176106500Y-54204723D01*
X176066881Y-54018333D01*
X176035068Y-53946880D01*
X175992061Y-53850284D01*
X175992060Y-53850282D01*
X175989376Y-53844254D01*
X175946306Y-53784973D01*
X175881254Y-53695436D01*
X175881252Y-53695434D01*
X175877371Y-53690092D01*
X175735762Y-53562587D01*
X175570738Y-53467310D01*
X175389510Y-53408425D01*
X175382949Y-53407735D01*
X175382947Y-53407735D01*
X175329830Y-53402152D01*
X175247506Y-53393500D01*
X175152494Y-53393500D01*
X175070170Y-53402152D01*
X175017053Y-53407735D01*
X175017051Y-53407735D01*
X175010490Y-53408425D01*
X174829262Y-53467310D01*
X174664238Y-53562587D01*
X174522629Y-53690092D01*
X174410624Y-53844253D01*
X174333119Y-54018333D01*
X174293500Y-54204723D01*
X174293500Y-54395277D01*
X141006500Y-54395277D01*
X141006500Y-54204723D01*
X140966881Y-54018333D01*
X140935068Y-53946880D01*
X140892061Y-53850284D01*
X140892060Y-53850282D01*
X140889376Y-53844254D01*
X140846306Y-53784973D01*
X140781254Y-53695436D01*
X140781252Y-53695434D01*
X140777371Y-53690092D01*
X140635762Y-53562587D01*
X140470738Y-53467310D01*
X140289510Y-53408425D01*
X140282949Y-53407735D01*
X140282947Y-53407735D01*
X140229830Y-53402152D01*
X140147506Y-53393500D01*
X140052494Y-53393500D01*
X139970170Y-53402152D01*
X139917053Y-53407735D01*
X139917051Y-53407735D01*
X139910490Y-53408425D01*
X139729262Y-53467310D01*
X139564238Y-53562587D01*
X139422629Y-53690092D01*
X139310624Y-53844253D01*
X139233119Y-54018333D01*
X139193500Y-54204723D01*
X139193500Y-54395277D01*
X129035982Y-54395277D01*
X128979800Y-54339095D01*
X128945774Y-54276783D01*
X128950839Y-54205968D01*
X128979800Y-54160905D01*
X129055297Y-54085408D01*
X129143127Y-53940383D01*
X129193829Y-53778594D01*
X129200500Y-53705993D01*
X129200499Y-52994008D01*
X129200234Y-52991116D01*
X129194440Y-52928060D01*
X129193829Y-52921406D01*
X129143127Y-52759617D01*
X129055297Y-52614592D01*
X128935408Y-52494703D01*
X128790383Y-52406873D01*
X128783136Y-52404602D01*
X128783134Y-52404601D01*
X128717894Y-52384156D01*
X128628594Y-52356171D01*
X128555993Y-52349500D01*
X128553095Y-52349500D01*
X127798039Y-52349501D01*
X127044008Y-52349501D01*
X127041150Y-52349764D01*
X127041141Y-52349764D01*
X127005757Y-52353015D01*
X126971406Y-52356171D01*
X126965028Y-52358170D01*
X126965027Y-52358170D01*
X126816866Y-52404601D01*
X126816864Y-52404602D01*
X126809617Y-52406873D01*
X126664592Y-52494703D01*
X126544703Y-52614592D01*
X126456873Y-52759617D01*
X126406171Y-52921406D01*
X126399500Y-52994007D01*
X126399501Y-53705992D01*
X126399764Y-53708850D01*
X126399764Y-53708859D01*
X126403015Y-53744243D01*
X126406171Y-53778594D01*
X126456873Y-53940383D01*
X126544703Y-54085408D01*
X126620200Y-54160905D01*
X126654226Y-54223217D01*
X126649161Y-54294032D01*
X126620200Y-54339095D01*
X126544703Y-54414592D01*
X126456873Y-54559617D01*
X126406171Y-54721406D01*
X126399500Y-54794007D01*
X125900500Y-54794007D01*
X125900500Y-52541436D01*
X125902051Y-52521726D01*
X125903941Y-52509793D01*
X125905492Y-52500000D01*
X125903941Y-52490207D01*
X125903941Y-52483850D01*
X125903084Y-52463869D01*
X125916138Y-52281358D01*
X125918696Y-52263564D01*
X125963375Y-52058176D01*
X125968440Y-52040926D01*
X126041896Y-51843985D01*
X126049364Y-51827633D01*
X126150097Y-51643153D01*
X126159817Y-51628029D01*
X126285781Y-51459761D01*
X126297554Y-51446175D01*
X126446175Y-51297554D01*
X126459761Y-51285781D01*
X126628029Y-51159817D01*
X126643153Y-51150097D01*
X126827633Y-51049364D01*
X126843985Y-51041896D01*
X127040926Y-50968440D01*
X127058174Y-50963376D01*
X127263564Y-50918696D01*
X127281358Y-50916138D01*
X127301534Y-50914695D01*
X127463869Y-50903084D01*
X127483850Y-50903941D01*
X127490207Y-50903941D01*
X127500000Y-50905492D01*
X127521726Y-50902051D01*
X127541436Y-50900500D01*
X175958564Y-50900500D01*
X175978274Y-50902051D01*
G37*
%TD.AperFunction*%
%TD*%
M02*
