M48
; DRILL file {KiCad (6.0.10-0)} date 2023 January 05, Thursday 11:48:23
; FORMAT={-:-/ absolute / metric / decimal}
; #@! TF.CreationDate,2023-01-05T11:48:23+01:00
; #@! TF.GenerationSoftware,Kicad,Pcbnew,(6.0.10-0)
; #@! TF.FileFunction,MixedPlating,1,2
FMAT,2
METRIC
; #@! TA.AperFunction,Plated,PTH,ViaDrill
T1C0.300
; #@! TA.AperFunction,Plated,PTH,ViaDrill
T2C0.400
; #@! TA.AperFunction,Plated,PTH,ComponentDrill
T3C0.400
; #@! TA.AperFunction,Plated,PTH,ComponentDrill
T4C0.600
; #@! TA.AperFunction,Plated,PTH,ComponentDrill
T5C0.650
; #@! TA.AperFunction,Plated,PTH,ComponentDrill
T6C4.500
; #@! TA.AperFunction,NonPlated,NPTH,ComponentDrill
T7C0.650
; #@! TA.AperFunction,NonPlated,NPTH,ComponentDrill
T8C0.700
; #@! TA.AperFunction,NonPlated,NPTH,ComponentDrill
T9C1.152
%
G90
G05
T1
X126.59Y-62.15
X126.59Y-69.77
X126.59Y-100.25
X129.13Y-51.99
X129.13Y-62.15
X129.13Y-100.25
X129.9Y-64.3
X130.6Y-56.35
X130.6Y-61.4
X130.6Y-74.7
X130.6Y-78.35
X131.306Y-83.6
X131.35Y-88.5
X131.67Y-51.99
X131.67Y-59.61
X131.67Y-79.93
X131.67Y-90.09
X131.67Y-92.63
X131.67Y-97.71
X131.975Y-64.3
X132.0Y-55.2
X133.3Y-54.5
X133.8Y-78.45
X133.8Y-79.95
X133.8Y-80.95
X133.8Y-81.95
X133.8Y-82.95
X134.2Y-84.2
X134.21Y-51.99
X134.21Y-62.15
X134.21Y-69.77
X134.21Y-90.09
X136.75Y-62.15
X136.75Y-69.77
X137.3Y-86.75
X137.65Y-89.125
X137.75Y-52.4
X137.8Y-58.2
X137.8Y-60.3
X138.4Y-53.1
X138.65Y-85.7
X139.29Y-57.07
X139.29Y-69.77
X139.975Y-85.425
X140.2Y-76.2
X140.419Y-74.019
X140.905Y-75.17
X141.65Y-74.45
X141.83Y-51.99
X141.83Y-54.53
X141.83Y-57.07
X141.83Y-59.61
X141.83Y-69.77
X141.83Y-95.17
X141.83Y-97.71
X142.1Y-72.575
X142.55Y-99.55
X142.7Y-89.95
X142.75Y-74.45
X142.85Y-83.3
X142.851Y-82.3
X142.9Y-84.957
X142.95Y-100.25
X143.3Y-71.825
X143.3Y-79.6
X143.55Y-85.65
X143.55Y-90.55
X143.6Y-94.4
X143.7Y-75.15
X143.75Y-73.25
X143.75Y-100.25
X143.85Y-87.9
X144.05Y-76.55
X144.15Y-78.8
X144.37Y-51.99
X144.37Y-54.53
X144.37Y-57.07
X144.37Y-59.61
X144.37Y-62.15
X144.37Y-69.77
X144.5Y-65.6
X144.5Y-66.65
X144.55Y-100.25
X144.64Y-87.44
X144.85Y-94.4
X144.95Y-99.55
X145.1Y-72.75
X145.25Y-64.1
X145.581Y-95.15
X146.05Y-94.4
X146.91Y-54.53
X146.91Y-57.07
X146.91Y-79.93
X146.91Y-82.47
X146.91Y-85.01
X146.91Y-87.55
X146.91Y-97.71
X147.25Y-94.35
X147.8Y-65.6
X148.05Y-68.15
X148.075Y-64.125
X148.45Y-67.15
X148.6Y-95.6
X148.725Y-90.775
X149.1Y-94.35
X149.25Y-72.95
X149.3Y-66.5
X149.45Y-51.99
X149.45Y-64.69
X149.45Y-79.93
X149.45Y-82.47
X149.45Y-85.01
X149.45Y-87.55
X149.5Y-91.325
X150.15Y-67.15
X150.325Y-92.0
X150.344Y-76.344
X150.35Y-68.85
X150.475Y-74.55
X150.5Y-61.6
X151.1Y-66.5
X151.175Y-92.0
X151.2Y-61.0
X151.65Y-72.9
X151.8Y-67.2
X151.9Y-94.5
X151.99Y-51.99
X151.99Y-64.69
X152.075Y-89.55
X152.4Y-68.4
X152.9Y-72.9
X153.15Y-90.05
X153.75Y-90.775
X154.15Y-59.25
X154.15Y-60.25
X154.15Y-61.35
X154.15Y-62.55
X154.15Y-63.55
X154.15Y-64.6
X154.15Y-65.6
X154.15Y-66.7
X154.15Y-67.75
X154.15Y-68.85
X154.53Y-51.99
X154.53Y-100.25
X154.55Y-72.95
X154.55Y-76.9
X154.55Y-78.474
X155.2Y-69.9
X155.2Y-93.55
X155.25Y-56.85
X155.25Y-74.7
X155.425Y-95.75
X155.7Y-89.4
X155.85Y-60.15
X155.9Y-59.2
X156.0Y-92.7
X156.25Y-69.9
X156.45Y-57.8
X156.525Y-88.8
X157.174Y-92.7
X157.25Y-69.9
X157.25Y-93.55
X157.35Y-89.4
X157.5Y-57.8
X157.5Y-60.35
X157.6Y-78.8
X158.175Y-88.825
X158.2Y-69.9
X158.35Y-79.45
X158.4Y-57.8
X158.4Y-90.175
X159.0Y-89.4
X159.1Y-59.2
X159.3Y-69.9
X159.61Y-67.23
X160.25Y-84.925
X160.5Y-69.9
X161.25Y-82.25
X161.4Y-85.175
X161.4Y-89.4
X161.6Y-69.9
X161.95Y-83.05
X162.15Y-97.71
X162.575Y-93.65
X162.65Y-69.9
X163.4Y-94.25
X163.75Y-68.75
X163.75Y-69.9
X164.2Y-53.4
X164.2Y-54.45
X164.2Y-55.5
X164.225Y-93.475
X164.69Y-82.47
X164.69Y-90.09
X164.69Y-92.63
X164.69Y-100.25
X165.05Y-53.4
X165.05Y-54.45
X165.05Y-55.5
X165.9Y-53.4
X165.9Y-54.45
X165.9Y-55.5
X167.23Y-62.15
X167.23Y-69.77
X167.23Y-82.47
X167.23Y-90.09
X167.23Y-92.63
X167.23Y-100.25
X169.77Y-62.15
X169.77Y-92.63
X169.77Y-100.25
X170.1Y-84.1
X170.7Y-79.35
X171.5Y-55.0
X172.31Y-95.17
X172.31Y-97.71
X172.31Y-100.25
X172.4Y-92.55
X172.5Y-80.6
X172.55Y-54.1
X172.55Y-86.15
X172.75Y-87.376
X173.25Y-79.8
X173.25Y-93.3
X173.5Y-88.55
X173.575Y-84.4
X174.35Y-78.35
X174.85Y-51.99
X174.85Y-62.15
X174.85Y-64.69
X174.85Y-95.17
X174.85Y-100.25
T2
X142.8Y-91.25
X153.25Y-94.4
X154.2Y-93.45
X155.65Y-78.7
X156.4Y-55.75
X156.4Y-56.85
X158.5Y-51.7
X158.5Y-52.75
X160.0Y-51.25
X161.3Y-53.35
X164.0Y-52.1
X164.0Y-56.7
X164.825Y-86.05
X165.0Y-52.1
X165.0Y-56.7
X166.0Y-52.1
X166.0Y-56.7
X169.534Y-86.075
X169.55Y-76.8
X169.85Y-88.9
X169.85Y-89.8
X169.85Y-90.75
X170.2Y-82.4
X170.9Y-76.85
X170.9Y-77.9
X171.65Y-56.15
X171.65Y-57.8
X172.85Y-56.15
X173.2Y-74.75
X173.2Y-75.7
X173.2Y-76.75
X174.15Y-56.15
X174.15Y-57.8
X174.15Y-59.15
X174.85Y-76.85
X175.45Y-67.7
X176.5Y-67.7
X176.5Y-68.7
X176.5Y-69.8
T3
X127.8Y-53.35
X127.8Y-55.15
X127.8Y-56.95
X127.8Y-58.75
X127.8Y-60.55
X127.8Y-71.95
X127.8Y-73.75
X127.8Y-75.55
X127.8Y-77.35
X127.8Y-79.15
X127.8Y-80.95
X127.8Y-82.75
X127.8Y-84.55
X127.8Y-86.35
X127.8Y-89.3
X127.8Y-91.1
X127.8Y-92.9
X127.8Y-94.7
X127.8Y-96.5
X156.0Y-99.9
X157.8Y-99.9
X159.6Y-99.9
X161.4Y-99.9
T5
X159.73Y-74.72
X159.73Y-75.99
X159.73Y-77.26
X159.73Y-78.53
X159.73Y-79.8
X161.0Y-74.72
X161.0Y-75.99
X161.0Y-77.26
X161.0Y-78.53
X161.0Y-79.8
T6
X136.5Y-65.5
X136.5Y-96.0
X167.0Y-65.5
X167.0Y-96.0
T7
X172.7Y-83.66
X172.7Y-89.44
T8
X126.9Y-65.05
X126.9Y-66.75
T9
X140.1Y-54.3
X175.2Y-54.3
X175.2Y-97.7
T4
X171.62Y-82.23G85X172.72Y-82.23
G05
X171.62Y-90.87G85X172.72Y-90.87
G05
X176.05Y-82.23G85X176.65Y-82.23
G05
X176.05Y-90.87G85X176.65Y-90.87
G05
T0
M30
