%TF.GenerationSoftware,KiCad,Pcbnew,(6.0.10-0)*%
%TF.CreationDate,2023-01-10T11:53:47+01:00*%
%TF.ProjectId,JFP_board_v2,4a46505f-626f-4617-9264-5f76322e6b69,rev?*%
%TF.SameCoordinates,Original*%
%TF.FileFunction,Paste,Top*%
%TF.FilePolarity,Positive*%
%FSLAX46Y46*%
G04 Gerber Fmt 4.6, Leading zero omitted, Abs format (unit mm)*
G04 Created by KiCad (PCBNEW (6.0.10-0)) date 2023-01-10 11:53:47*
%MOMM*%
%LPD*%
G01*
G04 APERTURE LIST*
G04 Aperture macros list*
%AMRoundRect*
0 Rectangle with rounded corners*
0 $1 Rounding radius*
0 $2 $3 $4 $5 $6 $7 $8 $9 X,Y pos of 4 corners*
0 Add a 4 corners polygon primitive as box body*
4,1,4,$2,$3,$4,$5,$6,$7,$8,$9,$2,$3,0*
0 Add four circle primitives for the rounded corners*
1,1,$1+$1,$2,$3*
1,1,$1+$1,$4,$5*
1,1,$1+$1,$6,$7*
1,1,$1+$1,$8,$9*
0 Add four rect primitives between the rounded corners*
20,1,$1+$1,$2,$3,$4,$5,0*
20,1,$1+$1,$4,$5,$6,$7,0*
20,1,$1+$1,$6,$7,$8,$9,0*
20,1,$1+$1,$8,$9,$2,$3,0*%
G04 Aperture macros list end*
%ADD10RoundRect,0.150000X0.150000X0.625000X-0.150000X0.625000X-0.150000X-0.625000X0.150000X-0.625000X0*%
%ADD11RoundRect,0.250000X0.350000X0.650000X-0.350000X0.650000X-0.350000X-0.650000X0.350000X-0.650000X0*%
%ADD12RoundRect,0.140000X0.170000X-0.140000X0.170000X0.140000X-0.170000X0.140000X-0.170000X-0.140000X0*%
%ADD13R,0.900000X1.200000*%
%ADD14RoundRect,0.135000X0.135000X0.185000X-0.135000X0.185000X-0.135000X-0.185000X0.135000X-0.185000X0*%
%ADD15RoundRect,0.218750X0.256250X-0.218750X0.256250X0.218750X-0.256250X0.218750X-0.256250X-0.218750X0*%
%ADD16RoundRect,0.140000X-0.170000X0.140000X-0.170000X-0.140000X0.170000X-0.140000X0.170000X0.140000X0*%
%ADD17RoundRect,0.135000X0.185000X-0.135000X0.185000X0.135000X-0.185000X0.135000X-0.185000X-0.135000X0*%
%ADD18RoundRect,0.200000X-0.275000X0.200000X-0.275000X-0.200000X0.275000X-0.200000X0.275000X0.200000X0*%
%ADD19RoundRect,0.225000X-0.225000X-0.250000X0.225000X-0.250000X0.225000X0.250000X-0.225000X0.250000X0*%
%ADD20RoundRect,0.140000X-0.140000X-0.170000X0.140000X-0.170000X0.140000X0.170000X-0.140000X0.170000X0*%
%ADD21RoundRect,0.250000X-0.325000X-0.650000X0.325000X-0.650000X0.325000X0.650000X-0.325000X0.650000X0*%
%ADD22RoundRect,0.135000X-0.185000X0.135000X-0.185000X-0.135000X0.185000X-0.135000X0.185000X0.135000X0*%
%ADD23RoundRect,0.225000X-0.250000X0.225000X-0.250000X-0.225000X0.250000X-0.225000X0.250000X0.225000X0*%
%ADD24RoundRect,0.250000X0.475000X-0.250000X0.475000X0.250000X-0.475000X0.250000X-0.475000X-0.250000X0*%
%ADD25RoundRect,0.140000X0.140000X0.170000X-0.140000X0.170000X-0.140000X-0.170000X0.140000X-0.170000X0*%
%ADD26RoundRect,0.150000X-0.650000X-0.150000X0.650000X-0.150000X0.650000X0.150000X-0.650000X0.150000X0*%
%ADD27R,0.675000X0.250000*%
%ADD28R,0.250000X0.675000*%
%ADD29R,1.000000X0.500000*%
%ADD30R,0.800000X0.500000*%
%ADD31R,1.450000X0.600000*%
%ADD32R,1.450000X0.300000*%
%ADD33R,1.400000X1.200000*%
%ADD34RoundRect,0.150000X-0.587500X-0.150000X0.587500X-0.150000X0.587500X0.150000X-0.587500X0.150000X0*%
%ADD35R,1.200000X0.300000*%
%ADD36R,0.300000X1.200000*%
%ADD37R,2.500000X1.800000*%
%ADD38RoundRect,0.242500X0.242500X0.382500X-0.242500X0.382500X-0.242500X-0.382500X0.242500X-0.382500X0*%
%ADD39RoundRect,0.150000X0.650000X0.150000X-0.650000X0.150000X-0.650000X-0.150000X0.650000X-0.150000X0*%
%ADD40R,2.000000X1.500000*%
%ADD41R,2.000000X3.800000*%
%ADD42RoundRect,0.150000X-0.512500X-0.150000X0.512500X-0.150000X0.512500X0.150000X-0.512500X0.150000X0*%
%ADD43R,1.200000X0.900000*%
%ADD44R,1.300000X1.150000*%
%ADD45R,2.000000X6.300000*%
%ADD46RoundRect,0.218750X0.381250X-0.218750X0.381250X0.218750X-0.381250X0.218750X-0.381250X-0.218750X0*%
%ADD47RoundRect,0.200000X0.275000X-0.200000X0.275000X0.200000X-0.275000X0.200000X-0.275000X-0.200000X0*%
%ADD48RoundRect,0.135000X-0.135000X-0.185000X0.135000X-0.185000X0.135000X0.185000X-0.135000X0.185000X0*%
G04 APERTURE END LIST*
D10*
%TO.C,J6*%
X155250000Y-55750000D03*
X154250000Y-55750000D03*
X153250000Y-55750000D03*
X152250000Y-55750000D03*
X151250000Y-55750000D03*
X150250000Y-55750000D03*
X149250000Y-55750000D03*
X148250000Y-55750000D03*
D11*
X146950000Y-51875000D03*
X156550000Y-51875000D03*
%TD*%
D12*
%TO.C,C8*%
X141600000Y-76130000D03*
X141600000Y-75170000D03*
%TD*%
D13*
%TO.C,D3*%
X175450000Y-78300000D03*
X172150000Y-78300000D03*
%TD*%
D14*
%TO.C,R11*%
X174260000Y-92525000D03*
X173240000Y-92525000D03*
%TD*%
D15*
%TO.C,D6*%
X155700000Y-86487500D03*
X155700000Y-84912500D03*
%TD*%
D16*
%TO.C,C14*%
X151910000Y-92770000D03*
X151910000Y-93730000D03*
%TD*%
D15*
%TO.C,D5*%
X159000000Y-86487500D03*
X159000000Y-84912500D03*
%TD*%
D12*
%TO.C,C17*%
X151100000Y-68130000D03*
X151100000Y-67170000D03*
%TD*%
%TO.C,C7*%
X139350000Y-86680000D03*
X139350000Y-85720000D03*
%TD*%
D17*
%TO.C,R18*%
X146050000Y-93760000D03*
X146050000Y-92740000D03*
%TD*%
D18*
%TO.C,R2*%
X171525000Y-52475000D03*
X171525000Y-54125000D03*
%TD*%
D14*
%TO.C,R5*%
X157610000Y-74700000D03*
X156590000Y-74700000D03*
%TD*%
%TO.C,R21*%
X137760000Y-54200000D03*
X136740000Y-54200000D03*
%TD*%
D19*
%TO.C,C5*%
X168425000Y-77900000D03*
X169975000Y-77900000D03*
%TD*%
D20*
%TO.C,C15*%
X156620000Y-79450000D03*
X157580000Y-79450000D03*
%TD*%
D21*
%TO.C,C3*%
X169925000Y-57800000D03*
X172875000Y-57800000D03*
%TD*%
D22*
%TO.C,R14*%
X152900000Y-73540000D03*
X152900000Y-74560000D03*
%TD*%
D17*
%TO.C,R25*%
X148450000Y-93760000D03*
X148450000Y-92740000D03*
%TD*%
D22*
%TO.C,R16*%
X148750000Y-73540000D03*
X148750000Y-74560000D03*
%TD*%
D14*
%TO.C,R3*%
X157610000Y-80850000D03*
X156590000Y-80850000D03*
%TD*%
D23*
%TO.C,C20*%
X163400000Y-91925000D03*
X163400000Y-93475000D03*
%TD*%
D22*
%TO.C,R8*%
X159000000Y-87790000D03*
X159000000Y-88810000D03*
%TD*%
%TO.C,R15*%
X149800000Y-73540000D03*
X149800000Y-74560000D03*
%TD*%
D24*
%TO.C,C1*%
X160000000Y-54350000D03*
X160000000Y-52450000D03*
%TD*%
D17*
%TO.C,R10*%
X145200000Y-74560000D03*
X145200000Y-73540000D03*
%TD*%
D25*
%TO.C,C10*%
X144530000Y-91250000D03*
X143570000Y-91250000D03*
%TD*%
%TO.C,C13*%
X137830000Y-78400000D03*
X136870000Y-78400000D03*
%TD*%
D15*
%TO.C,D4*%
X157350000Y-86487500D03*
X157350000Y-84912500D03*
%TD*%
D26*
%TO.C,U5*%
X143750000Y-95745000D03*
X143750000Y-97015000D03*
X143750000Y-98285000D03*
X143750000Y-99555000D03*
X150950000Y-99555000D03*
X150950000Y-98285000D03*
X150950000Y-97015000D03*
X150950000Y-95745000D03*
%TD*%
D22*
%TO.C,R13*%
X151650000Y-73540000D03*
X151650000Y-74560000D03*
%TD*%
D17*
%TO.C,R26*%
X149700000Y-93760000D03*
X149700000Y-92740000D03*
%TD*%
D25*
%TO.C,C12*%
X135830000Y-82950000D03*
X134870000Y-82950000D03*
%TD*%
D27*
%TO.C,U4*%
X151862500Y-71220000D03*
X151862500Y-70720000D03*
X151862500Y-70220000D03*
X151862500Y-69720000D03*
D28*
X151100000Y-69457500D03*
X150600000Y-69457500D03*
X150100000Y-69457500D03*
D27*
X149337500Y-69720000D03*
X149337500Y-70220000D03*
X149337500Y-70720000D03*
X149337500Y-71220000D03*
D28*
X150100000Y-71482500D03*
X150600000Y-71482500D03*
X151100000Y-71482500D03*
%TD*%
D29*
%TO.C,U7*%
X161750000Y-94500000D03*
D30*
X161850000Y-93650000D03*
X161850000Y-92750000D03*
X161850000Y-91850000D03*
X159350000Y-91850000D03*
X159350000Y-92750000D03*
X159350000Y-93650000D03*
X159350000Y-94550000D03*
%TD*%
D14*
%TO.C,R4*%
X157610000Y-77650000D03*
X156590000Y-77650000D03*
%TD*%
D17*
%TO.C,R17*%
X147250000Y-93760000D03*
X147250000Y-92740000D03*
%TD*%
D13*
%TO.C,D2*%
X173050000Y-60400000D03*
X169750000Y-60400000D03*
%TD*%
D19*
%TO.C,C2*%
X164825000Y-58200000D03*
X166375000Y-58200000D03*
%TD*%
D23*
%TO.C,C6*%
X153250000Y-91925000D03*
X153250000Y-93475000D03*
%TD*%
D14*
%TO.C,R12*%
X174260000Y-80625000D03*
X173240000Y-80625000D03*
%TD*%
D31*
%TO.C,J7*%
X171255000Y-89800000D03*
X171255000Y-89000000D03*
D32*
X171255000Y-87800000D03*
X171255000Y-86800000D03*
X171255000Y-86300000D03*
X171255000Y-85300000D03*
D31*
X171255000Y-84100000D03*
X171255000Y-83300000D03*
X171255000Y-83300000D03*
X171255000Y-84100000D03*
D32*
X171255000Y-84800000D03*
X171255000Y-85800000D03*
X171255000Y-87300000D03*
X171255000Y-88300000D03*
D31*
X171255000Y-89000000D03*
X171255000Y-89800000D03*
%TD*%
D22*
%TO.C,R9*%
X155700000Y-87790000D03*
X155700000Y-88810000D03*
%TD*%
D14*
%TO.C,R6*%
X137860000Y-83000000D03*
X136840000Y-83000000D03*
%TD*%
D33*
%TO.C,Y1*%
X135450000Y-81550000D03*
X137650000Y-81550000D03*
X137650000Y-79850000D03*
X135450000Y-79850000D03*
%TD*%
D17*
%TO.C,R24*%
X151175000Y-62610000D03*
X151175000Y-61590000D03*
%TD*%
D34*
%TO.C,Q1*%
X133312500Y-53350000D03*
X133312500Y-55250000D03*
X135187500Y-54300000D03*
%TD*%
D35*
%TO.C,U3*%
X141640000Y-79650000D03*
X141640000Y-80150000D03*
X141640000Y-80650000D03*
X141640000Y-81150000D03*
X141640000Y-81650000D03*
X141640000Y-82150000D03*
X141640000Y-82650000D03*
X141640000Y-83150000D03*
X141640000Y-83650000D03*
X141640000Y-84150000D03*
X141640000Y-84650000D03*
X141640000Y-85150000D03*
X141640000Y-85650000D03*
X141640000Y-86150000D03*
X141640000Y-86650000D03*
X141640000Y-87150000D03*
D36*
X143640000Y-89150000D03*
X144140000Y-89150000D03*
X144640000Y-89150000D03*
X145140000Y-89150000D03*
X145640000Y-89150000D03*
X146140000Y-89150000D03*
X146640000Y-89150000D03*
X147140000Y-89150000D03*
X147640000Y-89150000D03*
X148140000Y-89150000D03*
X148640000Y-89150000D03*
X149140000Y-89150000D03*
X149640000Y-89150000D03*
X150140000Y-89150000D03*
X150640000Y-89150000D03*
X151140000Y-89150000D03*
D35*
X153140000Y-87150000D03*
X153140000Y-86650000D03*
X153140000Y-86150000D03*
X153140000Y-85650000D03*
X153140000Y-85150000D03*
X153140000Y-84650000D03*
X153140000Y-84150000D03*
X153140000Y-83650000D03*
X153140000Y-83150000D03*
X153140000Y-82650000D03*
X153140000Y-82150000D03*
X153140000Y-81650000D03*
X153140000Y-81150000D03*
X153140000Y-80650000D03*
X153140000Y-80150000D03*
X153140000Y-79650000D03*
D36*
X151140000Y-77650000D03*
X150640000Y-77650000D03*
X150140000Y-77650000D03*
X149640000Y-77650000D03*
X149140000Y-77650000D03*
X148640000Y-77650000D03*
X148140000Y-77650000D03*
X147640000Y-77650000D03*
X147140000Y-77650000D03*
X146640000Y-77650000D03*
X146140000Y-77650000D03*
X145640000Y-77650000D03*
X145140000Y-77650000D03*
X144640000Y-77650000D03*
X144140000Y-77650000D03*
X143640000Y-77650000D03*
%TD*%
D22*
%TO.C,R7*%
X157350000Y-87790000D03*
X157350000Y-88810000D03*
%TD*%
D37*
%TO.C,D1*%
X161500000Y-59200000D03*
X157500000Y-59200000D03*
%TD*%
D12*
%TO.C,C18*%
X149300000Y-68130000D03*
X149300000Y-67170000D03*
%TD*%
D22*
%TO.C,R23*%
X152225000Y-61590000D03*
X152225000Y-62610000D03*
%TD*%
D25*
%TO.C,C16*%
X135830000Y-84200000D03*
X134870000Y-84200000D03*
%TD*%
D12*
%TO.C,C11*%
X142650000Y-76130000D03*
X142650000Y-75170000D03*
%TD*%
D17*
%TO.C,R19*%
X144850000Y-93760000D03*
X144850000Y-92740000D03*
%TD*%
D12*
%TO.C,C19*%
X150910000Y-93730000D03*
X150910000Y-92770000D03*
%TD*%
D17*
%TO.C,R20*%
X143600000Y-93760000D03*
X143600000Y-92740000D03*
%TD*%
D19*
%TO.C,C4*%
X173875000Y-68750000D03*
X175425000Y-68750000D03*
%TD*%
D38*
%TO.C,U1*%
X164400000Y-53625000D03*
X165600000Y-53625000D03*
X165600000Y-55175000D03*
X164400000Y-55175000D03*
D39*
X167650000Y-56305000D03*
X167650000Y-55035000D03*
X167650000Y-53765000D03*
X167650000Y-52495000D03*
X162350000Y-52495000D03*
X162350000Y-53765000D03*
X162350000Y-55035000D03*
X162350000Y-56305000D03*
%TD*%
D20*
%TO.C,C9*%
X154570000Y-79450000D03*
X155530000Y-79450000D03*
%TD*%
D40*
%TO.C,U2*%
X174850000Y-75700000D03*
D41*
X168550000Y-73400000D03*
D40*
X174850000Y-73400000D03*
X174850000Y-71100000D03*
%TD*%
D42*
%TO.C,U6*%
X166012500Y-85150000D03*
X166012500Y-86100000D03*
X166012500Y-87050000D03*
X168287500Y-87050000D03*
X168287500Y-86100000D03*
X168287500Y-85150000D03*
%TD*%
D43*
%TO.C,SW1*%
X126900000Y-63600000D03*
X126900000Y-68200000D03*
D44*
X128450000Y-64225000D03*
X128450000Y-67575000D03*
%TD*%
D45*
%TO.C,L1*%
X155950000Y-65750000D03*
X161950000Y-65750000D03*
%TD*%
D46*
%TO.C,FB1*%
X168700000Y-82512500D03*
X168700000Y-80387500D03*
%TD*%
D47*
%TO.C,R1*%
X169725000Y-54125000D03*
X169725000Y-52475000D03*
%TD*%
D48*
%TO.C,R22*%
X136740000Y-53100000D03*
X137760000Y-53100000D03*
%TD*%
M02*
