%TF.GenerationSoftware,KiCad,Pcbnew,(6.0.10-0)*%
%TF.CreationDate,2023-01-10T11:53:47+01:00*%
%TF.ProjectId,JFP_board_v2,4a46505f-626f-4617-9264-5f76322e6b69,rev?*%
%TF.SameCoordinates,Original*%
%TF.FileFunction,Soldermask,Top*%
%TF.FilePolarity,Negative*%
%FSLAX46Y46*%
G04 Gerber Fmt 4.6, Leading zero omitted, Abs format (unit mm)*
G04 Created by KiCad (PCBNEW (6.0.10-0)) date 2023-01-10 11:53:47*
%MOMM*%
%LPD*%
G01*
G04 APERTURE LIST*
G04 Aperture macros list*
%AMRoundRect*
0 Rectangle with rounded corners*
0 $1 Rounding radius*
0 $2 $3 $4 $5 $6 $7 $8 $9 X,Y pos of 4 corners*
0 Add a 4 corners polygon primitive as box body*
4,1,4,$2,$3,$4,$5,$6,$7,$8,$9,$2,$3,0*
0 Add four circle primitives for the rounded corners*
1,1,$1+$1,$2,$3*
1,1,$1+$1,$4,$5*
1,1,$1+$1,$6,$7*
1,1,$1+$1,$8,$9*
0 Add four rect primitives between the rounded corners*
20,1,$1+$1,$2,$3,$4,$5,0*
20,1,$1+$1,$4,$5,$6,$7,0*
20,1,$1+$1,$6,$7,$8,$9,0*
20,1,$1+$1,$8,$9,$2,$3,0*%
%AMFreePoly0*
4,1,37,0.585355,0.785355,0.600000,0.750000,0.600000,-0.750000,0.585355,-0.785355,0.550000,-0.800000,0.000000,-0.800000,-0.012524,-0.794812,-0.080857,-0.793560,-0.094851,-0.791293,-0.230166,-0.749018,-0.242962,-0.742915,-0.360972,-0.664360,-0.371540,-0.654911,-0.462760,-0.546392,-0.470252,-0.534356,-0.527347,-0.404597,-0.531159,-0.390943,-0.548742,-0.256483,-0.547388,-0.256306,-0.550000,-0.250000,
-0.550000,0.250000,-0.549522,0.251153,-0.549368,0.263802,-0.527557,0.403879,-0.523412,0.417435,-0.463164,0.545760,-0.455381,0.557609,-0.361537,0.663867,-0.350741,0.673055,-0.230846,0.748703,-0.217905,0.754492,-0.081598,0.793449,-0.067552,0.795373,-0.011991,0.795033,0.000000,0.800000,0.550000,0.800000,0.585355,0.785355,0.585355,0.785355,$1*%
%AMFreePoly1*
4,1,37,0.012350,0.794884,0.074210,0.794507,0.088231,0.792412,0.224052,0.751793,0.236921,0.745846,0.355883,0.668739,0.366566,0.659420,0.459104,0.552023,0.466742,0.540080,0.525419,0.411028,0.529398,0.397421,0.549495,0.257088,0.550000,0.250000,0.550000,-0.250000,0.549996,-0.250610,0.549847,-0.262826,0.549158,-0.270511,0.525638,-0.410312,0.521328,-0.423818,0.459516,-0.551397,
0.451589,-0.563150,0.356454,-0.668254,0.345546,-0.677309,0.224736,-0.751486,0.211726,-0.757116,0.074953,-0.794405,0.060885,-0.796158,0.011462,-0.795252,0.000000,-0.800000,-0.550000,-0.800000,-0.585355,-0.785355,-0.600000,-0.750000,-0.600000,0.750000,-0.585355,0.785355,-0.550000,0.800000,0.000000,0.800000,0.012350,0.794884,0.012350,0.794884,$1*%
G04 Aperture macros list end*
%ADD10RoundRect,0.200000X0.150000X0.625000X-0.150000X0.625000X-0.150000X-0.625000X0.150000X-0.625000X0*%
%ADD11RoundRect,0.300000X0.350000X0.650000X-0.350000X0.650000X-0.350000X-0.650000X0.350000X-0.650000X0*%
%ADD12C,1.100000*%
%ADD13RoundRect,0.190000X0.170000X-0.140000X0.170000X0.140000X-0.170000X0.140000X-0.170000X-0.140000X0*%
%ADD14RoundRect,0.050000X0.450000X0.600000X-0.450000X0.600000X-0.450000X-0.600000X0.450000X-0.600000X0*%
%ADD15RoundRect,0.350000X0.700000X0.300000X-0.700000X0.300000X-0.700000X-0.300000X0.700000X-0.300000X0*%
%ADD16RoundRect,0.185000X0.135000X0.185000X-0.135000X0.185000X-0.135000X-0.185000X0.135000X-0.185000X0*%
%ADD17RoundRect,0.268750X0.256250X-0.218750X0.256250X0.218750X-0.256250X0.218750X-0.256250X-0.218750X0*%
%ADD18RoundRect,0.190000X-0.170000X0.140000X-0.170000X-0.140000X0.170000X-0.140000X0.170000X0.140000X0*%
%ADD19C,1.300000*%
%ADD20RoundRect,0.185000X0.185000X-0.135000X0.185000X0.135000X-0.185000X0.135000X-0.185000X-0.135000X0*%
%ADD21RoundRect,0.250000X-0.275000X0.200000X-0.275000X-0.200000X0.275000X-0.200000X0.275000X0.200000X0*%
%ADD22RoundRect,0.275000X-0.225000X-0.250000X0.225000X-0.250000X0.225000X0.250000X-0.225000X0.250000X0*%
%ADD23RoundRect,0.190000X-0.140000X-0.170000X0.140000X-0.170000X0.140000X0.170000X-0.140000X0.170000X0*%
%ADD24RoundRect,0.300000X-0.325000X-0.650000X0.325000X-0.650000X0.325000X0.650000X-0.325000X0.650000X0*%
%ADD25RoundRect,0.185000X-0.185000X0.135000X-0.185000X-0.135000X0.185000X-0.135000X0.185000X0.135000X0*%
%ADD26RoundRect,0.275000X-0.250000X0.225000X-0.250000X-0.225000X0.250000X-0.225000X0.250000X0.225000X0*%
%ADD27RoundRect,0.050000X0.500000X0.500000X-0.500000X0.500000X-0.500000X-0.500000X0.500000X-0.500000X0*%
%ADD28O,1.100000X1.100000*%
%ADD29C,5.400000*%
%ADD30RoundRect,0.300000X0.475000X-0.250000X0.475000X0.250000X-0.475000X0.250000X-0.475000X-0.250000X0*%
%ADD31RoundRect,0.350000X-0.300000X0.700000X-0.300000X-0.700000X0.300000X-0.700000X0.300000X0.700000X0*%
%ADD32FreePoly0,270.000000*%
%ADD33RoundRect,0.050000X-0.750000X0.500000X-0.750000X-0.500000X0.750000X-0.500000X0.750000X0.500000X0*%
%ADD34FreePoly1,270.000000*%
%ADD35RoundRect,0.190000X0.140000X0.170000X-0.140000X0.170000X-0.140000X-0.170000X0.140000X-0.170000X0*%
%ADD36RoundRect,0.200000X-0.650000X-0.150000X0.650000X-0.150000X0.650000X0.150000X-0.650000X0.150000X0*%
%ADD37RoundRect,0.350000X-0.700000X-0.300000X0.700000X-0.300000X0.700000X0.300000X-0.700000X0.300000X0*%
%ADD38RoundRect,0.050000X0.337500X0.125000X-0.337500X0.125000X-0.337500X-0.125000X0.337500X-0.125000X0*%
%ADD39RoundRect,0.050000X0.125000X0.337500X-0.125000X0.337500X-0.125000X-0.337500X0.125000X-0.337500X0*%
%ADD40RoundRect,0.050000X-0.500000X-0.250000X0.500000X-0.250000X0.500000X0.250000X-0.500000X0.250000X0*%
%ADD41RoundRect,0.050000X0.400000X0.250000X-0.400000X0.250000X-0.400000X-0.250000X0.400000X-0.250000X0*%
%ADD42C,0.750000*%
%ADD43RoundRect,0.050000X0.725000X-0.300000X0.725000X0.300000X-0.725000X0.300000X-0.725000X-0.300000X0*%
%ADD44RoundRect,0.050000X0.725000X-0.150000X0.725000X0.150000X-0.725000X0.150000X-0.725000X-0.150000X0*%
%ADD45O,1.700000X1.100000*%
%ADD46O,2.200000X1.100000*%
%ADD47RoundRect,0.050000X-0.700000X-0.600000X0.700000X-0.600000X0.700000X0.600000X-0.700000X0.600000X0*%
%ADD48RoundRect,0.200000X-0.587500X-0.150000X0.587500X-0.150000X0.587500X0.150000X-0.587500X0.150000X0*%
%ADD49RoundRect,0.050000X-0.600000X0.150000X-0.600000X-0.150000X0.600000X-0.150000X0.600000X0.150000X0*%
%ADD50RoundRect,0.050000X-0.150000X0.600000X-0.150000X-0.600000X0.150000X-0.600000X0.150000X0.600000X0*%
%ADD51RoundRect,0.050000X1.250000X0.900000X-1.250000X0.900000X-1.250000X-0.900000X1.250000X-0.900000X0*%
%ADD52RoundRect,0.200000X0.650000X0.150000X-0.650000X0.150000X-0.650000X-0.150000X0.650000X-0.150000X0*%
%ADD53RoundRect,0.050000X1.205000X1.550000X-1.205000X1.550000X-1.205000X-1.550000X1.205000X-1.550000X0*%
%ADD54RoundRect,0.050000X1.000000X0.750000X-1.000000X0.750000X-1.000000X-0.750000X1.000000X-0.750000X0*%
%ADD55RoundRect,0.050000X1.000000X1.900000X-1.000000X1.900000X-1.000000X-1.900000X1.000000X-1.900000X0*%
%ADD56RoundRect,0.200000X-0.512500X-0.150000X0.512500X-0.150000X0.512500X0.150000X-0.512500X0.150000X0*%
%ADD57RoundRect,0.050000X0.600000X-0.450000X0.600000X0.450000X-0.600000X0.450000X-0.600000X-0.450000X0*%
%ADD58C,0.800000*%
%ADD59RoundRect,0.050000X0.650000X-0.575000X0.650000X0.575000X-0.650000X0.575000X-0.650000X-0.575000X0*%
%ADD60RoundRect,0.050000X-1.000000X3.150000X-1.000000X-3.150000X1.000000X-3.150000X1.000000X3.150000X0*%
%ADD61RoundRect,0.268750X0.381250X-0.218750X0.381250X0.218750X-0.381250X0.218750X-0.381250X-0.218750X0*%
%ADD62RoundRect,0.250000X0.275000X-0.200000X0.275000X0.200000X-0.275000X0.200000X-0.275000X-0.200000X0*%
%ADD63RoundRect,0.185000X-0.135000X-0.185000X0.135000X-0.185000X0.135000X0.185000X-0.135000X0.185000X0*%
G04 APERTURE END LIST*
D10*
%TO.C,J6*%
X155250000Y-55750000D03*
X154250000Y-55750000D03*
X153250000Y-55750000D03*
X152250000Y-55750000D03*
X151250000Y-55750000D03*
X150250000Y-55750000D03*
X149250000Y-55750000D03*
X148250000Y-55750000D03*
D11*
X146950000Y-51875000D03*
X156550000Y-51875000D03*
%TD*%
D12*
%TO.C,TP2*%
X146800000Y-61100000D03*
%TD*%
D13*
%TO.C,C8*%
X141600000Y-76130000D03*
X141600000Y-75170000D03*
%TD*%
D14*
%TO.C,D3*%
X175450000Y-78300000D03*
X172150000Y-78300000D03*
%TD*%
D12*
%TO.C,TP3*%
X146800000Y-58900000D03*
%TD*%
D15*
%TO.C,J4*%
X127800000Y-89300000D03*
X127800000Y-91100000D03*
X127800000Y-92900000D03*
X127800000Y-94700000D03*
X127800000Y-96500000D03*
%TD*%
D16*
%TO.C,R11*%
X174260000Y-92525000D03*
X173240000Y-92525000D03*
%TD*%
D17*
%TO.C,D6*%
X155700000Y-86487500D03*
X155700000Y-84912500D03*
%TD*%
D18*
%TO.C,C14*%
X151910000Y-92770000D03*
X151910000Y-93730000D03*
%TD*%
D17*
%TO.C,D5*%
X159000000Y-86487500D03*
X159000000Y-84912500D03*
%TD*%
D13*
%TO.C,C17*%
X151100000Y-68130000D03*
X151100000Y-67170000D03*
%TD*%
D19*
%TO.C,H6*%
X175200000Y-97700000D03*
%TD*%
D13*
%TO.C,C7*%
X139350000Y-86680000D03*
X139350000Y-85720000D03*
%TD*%
D20*
%TO.C,R18*%
X146050000Y-93760000D03*
X146050000Y-92740000D03*
%TD*%
D21*
%TO.C,R2*%
X171525000Y-52475000D03*
X171525000Y-54125000D03*
%TD*%
D16*
%TO.C,R5*%
X157610000Y-74700000D03*
X156590000Y-74700000D03*
%TD*%
%TO.C,R21*%
X137760000Y-54200000D03*
X136740000Y-54200000D03*
%TD*%
D22*
%TO.C,C5*%
X168425000Y-77900000D03*
X169975000Y-77900000D03*
%TD*%
D23*
%TO.C,C15*%
X156620000Y-79450000D03*
X157580000Y-79450000D03*
%TD*%
D19*
%TO.C,H7*%
X175200000Y-54300000D03*
%TD*%
D24*
%TO.C,C3*%
X169925000Y-57800000D03*
X172875000Y-57800000D03*
%TD*%
D25*
%TO.C,R14*%
X152900000Y-73540000D03*
X152900000Y-74560000D03*
%TD*%
D20*
%TO.C,R25*%
X148450000Y-93760000D03*
X148450000Y-92740000D03*
%TD*%
D25*
%TO.C,R16*%
X148750000Y-73540000D03*
X148750000Y-74560000D03*
%TD*%
D16*
%TO.C,R3*%
X157610000Y-80850000D03*
X156590000Y-80850000D03*
%TD*%
D26*
%TO.C,C20*%
X163400000Y-91925000D03*
X163400000Y-93475000D03*
%TD*%
D25*
%TO.C,R8*%
X159000000Y-87790000D03*
X159000000Y-88810000D03*
%TD*%
D27*
%TO.C,J5*%
X161000000Y-79800000D03*
D28*
X159730000Y-79800000D03*
X161000000Y-78530000D03*
X159730000Y-78530000D03*
X161000000Y-77260000D03*
X159730000Y-77260000D03*
X161000000Y-75990000D03*
X159730000Y-75990000D03*
X161000000Y-74720000D03*
X159730000Y-74720000D03*
%TD*%
D29*
%TO.C,H1*%
X136500000Y-65500000D03*
%TD*%
D25*
%TO.C,R15*%
X149800000Y-73540000D03*
X149800000Y-74560000D03*
%TD*%
D30*
%TO.C,C1*%
X160000000Y-54350000D03*
X160000000Y-52450000D03*
%TD*%
D29*
%TO.C,H3*%
X136500000Y-96000000D03*
%TD*%
D20*
%TO.C,R10*%
X145200000Y-74560000D03*
X145200000Y-73540000D03*
%TD*%
D31*
%TO.C,J3*%
X156000000Y-99900000D03*
X157800000Y-99900000D03*
X159600000Y-99900000D03*
X161400000Y-99900000D03*
%TD*%
D29*
%TO.C,H4*%
X167000000Y-96000000D03*
%TD*%
D32*
%TO.C,JP1*%
X134300000Y-57500000D03*
D33*
X134300000Y-58800000D03*
D34*
X134300000Y-60100000D03*
%TD*%
D35*
%TO.C,C10*%
X144530000Y-91250000D03*
X143570000Y-91250000D03*
%TD*%
%TO.C,C13*%
X137830000Y-78400000D03*
X136870000Y-78400000D03*
%TD*%
D17*
%TO.C,D4*%
X157350000Y-86487500D03*
X157350000Y-84912500D03*
%TD*%
D36*
%TO.C,U5*%
X143750000Y-95745000D03*
X143750000Y-97015000D03*
X143750000Y-98285000D03*
X143750000Y-99555000D03*
X150950000Y-99555000D03*
X150950000Y-98285000D03*
X150950000Y-97015000D03*
X150950000Y-95745000D03*
%TD*%
D25*
%TO.C,R13*%
X151650000Y-73540000D03*
X151650000Y-74560000D03*
%TD*%
D20*
%TO.C,R26*%
X149700000Y-93760000D03*
X149700000Y-92740000D03*
%TD*%
D19*
%TO.C,H5*%
X140100000Y-54300000D03*
%TD*%
D37*
%TO.C,J2*%
X127800000Y-60550000D03*
X127800000Y-58750000D03*
X127800000Y-56950000D03*
X127800000Y-55150000D03*
X127800000Y-53350000D03*
%TD*%
D35*
%TO.C,C12*%
X135830000Y-82950000D03*
X134870000Y-82950000D03*
%TD*%
D38*
%TO.C,U4*%
X151862500Y-71220000D03*
X151862500Y-70720000D03*
X151862500Y-70220000D03*
X151862500Y-69720000D03*
D39*
X151100000Y-69457500D03*
X150600000Y-69457500D03*
X150100000Y-69457500D03*
D38*
X149337500Y-69720000D03*
X149337500Y-70220000D03*
X149337500Y-70720000D03*
X149337500Y-71220000D03*
D39*
X150100000Y-71482500D03*
X150600000Y-71482500D03*
X151100000Y-71482500D03*
%TD*%
D40*
%TO.C,U7*%
X161750000Y-94500000D03*
D41*
X161850000Y-93650000D03*
X161850000Y-92750000D03*
X161850000Y-91850000D03*
X159350000Y-91850000D03*
X159350000Y-92750000D03*
X159350000Y-93650000D03*
X159350000Y-94550000D03*
%TD*%
D16*
%TO.C,R4*%
X157610000Y-77650000D03*
X156590000Y-77650000D03*
%TD*%
D20*
%TO.C,R17*%
X147250000Y-93760000D03*
X147250000Y-92740000D03*
%TD*%
D14*
%TO.C,D2*%
X173050000Y-60400000D03*
X169750000Y-60400000D03*
%TD*%
D22*
%TO.C,C2*%
X164825000Y-58200000D03*
X166375000Y-58200000D03*
%TD*%
D26*
%TO.C,C6*%
X153250000Y-91925000D03*
X153250000Y-93475000D03*
%TD*%
D16*
%TO.C,R12*%
X174260000Y-80625000D03*
X173240000Y-80625000D03*
%TD*%
D42*
%TO.C,J7*%
X172700000Y-89440000D03*
X172700000Y-83660000D03*
D43*
X171255000Y-89800000D03*
X171255000Y-89000000D03*
D44*
X171255000Y-87800000D03*
X171255000Y-86800000D03*
X171255000Y-86300000D03*
X171255000Y-85300000D03*
D43*
X171255000Y-84100000D03*
X171255000Y-83300000D03*
X171255000Y-83300000D03*
X171255000Y-84100000D03*
D44*
X171255000Y-84800000D03*
X171255000Y-85800000D03*
X171255000Y-87300000D03*
X171255000Y-88300000D03*
D43*
X171255000Y-89000000D03*
X171255000Y-89800000D03*
D45*
X176350000Y-82230000D03*
X176350000Y-90870000D03*
D46*
X172170000Y-90870000D03*
X172170000Y-82230000D03*
%TD*%
D25*
%TO.C,R9*%
X155700000Y-87790000D03*
X155700000Y-88810000D03*
%TD*%
D16*
%TO.C,R6*%
X137860000Y-83000000D03*
X136840000Y-83000000D03*
%TD*%
D47*
%TO.C,Y1*%
X135450000Y-81550000D03*
X137650000Y-81550000D03*
X137650000Y-79850000D03*
X135450000Y-79850000D03*
%TD*%
D20*
%TO.C,R24*%
X151175000Y-62610000D03*
X151175000Y-61590000D03*
%TD*%
D48*
%TO.C,Q1*%
X133312500Y-53350000D03*
X133312500Y-55250000D03*
X135187500Y-54300000D03*
%TD*%
D49*
%TO.C,U3*%
X141640000Y-79650000D03*
X141640000Y-80150000D03*
X141640000Y-80650000D03*
X141640000Y-81150000D03*
X141640000Y-81650000D03*
X141640000Y-82150000D03*
X141640000Y-82650000D03*
X141640000Y-83150000D03*
X141640000Y-83650000D03*
X141640000Y-84150000D03*
X141640000Y-84650000D03*
X141640000Y-85150000D03*
X141640000Y-85650000D03*
X141640000Y-86150000D03*
X141640000Y-86650000D03*
X141640000Y-87150000D03*
D50*
X143640000Y-89150000D03*
X144140000Y-89150000D03*
X144640000Y-89150000D03*
X145140000Y-89150000D03*
X145640000Y-89150000D03*
X146140000Y-89150000D03*
X146640000Y-89150000D03*
X147140000Y-89150000D03*
X147640000Y-89150000D03*
X148140000Y-89150000D03*
X148640000Y-89150000D03*
X149140000Y-89150000D03*
X149640000Y-89150000D03*
X150140000Y-89150000D03*
X150640000Y-89150000D03*
X151140000Y-89150000D03*
D49*
X153140000Y-87150000D03*
X153140000Y-86650000D03*
X153140000Y-86150000D03*
X153140000Y-85650000D03*
X153140000Y-85150000D03*
X153140000Y-84650000D03*
X153140000Y-84150000D03*
X153140000Y-83650000D03*
X153140000Y-83150000D03*
X153140000Y-82650000D03*
X153140000Y-82150000D03*
X153140000Y-81650000D03*
X153140000Y-81150000D03*
X153140000Y-80650000D03*
X153140000Y-80150000D03*
X153140000Y-79650000D03*
D50*
X151140000Y-77650000D03*
X150640000Y-77650000D03*
X150140000Y-77650000D03*
X149640000Y-77650000D03*
X149140000Y-77650000D03*
X148640000Y-77650000D03*
X148140000Y-77650000D03*
X147640000Y-77650000D03*
X147140000Y-77650000D03*
X146640000Y-77650000D03*
X146140000Y-77650000D03*
X145640000Y-77650000D03*
X145140000Y-77650000D03*
X144640000Y-77650000D03*
X144140000Y-77650000D03*
X143640000Y-77650000D03*
%TD*%
D25*
%TO.C,R7*%
X157350000Y-87790000D03*
X157350000Y-88810000D03*
%TD*%
D51*
%TO.C,D1*%
X161500000Y-59200000D03*
X157500000Y-59200000D03*
%TD*%
D13*
%TO.C,C18*%
X149300000Y-68130000D03*
X149300000Y-67170000D03*
%TD*%
D25*
%TO.C,R23*%
X152225000Y-61590000D03*
X152225000Y-62610000D03*
%TD*%
D29*
%TO.C,H2*%
X167000000Y-65500000D03*
%TD*%
D35*
%TO.C,C16*%
X135830000Y-84200000D03*
X134870000Y-84200000D03*
%TD*%
D13*
%TO.C,C11*%
X142650000Y-76130000D03*
X142650000Y-75170000D03*
%TD*%
D20*
%TO.C,R19*%
X144850000Y-93760000D03*
X144850000Y-92740000D03*
%TD*%
D13*
%TO.C,C19*%
X150910000Y-93730000D03*
X150910000Y-92770000D03*
%TD*%
D20*
%TO.C,R20*%
X143600000Y-93760000D03*
X143600000Y-92740000D03*
%TD*%
D22*
%TO.C,C4*%
X173875000Y-68750000D03*
X175425000Y-68750000D03*
%TD*%
D12*
%TO.C,TP4*%
X159650000Y-56200000D03*
%TD*%
D52*
%TO.C,U1*%
X167650000Y-56305000D03*
X167650000Y-55035000D03*
X167650000Y-53765000D03*
X167650000Y-52495000D03*
X162350000Y-52495000D03*
X162350000Y-53765000D03*
X162350000Y-55035000D03*
X162350000Y-56305000D03*
D53*
X165000000Y-54400000D03*
%TD*%
D37*
%TO.C,J1*%
X127800000Y-86350000D03*
X127800000Y-84550000D03*
X127800000Y-82750000D03*
X127800000Y-80950000D03*
X127800000Y-79150000D03*
X127800000Y-77350000D03*
X127800000Y-75550000D03*
X127800000Y-73750000D03*
X127800000Y-71950000D03*
%TD*%
D23*
%TO.C,C9*%
X154570000Y-79450000D03*
X155530000Y-79450000D03*
%TD*%
D54*
%TO.C,U2*%
X174850000Y-75700000D03*
D55*
X168550000Y-73400000D03*
D54*
X174850000Y-73400000D03*
X174850000Y-71100000D03*
%TD*%
D56*
%TO.C,U6*%
X166012500Y-85150000D03*
X166012500Y-86100000D03*
X166012500Y-87050000D03*
X168287500Y-87050000D03*
X168287500Y-86100000D03*
X168287500Y-85150000D03*
%TD*%
D57*
%TO.C,SW1*%
X126900000Y-63600000D03*
D58*
X126900000Y-66750000D03*
D57*
X126900000Y-68200000D03*
D58*
X126900000Y-65050000D03*
D59*
X128450000Y-64225000D03*
X128450000Y-67575000D03*
%TD*%
D60*
%TO.C,L1*%
X155950000Y-65750000D03*
X161950000Y-65750000D03*
%TD*%
D61*
%TO.C,FB1*%
X168700000Y-82512500D03*
X168700000Y-80387500D03*
%TD*%
D62*
%TO.C,R1*%
X169725000Y-54125000D03*
X169725000Y-52475000D03*
%TD*%
D63*
%TO.C,R22*%
X136740000Y-53100000D03*
X137760000Y-53100000D03*
%TD*%
D12*
%TO.C,TP1*%
X155100000Y-71800000D03*
%TD*%
M02*
